<svg width="582" height="639" viewBox="0 0 582 639" fill="none" xmlns="http://www.w3.org/2000/svg">
<path d="M582 82H0V638H582V82Z" fill="#23A094"/>
<path d="M414.85 484.385L373.55 524.345C303.991 542.885 208.623 568.162 208.623 568.162L129.131 638H1.96631V540.917L122.686 438.377C122.686 438.377 119.258 432.094 124.556 417.383C129.863 402.673 149.823 349.808 155.13 335.921C160.433 322.034 169.476 308.588 185.542 313.034C196.325 316.017 202.681 325.776 204.324 336.828L200.547 361.611C196.827 370.723 192.99 373.797 189.752 385.672C185.696 400.537 191.019 424.048 191.019 424.048L185.538 459.987L184.004 461.817C176.843 446.06 167.132 439.3 167.132 439.3L187.412 531.388C191.978 512.402 192.31 496.769 190.444 484.119H300.951C300.951 484.119 302.829 490.378 303.716 498.296L400.46 484.119H414.696C414.798 484.294 414.85 484.385 414.85 484.385Z" fill="#FF90E8"/>
<path d="M400.46 484.119L303.716 498.296C302.825 490.382 300.951 484.119 300.951 484.119H400.46V484.119Z" fill="#FF90E8"/>
<path d="M1.96631 540.917L122.686 438.377C122.686 438.377 119.258 432.094 124.556 417.383C129.863 402.673 149.823 349.808 155.13 335.921C160.433 322.034 169.476 308.588 185.542 313.034C201.604 317.48 207.842 336.939 203.32 353.336C198.795 369.728 193.804 370.802 189.752 385.672C185.696 400.537 191.019 424.048 191.019 424.048" stroke="black" stroke-width="2" stroke-miterlimit="10" stroke-linecap="round" stroke-linejoin="round"/>
<path d="M303.716 498.297L400.46 484.115" stroke="black" stroke-width="2" stroke-miterlimit="10" stroke-linecap="round" stroke-linejoin="round"/>
<path d="M300.955 484.115C300.955 484.115 306.666 503.192 302.874 516.829" stroke="black" stroke-width="2" stroke-miterlimit="10" stroke-linecap="round" stroke-linejoin="round"/>
<path d="M190.444 484.115H420.112L447.565 427.5L459.438 315.269L491.606 160.569L412.847 190.296L185.538 459.983L176.806 470.403L190.444 484.115Z" fill="#90A8ED" stroke="black" stroke-width="2" stroke-miterlimit="10" stroke-linecap="round" stroke-linejoin="round"/>
<path d="M397.772 148.348H233.072L185.538 459.984H400.747H409.503L475.014 155.053L462.223 148.348H397.772Z" fill="black" stroke="black" stroke-width="2" stroke-miterlimit="10" stroke-linecap="round" stroke-linejoin="round"/>
<path d="M442.275 355.296C442.275 355.296 435.086 342.531 437.114 330.234C439.142 317.938 442.826 314.72 450.731 312.04C458.637 309.36 461.446 319.473 463.004 321.616C464.563 323.76 487.648 373.332 490.141 379.424C492.635 385.517 494.974 408.038 469.712 417.232C444.445 426.427 442.275 355.296 442.275 355.296Z" fill="#FF90E8" stroke="black" stroke-width="2" stroke-miterlimit="10" stroke-linecap="round" stroke-linejoin="round"/>
<path d="M435.349 401.882C435.349 401.882 427.285 385.477 427.285 372.93C427.285 360.383 434.567 354.712 439.506 354.712C444.44 354.712 448.702 360.383 450.16 364.213C451.617 368.042 470.488 410.094 472.516 414.81C474.544 419.527 477.349 443.432 462.846 447.568C448.342 451.708 435.349 401.882 435.349 401.882Z" fill="#FF90E8" stroke="black" stroke-width="2" stroke-miterlimit="10" stroke-linecap="round" stroke-linejoin="round"/>
<path d="M416.801 432.193C416.801 432.193 406.872 413.975 411.855 404.303C416.838 394.632 436.49 394.902 451.775 418.25C467.06 441.599 469.088 459.526 468.464 463.817C467.841 468.108 464.408 488.335 446.318 486.955C428.224 485.571 416.801 432.193 416.801 432.193Z" fill="#FF90E8" stroke="black" stroke-width="2" stroke-miterlimit="10" stroke-linecap="round" stroke-linejoin="round"/>
<path d="M198.794 448.53H389.583L443.975 167.926H242.467L198.794 448.53Z" fill="#FFC900"/>
<path d="M167.136 439.296C167.136 439.296 203.478 464.581 187.412 531.388Z" fill="#FF90E8"/>
<path d="M167.136 439.296C167.136 439.296 203.478 464.581 187.412 531.388" stroke="black" stroke-width="2" stroke-miterlimit="10" stroke-linecap="round" stroke-linejoin="round"/>
<path d="M269.009 432.352C269.009 432.352 270.587 437.037 270.879 436.691C271.17 436.345 272.284 433.617 272.603 433.271C272.923 432.925 274.68 437.291 275.498 436.575C276.315 435.856 276.348 433.243 277.165 432.754C277.983 432.264 279.331 436.719 280.031 436.058C280.731 435.398 281.521 432.237 282.197 432.726C282.869 433.215 282.84 436.317 284.039 436.404C285.237 436.492 285.382 432.698 286.233 432.785C287.083 432.873 287.957 436.404 288.544 435.545C289.131 434.686 288.864 432.268 289.714 432.642C290.564 433.016 291.09 436.866 291.762 435.919C292.434 434.973 292.669 431.409 293.458 432.356C294.247 433.302 294.745 437.041 295.506 436.035C296.267 435.028 297.376 432.125 297.7 432.197C298.02 432.268 298.283 435.601 299.279 435.458C300.275 435.315 300.594 432.241 301.092 432.785C301.59 433.33 301.825 436.921 302.732 436.09C303.638 435.255 303.784 432.296 304.634 433.104C305.484 433.907 305.424 436.723 306.011 436.007C306.593 435.287 307.124 432.328 307.852 432.817C308.585 433.306 309.022 436.122 309.84 435.374C310.657 434.627 311.682 432.503 311.682 432.503" stroke="black" stroke-width="2" stroke-miterlimit="10" stroke-linecap="round" stroke-linejoin="round"/>
<path d="M312.059 422.641C312.059 422.641 310.946 425.484 310.043 425.886C309.136 426.287 308.258 423.846 307.821 423.241C307.383 422.637 307.266 425.484 306.651 425.929C306.035 426.375 305.598 425.082 305.072 424.076C304.546 423.07 303.433 426.49 302.878 426.546C302.324 426.601 301.737 423.269 301.356 423.01C300.976 422.752 300.656 425.452 299.688 425.365C298.721 425.277 298.636 422.637 297.875 422.318C297.114 422 296.531 426.971 295.535 426.745C294.54 426.518 293.722 422.493 293.459 422.318C293.196 422.143 292.495 426.586 291.763 426.753C291.03 426.916 290.504 424.764 290.123 423.5C289.743 422.235 289.423 425.078 288.484 425.711C287.549 426.343 287.577 422.839 286.351 423.038C285.124 423.241 284.918 427.409 283.983 426.761C283.048 426.112 283.019 423.671 282.287 423.209C281.554 422.748 281.088 425.91 280.416 426.454C279.744 426.999 278.401 423.726 277.696 423.034C276.996 422.346 276.733 426.339 275.474 426.395C274.215 426.45 273.397 423.293 272.815 423.348C272.232 423.404 272.434 426.367 271.236 426.625C270.038 426.884 269.366 422.302 269.366 422.302" stroke="black" stroke-width="2" stroke-miterlimit="10" stroke-linecap="round" stroke-linejoin="round"/>
<path d="M319.308 432.754C319.308 432.754 319.806 436.114 320.304 436.174C320.802 436.23 322.7 433.128 322.878 432.754C323.052 432.38 324.048 436.862 324.983 436.433C325.918 436.003 327.266 432.412 328.229 432.495C329.193 432.583 329.254 436.174 330.071 435.685C330.889 435.196 331.767 433.096 332.965 432.495C334.164 431.895 334.046 434.42 335.479 434.826C336.912 435.228 337.875 431.092 338.754 431.378C339.632 431.664 339.543 435.43 340.83 435.657C342.118 435.888 342.907 433.012 342.907 433.012" stroke="black" stroke-width="2" stroke-miterlimit="10" stroke-linecap="round" stroke-linejoin="round"/>
<path d="M343.203 423.388C343.203 423.388 342.353 426.407 341.244 426.232C340.135 426.057 340.309 422.756 339.313 421.607C338.317 420.457 336.127 426.403 335.249 425.599C334.37 424.796 334.459 422.871 333.698 422.382C332.937 421.893 331.387 426.347 330.363 426.088C329.339 425.83 329.399 424.219 328.61 423.13C327.821 422.036 326.445 426.518 325.509 426.979C324.574 427.441 323.607 423.905 322.907 423.301C322.206 422.696 321.417 426.892 320.624 426.578C319.83 426.263 319.51 422.613 319.51 422.613" stroke="black" stroke-width="2" stroke-miterlimit="10" stroke-linecap="round" stroke-linejoin="round"/>
<path d="M322.437 417.443C322.437 417.443 324.222 413.22 324.805 412.5C325.388 411.78 326.383 418.044 327.116 417.037C327.849 416.031 328.492 412.929 329.427 412.241C330.363 411.553 329.925 417.328 331.067 416.52C332.208 415.717 332.617 412.269 332.998 412.182C333.378 412.094 334.402 416.461 334.402 416.461" stroke="black" stroke-width="2" stroke-miterlimit="10" stroke-linecap="round" stroke-linejoin="round"/>
<path d="M302.873 417.228C302.873 417.228 304.071 414.055 304.48 413.796C304.889 413.538 307.2 418.708 307.609 417.789C308.018 416.871 308.31 414.111 308.953 413.478C309.597 412.846 311.321 417.356 311.847 416.954C312.374 416.552 313.163 414.568 313.863 413.566C314.564 412.56 315.766 416.696 315.766 416.696" stroke="black" stroke-width="2" stroke-miterlimit="10" stroke-linecap="round" stroke-linejoin="round"/>
<path d="M274.069 412.642C274.069 412.642 275.854 417.526 276.526 417.212C277.198 416.898 278.485 412.961 278.809 412.845C279.128 412.73 279.744 416.579 280.622 416.607C281.501 416.635 282.407 413.33 282.638 412.384C282.873 411.437 284.54 416.146 285.386 416.146C286.232 416.146 286.702 412.153 287.2 411.807C287.698 411.461 289.277 416.234 290.301 416.003C291.325 415.772 292.114 412.44 292.551 412.499C292.988 412.555 292.843 415.43 293.632 416.81" stroke="black" stroke-width="2" stroke-miterlimit="10" stroke-linecap="round" stroke-linejoin="round"/>
<path d="M315.187 401.869C315.187 401.869 313.726 405.488 312.993 405.52C312.26 405.548 311.706 403.221 311.09 402.82C310.475 402.418 310.329 405.751 309.394 405.981C308.459 406.212 308.225 403.48 307.844 403.193C307.464 402.907 307.318 406.124 306.176 406.323C305.035 406.526 305.415 403.221 304.654 402.788C303.893 402.354 303.428 405.659 302.521 405.317C301.614 404.971 301.558 402.617 300.797 402.187C300.036 401.758 299.716 406.009 298.631 406.208C297.55 406.411 297.765 403.42 296.72 402.474C295.676 401.527 295.15 406.753 294.421 406.152C293.689 405.548 293.397 402.215 293.106 402.215C292.814 402.215 292.227 406.093 291.353 405.432C290.479 404.772 290.357 402.474 289.422 402.529C288.487 402.585 288.604 406.351 287.374 405.89C286.147 405.428 286.439 403.563 285.415 402.871C284.391 402.183 284.334 406.319 283.338 406.148C282.342 405.977 281.496 403.074 280.824 402.585C280.153 402.096 279.481 407.21 278.396 406.693C277.311 406.176 276.789 403.416 276.113 403.042C275.441 402.668 275.06 406.952 274.154 406.578C273.247 406.204 272.514 402.211 272.514 402.211" stroke="black" stroke-width="2" stroke-miterlimit="10" stroke-linecap="round" stroke-linejoin="round"/>
<path d="M346.36 402.963C346.36 402.963 345.336 405.262 344.49 405.723C343.64 406.184 342.822 402.39 342.296 401.412C341.77 400.434 339.487 405.174 338.758 404.86C338.026 404.546 337.354 402.561 336.917 402.017C336.479 401.472 333.994 405.751 333.201 405.608C332.411 405.464 332.237 402.589 331.505 402.303C330.772 402.017 329.545 405.405 328.873 406.383C328.202 407.361 326.858 403.623 326.214 402.848C325.57 402.072 324.692 406.276 323.874 406.542C323.057 406.813 322.441 402.53 322.441 402.53" stroke="black" stroke-width="2" stroke-miterlimit="10" stroke-linecap="round" stroke-linejoin="round"/>
<path d="M325.655 397.073C325.655 397.073 327.703 392.218 328.051 392.047C328.399 391.876 329.865 396.958 330.334 396.358C330.804 395.753 331.974 391.752 332.82 392.043C333.67 392.333 333.872 396.7 334.487 396.27C335.103 395.841 335.014 392.591 335.892 392.162C336.77 391.732 336.916 395.896 336.916 395.896" stroke="black" stroke-width="2" stroke-miterlimit="10" stroke-linecap="round" stroke-linejoin="round"/>
<path d="M305.683 397.216C305.683 397.216 307.144 393.911 307.468 393.597C307.788 393.283 309.897 397.216 310.686 397.216C311.475 397.216 312.002 393.565 312.354 393.108C312.706 392.647 314.256 397.709 314.867 397.061C315.479 396.413 316.244 392.619 316.972 392.591C317.705 392.563 318.64 396.699 318.64 396.699" stroke="black" stroke-width="2" stroke-miterlimit="10" stroke-linecap="round" stroke-linejoin="round"/>
<path d="M277.247 392.544C277.247 392.544 279.08 397.638 279.586 397.006C280.092 396.373 280.971 393.116 281.4 392.715C281.829 392.313 282.727 396.775 283.954 396.509C285.18 396.242 285.395 392.639 285.727 391.987C286.059 391.335 287.872 396.163 288.71 395.952C289.548 395.741 289.589 393.156 290.095 391.987C290.601 390.818 292.414 396.087 293.41 395.912C294.406 395.741 294.62 392.389 295.183 392.158C295.745 391.927 295.397 394.075 296.721 396.6" stroke="black" stroke-width="2" stroke-miterlimit="10" stroke-linecap="round" stroke-linejoin="round"/>
<path d="M318.851 380.649C318.851 380.649 317.252 383.599 316.782 383.79C316.313 383.981 315.689 382.104 314.949 381.301C314.208 380.497 312.998 384.979 312.686 384.212C312.374 383.444 312.297 381.913 311.593 381.722C310.889 381.531 310.775 384.391 309.917 384.299C309.059 384.212 309.1 380.995 308.553 380.649C308.007 380.303 306.408 384.327 306.096 383.444C305.784 382.561 305.513 379.996 304.849 379.996C304.185 379.996 304.226 384.275 302.667 384.59C301.109 384.9 300.992 380.879 300.368 380.493C299.745 380.112 299.628 385.043 298.498 384.59C297.369 384.136 297.288 380.955 296.859 380.955C296.43 380.955 296.43 384.478 295.377 383.866C294.325 383.253 294.09 380.342 293.349 380.533C292.608 380.724 292.685 384.928 291.321 384.59C289.957 384.248 290.504 381.567 289.099 381.146C287.694 380.724 288.399 384.86 287.031 384.403C285.666 383.941 285.355 380.458 284.262 380.764C283.169 381.07 283.679 384.836 282.622 384.621C281.57 384.407 280.829 382.259 280.129 381.571C279.429 380.883 279 384.514 278.141 384.633C277.283 384.753 276.348 380.692 276.348 380.692" stroke="black" stroke-width="2" stroke-miterlimit="10" stroke-linecap="round" stroke-linejoin="round"/>
<path d="M326.376 380.609C326.376 380.609 326.805 385.016 327.428 384.554C328.052 384.093 329.379 381.261 329.885 380.991C330.391 380.724 331.29 384.785 332.031 384.324C332.771 383.862 334.253 380.8 335.034 380.609C335.815 380.418 336.127 384.67 337.491 383.48C338.855 382.291 339.871 380.378 340.454 380.299C341.037 380.223 340.96 383.365 342.636 383.21C344.312 383.055 345.053 379.993 345.988 379.456C346.923 378.919 347.352 384.244 348.169 383.822C348.987 383.401 349.691 381.484 349.691 381.484" stroke="black" stroke-width="2" stroke-miterlimit="10" stroke-linecap="round" stroke-linejoin="round"/>
<path d="M329.261 375.515C329.261 375.515 330.743 372.512 331.561 370.949C332.378 369.386 333.394 375.706 334.018 374.747C334.641 373.789 335.734 370.726 336.455 370.42C337.175 370.114 337.292 374.596 337.879 374.52C338.462 374.445 338.426 371.045 339.519 370.408C340.612 369.772 341.235 374.715 341.235 374.715" stroke="black" stroke-width="2" stroke-miterlimit="10" stroke-linecap="round" stroke-linejoin="round"/>
<path d="M309.532 375.709C309.532 375.709 310.86 372.679 311.366 371.911C311.872 371.144 314.252 376.238 314.718 375.319C315.187 374.401 315.693 370.953 316.317 371.259C316.94 371.565 317.758 375.932 318.499 375.395C319.239 374.858 320.603 371.144 320.879 370.953C321.15 370.762 322.437 374.862 322.437 374.862" stroke="black" stroke-width="2" stroke-miterlimit="10" stroke-linecap="round" stroke-linejoin="round"/>
<path d="M280.757 370.535C280.757 370.535 282.473 375.9 283.137 375.705C283.801 375.514 284.736 371.53 285.359 370.917C285.982 370.305 287.27 375.896 287.893 374.596C288.516 373.295 289.727 368.925 290.156 369.847C290.585 370.77 292.301 374.596 292.73 373.677C293.159 372.758 293.394 370.245 294.017 369.72C294.641 369.195 296.045 374.214 297.215 373.828C298.385 373.443 298.543 371.569 299.243 370.842C299.944 370.114 299.632 372.719 300.765 374.481" stroke="black" stroke-width="2" stroke-miterlimit="10" stroke-linecap="round" stroke-linejoin="round"/>
<path d="M320.567 362.069C320.567 362.069 319.239 365.211 318.304 365.477C317.369 365.743 316.746 362.526 316.276 362.526C315.807 362.526 315.888 364.204 314.948 365.493C314.013 366.781 313.856 364.212 313.35 363.139C312.844 362.065 311.633 367.354 311.05 366.089C310.467 364.825 310.933 362.411 310.115 362.069C309.298 361.723 309.532 365.326 308.047 365.055C306.565 364.789 306.606 361.532 305.901 361.607C305.201 361.683 305.12 366.483 303.874 366.284C302.627 366.089 302.432 362.22 301.651 361.834C300.87 361.452 300.676 366.085 300.052 365.97C299.429 365.855 299.7 362.598 298.923 362.256C298.146 361.914 297.636 365.473 296.741 365.282C295.847 365.091 296.353 362.256 294.907 362.216C293.466 362.176 293.778 366.085 292.491 365.97C291.204 365.855 291.127 362.371 290.463 362.331C289.799 362.292 289.451 365.819 288.552 365.855C287.654 365.895 286.682 362.984 286.136 362.482C285.589 361.985 284.889 365.839 284.225 366.284C283.561 366.734 282.432 363.858 281.574 363.131C280.716 362.403 280.481 366.272 279.586 366.332C278.688 366.388 277.91 362.021 277.91 362.021" stroke="black" stroke-width="2" stroke-miterlimit="10" stroke-linecap="round" stroke-linejoin="round"/>
<path d="M327.744 362.069C327.744 362.069 328.562 366.857 329.032 366.32C329.501 365.784 330.922 362.912 331.42 362.912C331.918 362.912 333.011 366.483 333.594 366.364C334.176 366.245 334.921 362.566 336.459 362.34C337.998 362.109 338.35 366.36 339.285 364.984C340.22 363.604 341.701 361.612 342.406 361.958C343.106 362.304 342.6 364.944 344.082 364.638C345.563 364.332 346.692 361.19 347.668 360.884C348.644 360.578 348.097 365.632 349.579 365.557C351.06 365.481 351.801 362.797 351.801 362.797" stroke="black" stroke-width="2" stroke-miterlimit="10" stroke-linecap="round" stroke-linejoin="round"/>
<path d="M330.509 356.783C330.509 356.783 332.577 352.226 333.237 351.725C333.901 351.228 334.249 356.934 335.148 356.362C336.047 355.789 337.216 352.278 337.957 351.697C338.698 351.116 338.657 356.632 339.362 356.135C340.062 355.638 340.337 352.194 341.078 351.657C341.819 351.12 342.406 355.944 342.406 355.944" stroke="black" stroke-width="2" stroke-miterlimit="10" stroke-linecap="round" stroke-linejoin="round"/>
<path d="M311.055 357.165C311.055 357.165 312.225 353.948 312.848 353.641C313.471 353.335 315.576 357.487 316.24 356.831C316.904 356.171 317.252 352.953 317.798 352.802C318.345 352.647 319.397 357.169 320.061 356.672C320.725 356.175 321.037 353.148 321.854 352.572C322.672 351.999 323.806 356.592 323.806 356.592" stroke="black" stroke-width="2" stroke-miterlimit="10" stroke-linecap="round" stroke-linejoin="round"/>
<path d="M282.473 352.301C282.473 352.301 283.485 357.05 284.424 356.823C285.359 356.592 286.411 352.914 286.723 352.301C287.035 351.689 288.087 356.628 289.257 356.211C290.427 355.793 290.504 352.075 290.896 351.422C291.285 350.77 293.159 356.02 293.859 355.483C294.56 354.946 295.223 351.999 295.458 351.367C295.693 350.734 298.069 356.135 298.968 355.829C299.866 355.523 300.449 351.92 300.838 351.92C301.226 351.92 301.19 354.294 302.125 356.095" stroke="black" stroke-width="2" stroke-miterlimit="10" stroke-linecap="round" stroke-linejoin="round"/>
<path d="M331.415 340.904C331.415 340.904 332.115 345.386 332.994 344.956C333.872 344.527 334.192 341.194 334.925 340.904C335.657 340.617 336.414 345.561 337.438 344.984C338.462 344.407 339.134 341.138 340.539 340.892C341.944 340.645 341.915 344.896 343.085 343.719C344.255 342.542 344.927 340.904 345.688 340.617C346.449 340.331 346.712 343.95 347.882 343.604C349.052 343.258 350.104 340.76 351.157 339.985C352.209 339.209 352.484 344.352 353.517 344.181C354.549 344.01 355.484 341.393 355.484 341.393" stroke="black" stroke-width="2" stroke-miterlimit="10" stroke-linecap="round" stroke-linejoin="round"/>
<path d="M334.577 335.73C334.577 335.73 336.593 331.363 336.917 330.786C337.236 330.214 338.321 335.268 338.993 335.097C339.665 334.926 340.952 331.53 341.568 330.743C342.183 329.955 342.709 335.642 343.498 334.751C344.288 333.86 344.814 330.5 345.077 330.242C345.34 329.983 346.101 334.552 346.101 334.552" stroke="black" stroke-width="2" stroke-miterlimit="10" stroke-linecap="round" stroke-linejoin="round"/>
<path d="M314.689 336.02C314.689 336.02 315.742 332.974 316.475 332.286C317.207 331.598 319.721 336.155 320.101 335.412C320.482 334.668 321.182 331.797 321.563 331.594C321.943 331.391 323.202 335.762 324.048 335.245C324.894 334.728 325.19 331.483 326.036 331.252C326.882 331.021 327.906 335.189 327.906 335.189" stroke="black" stroke-width="2" stroke-miterlimit="10" stroke-linecap="round" stroke-linejoin="round"/>
<path d="M281.38 340.876C281.38 340.876 282.784 345.859 283.282 345.135C283.78 344.412 284.804 341.97 285.185 341.564C285.565 341.163 287.35 345.557 287.994 344.925C288.638 344.292 289.544 341.163 290.01 340.872C290.479 340.586 291.795 345.183 292.584 344.694C293.374 344.205 293.434 341.851 294.135 341.334C294.835 340.817 296.3 345.672 297 344.463C297.701 343.258 297.583 341.015 298.725 341.159C299.866 341.302 300.129 344.893 300.89 344.062C301.651 343.23 301.943 340.3 302.615 340.86C303.287 341.421 303.113 345.239 303.874 344.495C304.635 343.751 305.513 340.789 305.776 340.443C306.039 340.097 307.209 345.127 307.853 344.292C308.496 343.457 309.986 339.862 310.192 340.427C310.399 340.992 310.864 344.093 311.945 343.692C313.026 343.29 313.496 340.331 313.961 341.079C314.431 341.827 314.576 345.39 315.337 344.356C316.098 343.322 316.625 341.854 317.062 341.54C317.499 341.226 318.086 344.328 318.64 343.839C319.195 343.35 320.045 340.709 320.482 341.111C320.919 341.513 321.243 344.097 322.061 343.871C322.879 343.64 324.283 340.626 324.283 340.626" stroke="black" stroke-width="2" stroke-miterlimit="10" stroke-linecap="round" stroke-linejoin="round"/>
<path d="M286.334 330.866C286.334 330.866 287.601 335.579 288.5 335.404C289.399 335.229 290.099 331.65 290.645 331.324C291.192 330.998 292.107 334.982 292.985 335.002C293.864 335.022 293.997 330.998 294.799 330.405C295.596 329.812 296.883 334.867 297.741 334.274C298.6 333.682 299.555 330.751 299.749 330.119C299.943 329.486 301.619 333.988 302.441 334.35C303.259 334.716 303.902 331.439 304.254 331.057C304.607 330.675 305.19 333.682 305.776 334.947" stroke="black" stroke-width="2" stroke-miterlimit="10" stroke-linecap="round" stroke-linejoin="round"/>
<path d="M244.005 432.611C244.005 432.611 245.382 435.569 245.701 435.339C246.021 435.108 247.572 432.265 247.835 432.034C248.098 431.803 249.268 436.142 250.085 435.796C250.903 435.45 252.279 432.666 252.599 432.519C252.919 432.372 253.68 436.83 254.85 436.313C256.019 435.796 255.582 433.47 256.691 433.47C257.801 433.47 258.242 437.578 259.059 436.544C259.877 435.51 260.99 432.348 260.99 432.348" stroke="black" stroke-width="2" stroke-miterlimit="10" stroke-linecap="round" stroke-linejoin="round"/>
<path d="M261.524 422.124C261.524 422.124 260.18 425.512 259.33 426.721C258.48 427.926 257.954 425.571 257.343 424.422C256.728 423.273 256.145 425.802 255.327 426.749C254.509 427.695 253.688 424.247 253.133 423.213C252.578 422.179 251.146 424.907 250.619 425.858C250.093 426.804 248.806 423.356 248.308 422.581C247.81 421.805 246.701 425.166 245.879 425.826C245.057 426.486 244.475 422.696 244.475 422.696" stroke="black" stroke-width="2" stroke-miterlimit="10" stroke-linecap="round" stroke-linejoin="round"/>
<path d="M252.457 412.444C252.457 412.444 253.744 417.327 254.271 417.327C254.797 417.327 255.732 414.941 256.173 413.478C256.61 412.014 258.221 416.783 259.274 416.926C260.326 417.069 260.533 412.615 260.824 412.444C261.116 412.273 262.727 415.375 262.727 415.375" stroke="black" stroke-width="2" stroke-miterlimit="10" stroke-linecap="round" stroke-linejoin="round"/>
<path d="M264.86 401.639C264.86 401.639 263.427 405.89 262.783 406.61C262.139 407.33 260.589 405.087 260.18 403.997C259.771 402.907 259.128 405.608 258.193 406.296C257.258 406.984 257.258 403.249 255.881 402.732C254.505 402.215 254.242 406.642 253.044 405.576C251.846 404.514 251.963 401.869 251.141 401.841C250.324 401.814 249.971 404.828 249.239 405.317C248.506 405.806 247.486 402.358 247.486 402.358" stroke="black" stroke-width="2" stroke-miterlimit="10" stroke-linecap="round" stroke-linejoin="round"/>
<path d="M255.53 392.332C255.53 392.332 256.962 397.216 257.634 396.902C258.306 396.588 259.274 393.541 259.537 392.937C259.8 392.332 261.407 397.478 262.52 396.918C263.633 396.357 263.37 392.336 263.897 392.161C264.423 391.99 265.593 394.921 265.593 394.921" stroke="black" stroke-width="2" stroke-miterlimit="10" stroke-linecap="round" stroke-linejoin="round"/>
<path d="M268.398 380.148C268.398 380.148 266.759 384.085 266.322 384.944C265.885 385.803 265.063 382.442 263.982 382.128C262.901 381.814 262.638 384.713 261.966 384.773C261.294 384.832 260.444 381.754 259.979 381.066C259.509 380.378 258.339 383.222 257.493 383.91C256.643 384.598 255.971 381.468 255.271 380.78C254.571 380.092 254.045 382.761 253.105 383.623C252.17 384.486 251.409 380.72 251.409 380.72" stroke="black" stroke-width="2" stroke-miterlimit="10" stroke-linecap="round" stroke-linejoin="round"/>
<path d="M259.128 370.667C259.128 370.667 260.618 375.351 261.335 375.351C262.051 375.351 263.512 371.732 263.541 370.925C263.569 370.122 265.411 375.837 266.406 374.89C267.402 373.944 267.107 370.782 267.605 370.265C268.103 369.748 269.244 373.283 269.244 373.283" stroke="black" stroke-width="2" stroke-miterlimit="10" stroke-linecap="round" stroke-linejoin="round"/>
<path d="M269.948 361.389C269.948 361.389 268.459 365.008 267.932 366.014C267.406 367.02 266.091 364.952 265.71 364.002C265.33 363.055 264.249 366.149 263.459 366.281C262.67 366.412 262.318 363.743 261.618 362.65C260.917 361.556 259.602 365.235 258.578 365.636C257.554 366.038 257.145 362.101 256.355 361.874C255.566 361.647 254.514 365.783 254.016 365.636C253.518 365.493 252.729 362.216 252.729 362.216" stroke="black" stroke-width="2" stroke-miterlimit="10" stroke-linecap="round" stroke-linejoin="round"/>
<path d="M260.707 352.079C260.707 352.079 261.877 356.649 262.577 356.732C263.277 356.816 264.771 352.938 264.945 352.481C265.119 352.02 266.932 356.502 267.576 356.561C268.22 356.617 269.183 352.338 269.3 351.821C269.418 351.304 270.705 354.78 270.705 354.78" stroke="black" stroke-width="2" stroke-miterlimit="10" stroke-linecap="round" stroke-linejoin="round"/>
<path d="M256.347 341.075C256.347 341.075 257.42 344.237 257.987 344.082C258.554 343.927 259.606 341.131 260.015 340.769C260.424 340.407 261.925 343.883 262.278 344.09C262.63 344.296 264.265 341.497 265.046 341.075C265.828 340.654 266.722 345.597 267.269 344.905C267.815 344.217 268.05 341.823 269.123 342.28C270.195 342.742 270.369 345.362 271.227 345.116C272.086 344.865 273.547 340.538 273.547 340.538" stroke="black" stroke-width="2" stroke-miterlimit="10" stroke-linecap="round" stroke-linejoin="round"/>
<path d="M221.871 432.583C221.871 432.583 222.224 437.494 223.304 437.494C224.385 437.494 225 433.76 225.527 433.068C226.053 432.38 226.871 437.407 227.733 437.204C228.595 437.001 229.032 433.498 229.619 432.893C230.202 432.289 230.995 436.572 231.87 436.282C232.748 435.995 233.246 432.861 233.246 432.861" stroke="black" stroke-width="2" stroke-miterlimit="10" stroke-linecap="round" stroke-linejoin="round"/>
<path d="M222.22 422.756C222.22 422.756 222.6 427.441 223.653 427.496C224.705 427.552 225.142 424.164 225.818 423.36C226.49 422.557 227.106 427.93 228.158 427.21C229.21 426.49 229.271 423.301 229.971 423.102C230.672 422.899 231.433 426.808 232.048 426.55C232.663 426.291 233.246 423.36 233.246 423.36" stroke="black" stroke-width="2" stroke-miterlimit="10" stroke-linecap="round" stroke-linejoin="round"/>
<path d="M223.304 412.786C223.304 412.786 224.267 417.844 225.028 417.554C225.789 417.268 226.635 413.331 227.279 412.468C227.923 411.605 229.327 417.494 230.027 416.977C230.728 416.46 231.606 413.012 232.161 411.919C232.715 410.825 233.739 417.407 234.266 417.033C234.792 416.659 235.642 412.249 236.516 411.796C237.395 411.342 238.739 416.858 239.937 416.918C241.135 416.973 242.102 412.953 242.365 412.491C242.629 412.03 242.746 415.82 244.236 417.558" stroke="black" stroke-width="2" stroke-miterlimit="10" stroke-linecap="round" stroke-linejoin="round"/>
<path d="M225.321 402.561C225.321 402.561 226.256 407.158 226.899 407.329C227.543 407.5 228.506 404.052 228.887 403.309C229.267 402.561 230.202 407.361 231.226 407.043C232.251 406.725 232.133 403.738 232.866 403.05C233.598 402.362 234.125 406.701 235.262 406.383C236.404 406.069 236.521 402.847 236.521 402.847" stroke="black" stroke-width="2" stroke-miterlimit="10" stroke-linecap="round" stroke-linejoin="round"/>
<path d="M226.434 392.449C226.434 392.449 226.932 397.189 227.895 397.101C228.859 397.014 230.206 392.532 230.47 392.158C230.733 391.784 232.34 397.272 233.279 396.696C234.214 396.123 234.829 392.301 235.384 391.84C235.938 391.379 236.728 396.899 237.343 396.294C237.958 395.69 238.719 392.357 239.33 391.582C239.946 390.806 241.905 396.179 242.897 396.437C243.892 396.696 245.208 392.934 245.499 392.242C245.791 391.554 246.082 395.376 247.313 397.098" stroke="black" stroke-width="2" stroke-miterlimit="10" stroke-linecap="round" stroke-linejoin="round"/>
<path d="M229.134 380.704C229.134 380.704 229.931 385.512 230.672 385.663C231.413 385.818 232.097 382.331 232.639 381.659C233.185 380.986 234.315 385.795 234.938 385.242C235.562 384.685 236.399 381.718 236.808 381.221C237.217 380.724 238.387 384.935 239.128 384.419C239.869 383.902 240.395 381.181 240.395 381.181" stroke="black" stroke-width="2" stroke-miterlimit="10" stroke-linecap="round" stroke-linejoin="round"/>
<path d="M230.223 370.591C230.223 370.591 231.004 375.61 231.648 375.304C232.291 374.998 233.558 371.51 234.319 370.591C235.08 369.673 235.461 373.176 236.129 374.365C236.797 375.554 237.695 374.481 238.298 372.794C238.902 371.108 239.31 369.482 239.606 369.712C239.897 369.943 240.173 374.922 240.893 374.691C241.614 374.461 242.86 370.19 243.253 369.883C243.642 369.577 245.633 374.787 246.702 374.672C247.775 374.556 248.633 371.8 249.062 370.897C249.491 369.995 249.726 373.216 251.013 375.57" stroke="black" stroke-width="2" stroke-miterlimit="10" stroke-linecap="round" stroke-linejoin="round"/>
<path d="M230.583 362.363C230.583 362.363 231.401 367.478 232.044 367.275C232.688 367.072 233.623 363.425 234.149 362.996C234.675 362.566 235.789 367.048 236.432 366.416C237.076 365.783 237.545 362.538 238.274 362.538C239.007 362.538 239.942 366.877 240.585 365.986C241.229 365.095 241.666 362.741 241.666 362.741" stroke="black" stroke-width="2" stroke-miterlimit="10" stroke-linecap="round" stroke-linejoin="round"/>
<path d="M231.578 352.079C231.578 352.079 232.222 356.791 232.922 356.791C233.622 356.791 235.233 352.711 235.671 352.079C236.108 351.446 237.512 356.676 238.245 356.533C238.978 356.39 240.233 351.59 240.73 351.16C241.228 350.731 241.694 357.738 242.515 356.791C243.333 355.845 244.066 350.989 244.827 351.017C245.588 351.045 247.43 356.764 248.308 356.302C249.186 355.841 250.121 352.97 250.559 352.309C250.996 351.649 251.409 355.388 252.546 356.879" stroke="black" stroke-width="2" stroke-miterlimit="10" stroke-linecap="round" stroke-linejoin="round"/>
<path d="M234.355 341.074C234.355 341.074 234.792 345.7 235.642 345.759C236.493 345.815 237.63 341.739 238.128 341.623C238.626 341.508 239.298 345.934 240.144 345.445C240.99 344.956 241.52 341.452 242.075 341.337C242.629 341.222 243.216 345.071 244.123 344.757C245.029 344.443 245.556 341.369 245.556 341.369" stroke="black" stroke-width="2" stroke-miterlimit="10" stroke-linecap="round" stroke-linejoin="round"/>
<path d="M264.674 330.675C264.674 330.675 265.649 335.559 266.37 335.424C267.09 335.289 268.143 331.017 268.592 330.922C269.041 330.827 270.426 335.444 271.401 335.213C272.377 334.982 272.494 330.254 272.903 330.31C273.312 330.365 274.599 333.567 274.599 333.567" stroke="black" stroke-width="2" stroke-miterlimit="10" stroke-linecap="round" stroke-linejoin="round"/>
<path d="M235.197 330.826C235.197 330.826 236.541 335.845 237.067 335.575C237.594 335.308 238.763 330.651 239.484 330.5C240.204 330.349 241.629 335.75 242.192 335.479C242.755 335.209 243.888 329.848 244.609 329.753C245.329 329.657 245.738 335.996 246.402 335.213C247.066 334.429 247.98 330.52 248.584 329.983C249.187 329.446 250.3 334.696 251.664 334.982C253.028 335.268 254.489 330.751 254.489 330.751C254.489 330.751 255.113 334.545 256.441 335.921" stroke="black" stroke-width="2" stroke-miterlimit="10" stroke-linecap="round" stroke-linejoin="round"/>
<path d="M377.65 323.262H403.738L377.379 449.178H353.516L377.65 323.262Z" fill="#90A8ED" stroke="black" stroke-width="2" stroke-miterlimit="10" stroke-linecap="round" stroke-linejoin="round"/>
<path d="M400.747 337.544L391.38 382.3C391.38 382.3 380.265 378.617 377.767 372.871C375.274 367.124 381.588 364.209 383.07 363.29C384.552 362.372 389.231 359.997 387.596 354.943C385.956 349.884 383.463 344.981 387.677 340.845C391.886 336.709 398.772 335.015 400.747 337.544Z" fill="#23A094" stroke="black" stroke-width="2" stroke-miterlimit="10" stroke-linecap="round" stroke-linejoin="round"/>
<path d="M369.19 424.816L377.302 432.173L364.587 449.182H353.516L363.996 394.489L377.302 413.247L369.19 424.816Z" fill="#23A094" stroke="black" stroke-width="2" stroke-miterlimit="10" stroke-linecap="round" stroke-linejoin="round"/>
<path d="M376.562 312.382H400.541L407.479 282.273H382.605L376.562 312.382Z" fill="#90A8ED" stroke="black" stroke-width="2" stroke-miterlimit="10" stroke-linecap="round" stroke-linejoin="round"/>
<path d="M377.885 306.139C377.885 306.139 382.095 301.12 387.985 299.819C393.874 298.515 396.445 301.621 396.445 301.621C396.445 301.621 400.849 304.456 401.084 307.407C401.318 310.358 400.225 312.386 400.225 312.386L376.655 311.909L377.885 306.139Z" fill="black"/>
<path d="M388.766 300.507C388.766 300.507 389.547 307.057 386.972 312.036H393.287C393.287 312.036 394.777 304.527 393 299.739C391.223 294.951 388.766 300.507 388.766 300.507Z" fill="white"/>
<path d="M400.695 271.317C411.613 271.317 420.465 262.621 420.465 251.894C420.465 241.167 411.613 232.471 400.695 232.471C389.776 232.471 380.925 241.167 380.925 251.894C380.925 262.621 389.776 271.317 400.695 271.317Z" fill="#90A8ED" stroke="black" stroke-width="2" stroke-miterlimit="10" stroke-linecap="round" stroke-linejoin="round"/>
<path d="M420.465 251.894C420.465 258.122 417.482 263.665 412.839 267.221C411.118 262.838 407.658 263.387 406.488 262.007C405.318 260.627 406.836 258.905 408.127 256.837C409.41 254.769 411.637 252.009 410.702 248.792C409.766 245.575 404.091 246.434 405.431 242.417C406.755 238.464 413.527 237.378 413.774 237.339C413.778 237.339 413.778 237.339 413.778 237.339C417.878 240.894 420.465 246.1 420.465 251.894Z" fill="#23A094"/>
<path d="M397.942 244.827C397.473 246.608 394.902 248.275 393.384 249.885C391.858 251.496 390.866 251.615 390.109 252.534C389.348 253.453 389.972 256.67 391.441 257.7C392.915 258.738 394.198 258.738 394.259 261.438C394.319 264.138 393.651 267.547 387.446 266.31L387.442 266.306C383.439 262.751 380.925 257.612 380.925 251.898C380.925 247.543 382.386 243.522 384.851 240.281C384.851 240.281 389.522 241.554 392.214 241.439C394.898 241.323 395.959 240.977 396.481 240.866C397.007 240.747 398.412 243.045 397.942 244.827Z" fill="#23A094"/>
<path d="M356.245 323.263H236.812L257.634 181.794H377.885L356.245 323.263Z" fill="white" stroke="black" stroke-width="2" stroke-miterlimit="10" stroke-linecap="round" stroke-linejoin="round"/>
<path d="M269.423 199.375L253.073 300.471H344.313" stroke="black" stroke-width="2" stroke-miterlimit="10" stroke-linecap="round" stroke-linejoin="round"/>
<path d="M258.764 297.958C260.336 297.958 261.61 296.706 261.61 295.162C261.61 293.618 260.336 292.367 258.764 292.367C257.192 292.367 255.918 293.618 255.918 295.162C255.918 296.706 257.192 297.958 258.764 297.958Z" fill="#E1452F"/>
<path d="M363.341 203.169C363.341 203.169 360.067 202.346 359.48 202.059C358.897 201.773 358.484 200.624 359.654 199.952C360.824 199.28 364.782 196.925 365.212 196.77C365.641 196.615 366.984 196.253 367.142 197.804C367.3 199.355 367.495 202.668 367.474 203.28C367.454 203.893 366.928 204.792 365.855 204.334C364.782 203.877 363.341 203.169 363.341 203.169Z" fill="#E1452F"/>
<path d="M364.373 201.388L354.84 222.417L347.473 214.603L339.167 232.59L329.165 225.348L319.867 242.588L311.387 235.116L295.709 268.271L286.763 259.191L274.012 288.557L265.998 280.627L259.213 294.303" stroke="#E1452F" stroke-width="5" stroke-miterlimit="10" stroke-linecap="round" stroke-linejoin="round"/>
<path d="M384.852 240.277C384.852 240.277 389.523 241.55 392.215 241.435C394.907 241.319 395.959 240.973 396.485 240.858C397.011 240.743 398.416 243.041 397.947 244.823C397.477 246.605 394.907 248.271 393.385 249.881C391.863 251.492 390.871 251.603 390.11 252.526C389.349 253.449 389.976 256.662 391.446 257.696C392.915 258.73 394.202 258.73 394.263 261.43C394.32 264.131 393.652 267.543 387.438 266.298" stroke="black" stroke-width="2" stroke-miterlimit="10" stroke-linecap="round" stroke-linejoin="round"/>
<path d="M413.778 237.335C413.778 237.335 406.779 238.393 405.431 242.413C404.083 246.434 409.758 245.575 410.694 248.792C411.629 252.009 409.406 254.769 408.119 256.837C406.832 258.905 405.31 260.631 406.48 262.007C407.649 263.387 411.106 262.838 412.831 267.221" stroke="black" stroke-width="2" stroke-miterlimit="10" stroke-linecap="round" stroke-linejoin="round"/>
<path d="M396.659 301.254C396.659 301.254 393.716 302.654 390.636 301.254C387.555 299.854 387.009 297.902 387.478 295.066C387.948 292.231 389.231 288.783 391.652 287.713C394.073 286.643 397.384 288.059 398.396 291.085C399.408 294.112 397.303 301.016 396.659 301.254Z" fill="#23A094" stroke="black" stroke-width="2" stroke-miterlimit="10" stroke-linecap="round" stroke-linejoin="round"/>
<path d="M376.562 312.382H400.541L407.479 282.273H382.605L376.562 312.382Z" stroke="black" stroke-width="2" stroke-miterlimit="10" stroke-linecap="round" stroke-linejoin="round"/>
<path d="M444.797 505.184C442.838 505.84 412.171 514.057 373.55 524.345L414.851 484.385C414.851 484.385 395.433 450.136 393.211 443.471C390.988 436.806 390.288 427.039 400.112 425.659C409.936 424.279 423.509 435.541 434.151 452.55C444.797 469.559 449.359 490.358 449.942 494.037C450.529 497.716 450.294 503.347 444.797 505.184Z" fill="#FF90E8"/>
<path d="M129.131 638L208.623 568.162C208.623 568.162 439.3 507.022 444.797 505.184C450.294 503.347 450.529 497.716 449.946 494.037C449.363 490.358 444.797 469.559 434.155 452.55C423.509 435.541 409.941 424.279 400.117 425.659C390.292 427.039 390.993 436.806 393.215 443.471C395.437 450.136 414.855 484.385 414.855 484.385" stroke="black" stroke-width="2" stroke-miterlimit="10" stroke-linecap="round" stroke-linejoin="round"/>
<path d="M559.761 1.33789H453.977C447.691 1.33789 442.591 6.43242 442.591 12.7207V63.3908C442.591 69.675 447.687 74.7736 453.977 74.7736H470.363L436.507 104.944L481.543 74.7736H559.761C566.047 74.7736 571.147 69.679 571.147 63.3908V12.7207C571.147 6.43242 566.051 1.33789 559.761 1.33789Z" fill="white" stroke="black" stroke-width="2" stroke-miterlimit="10" stroke-linecap="round" stroke-linejoin="round"/>
<path d="M489.153 45.0311C488.987 45.7594 488.841 46.4918 488.651 47.2162C488.493 47.811 488.068 48.159 487.457 48.0093C486.769 47.8393 486.024 47.7665 485.736 46.8479C485.328 45.5409 485.955 44.3432 485.947 43.0887C485.935 41.3204 485.951 39.5481 485.935 37.7798C485.919 35.9184 485.866 34.061 485.858 32.1996C485.854 31.4632 486.226 30.9129 486.971 30.7955C488.339 30.577 489.715 30.403 491.096 30.2735C492.274 30.1643 493.468 30.0348 494.638 30.1197C496.107 30.225 497.625 30.3544 499.009 30.8157C500.673 31.3661 501.361 32.9078 501.276 34.6801C501.195 36.3554 500.394 37.5774 499.009 38.3544C497.593 39.1475 496.075 39.7585 494.605 40.4626C494.354 40.584 494.144 40.7741 493.913 40.936C494.091 41.1909 494.229 41.4985 494.456 41.6968C495.698 42.7772 496.941 43.8576 498.224 44.8894C498.811 45.3629 499.515 45.6947 500.102 46.1681C500.434 46.4311 500.665 46.8358 500.896 47.2081C501.191 47.6896 501.321 48.1833 500.827 48.6486C500.317 49.1302 499.746 49.4458 499.066 49.0654C497.856 48.3896 496.605 47.7624 495.492 46.945C493.569 45.5328 491.739 43.9871 489.861 42.5101C489.72 42.3968 489.497 42.3199 489.327 42.3401C489.242 42.3523 489.145 42.6194 489.129 42.7812C489.064 43.5177 489.027 44.2582 488.979 44.9987C489.035 45.0068 489.092 45.0189 489.153 45.0311ZM491.897 34.1258C491.897 34.0974 491.893 34.0732 491.893 34.0448C491.658 34.0448 491.42 34.0367 491.185 34.0448C489.129 34.1379 489.096 34.1703 489.108 36.2299C489.12 38.2127 489.12 38.2127 491.1 37.8121C491.128 37.8081 491.161 37.8081 491.189 37.8C492.8 37.2537 494.443 36.7722 496.01 36.1207C496.654 35.8536 497.168 35.2305 497.67 34.7044C497.787 34.583 497.674 33.9761 497.572 33.9518C496.961 33.794 496.318 33.6361 495.698 33.6766C494.427 33.7575 493.164 33.968 491.897 34.1258Z" fill="black"/>
<path d="M525.41 41.507C525.726 41.2682 525.985 41.1671 526.074 40.985C526.608 39.86 527.653 39.071 527.924 37.7194C528.146 36.6107 528.79 35.5424 529.409 34.5632C530.191 33.333 531.571 33.4949 532.178 34.8303C532.814 36.2303 533.388 37.6587 534.02 39.0629C534.344 39.7832 534.724 40.4791 535.169 41.3613C536.048 40.2849 536.202 39.1398 536.485 38.0553C536.732 37.1125 536.922 36.1575 537.137 35.2066C537.327 34.3568 537.546 33.5111 537.707 32.6532C537.845 31.9208 538.562 30.982 539.088 30.9335C540.067 30.8404 540.82 31.3017 541.27 32.1029C541.699 32.8637 541.707 33.4625 541.168 34.2111C540.772 34.7615 540.646 35.5182 540.448 36.198C539.513 39.4352 538.582 42.6764 537.675 45.9217C537.303 47.253 535.995 47.775 534.842 47.0506C533.591 46.2656 533.089 44.9181 532.344 43.7649C531.692 42.7573 531.194 41.6526 530.514 40.378C530.033 41.2237 529.668 41.9116 529.264 42.5712C528.527 43.7811 527.79 44.9991 527.005 46.1807C526.483 46.9616 524.936 46.7553 524.103 46.0795C522.585 44.8494 522.172 43.2469 521.933 41.4179C521.662 39.3502 521.055 37.331 520.698 35.2713C520.561 34.4782 520.597 33.6042 520.795 32.8232C520.897 32.4185 521.48 32.0099 521.929 31.8682C522.228 31.7752 522.844 32.0503 523.026 32.3417C523.406 32.9486 523.69 33.6568 523.839 34.3568C524.248 36.2951 524.552 38.2576 524.928 40.204C524.993 40.6005 525.204 40.9688 525.41 41.507Z" fill="black"/>
<path d="M482.814 39.0668C482.887 42.2959 481.806 45.0353 479.305 47.1517C479.171 47.265 479.021 47.4187 478.863 47.443C476.714 47.7951 474.605 48.9766 472.427 48.3575C471.043 47.965 469.723 47.0384 468.61 46.0753C467.533 45.1406 466.825 43.8174 466.542 42.3525C466.331 41.2721 465.898 40.1593 466.011 39.1072C466.246 36.9424 466.687 34.7573 468.371 33.1427C469.351 32.2039 470.347 31.2571 471.448 30.468C472.719 29.5535 474.253 29.3835 475.775 29.5778C476.702 29.6951 477.224 30.4154 477.184 31.2085C477.155 31.7588 476.313 32.3537 475.491 32.4184C473.779 32.5519 472.431 33.426 471.298 34.6278C469.796 36.2221 469.327 38.2089 469.327 40.3374C469.327 41.5958 470.784 43.4451 471.873 44.0966C472.957 44.744 474.079 44.7359 475.208 44.7116C475.876 44.6954 476.625 44.4607 477.184 44.0885C478.742 43.0607 479.661 41.5877 479.851 39.6859C479.916 39.0344 479.669 38.8361 479.102 39.0061C478.062 39.3217 477.034 39.6171 476.143 40.3536C475.564 40.8351 474.726 41.0455 473.974 41.2519C473.674 41.3328 473.059 41.1467 472.974 40.9322C472.743 40.3333 472.634 39.6535 472.642 39.0101C472.646 38.739 473.014 38.3829 473.302 38.2251C474.564 37.5291 475.844 36.8695 477.143 36.2464C477.823 35.9186 478.552 35.6839 479.268 35.4371C481.652 34.6116 482.887 36.036 482.867 38.2777C482.867 38.5367 482.834 38.8038 482.814 39.0668Z" fill="black"/>
<path d="M510.384 46.6544C509.421 46.5653 508.384 46.6786 507.514 46.3468C504.83 45.3312 503.563 43.3605 503.701 40.4106C503.721 39.9453 503.644 39.4719 503.673 39.0065C503.867 36.1052 505.029 33.7178 507.781 32.5321C509.291 31.8847 510.971 31.2292 512.679 31.8523C513.841 32.2772 515.108 32.6009 515.917 33.6854C516.059 33.8715 516.197 34.1305 516.391 34.1952C517.549 34.5999 517.78 35.6924 518.051 36.6231C518.33 37.5862 518.196 38.5978 517.966 39.6459C517.589 41.3535 516.836 42.7738 515.76 44.0768C514.46 45.6589 512.303 46.6463 510.384 46.6544ZM506.866 39.4435C506.866 39.7753 506.822 40.0788 506.875 40.3621C506.972 40.8679 507 41.4546 507.279 41.8471C508.048 42.9154 509.748 43.312 510.943 42.7617C513.031 41.8067 514.549 40.3014 515.213 38.0515C515.314 37.7076 515.343 37.2503 515.197 36.9388C514.578 35.6237 512.436 34.7132 511.02 35.0936C510.878 35.13 510.724 35.1178 510.582 35.1502C508.162 35.6803 506.583 36.5786 506.866 39.4435Z" fill="black"/>
<path d="M549.276 31.346C549.102 34.0289 548.969 36.7117 548.738 39.3864C548.612 40.8432 547.795 41.4946 546.524 41.3571C545.568 41.2559 544.864 40.2686 544.969 39.0061C545.111 37.2701 545.354 35.5423 545.508 33.8104C545.573 33.0496 545.463 32.2727 545.536 31.512C545.589 30.9414 545.714 30.3344 545.977 29.8327C546.358 29.1083 547.564 28.6066 548.212 29.0517C548.697 29.3835 548.867 30.1928 549.143 30.8079C549.207 30.9495 549.127 31.1559 549.114 31.3339C549.167 31.338 549.22 31.342 549.276 31.346Z" fill="black"/>
<path d="M546.572 48.0542C545.653 48.0056 544.577 46.9374 544.585 46.0876C544.593 45.0881 545.682 44.1655 546.775 44.2262C547.649 44.2748 548.447 45.3188 548.398 46.3425C548.349 47.257 547.447 48.1028 546.572 48.0542Z" fill="black"/>
</svg>
