<svg width="664" height="702" viewBox="0 0 664 702" fill="none" xmlns="http://www.w3.org/2000/svg">
<path d="M623.434 96.595H0.97876V701.237H623.434V96.595Z" fill="#E2442F"/>
<path d="M570.565 401.443C570.565 403.537 570.539 405.623 570.483 407.705C568.755 476.479 538.594 538.2 491.312 581.552C486.629 585.854 481.777 589.966 476.766 593.891C476.299 594.254 475.837 594.617 475.366 594.975C472.709 597.031 470.004 599.031 467.261 600.97C450.576 612.786 432.344 622.569 412.928 629.941C411.468 630.494 410.003 631.034 408.53 631.565C404.106 633.141 399.63 634.605 395.094 635.936C373.22 642.353 350.071 645.8 326.119 645.8C298.175 645.8 271.32 641.11 246.309 632.472C244.737 631.932 243.168 631.375 241.604 630.8C240.032 630.217 238.463 629.621 236.899 629.008C205.382 616.652 177.054 597.938 153.499 574.448C150.268 571.226 147.122 567.913 144.085 564.519C130.269 549.118 118.379 531.959 108.805 513.409V513.405C103.383 502.927 98.7129 492.005 94.8418 480.72C93.6667 477.299 92.5693 473.84 91.5454 470.354C86.59 453.476 83.4059 435.838 82.2178 417.66C82.1443 416.524 82.0795 415.388 82.019 414.248C81.8678 411.363 81.7684 408.461 81.7252 405.545C81.6993 404.202 81.6907 402.859 81.6907 401.512V401.447C81.6907 390.434 82.4208 379.589 83.8379 368.96C84.0798 367.121 84.3434 365.289 84.6285 363.467C84.8834 361.839 85.1513 360.215 85.4451 358.595C85.6395 357.468 85.8469 356.341 86.0586 355.222C87.696 346.666 89.7827 338.27 92.2885 330.056C122.838 229.927 215.976 157.09 326.132 157.09C410.029 157.09 484.058 199.345 528.074 263.731C554.886 302.942 570.565 350.359 570.565 401.443Z" fill="#90A8ED" stroke="black" stroke-width="2" stroke-miterlimit="10" stroke-linecap="round" stroke-linejoin="round"/>
<path d="M570.487 407.705C568.759 476.478 538.599 538.199 491.317 581.552C486.633 585.854 481.782 589.965 476.77 593.891C476.303 594.254 475.841 594.617 475.37 594.975C472.713 597.031 470.009 599.03 467.265 600.97C450.58 612.786 432.348 622.568 412.932 629.941C411.472 630.493 410.008 631.033 408.534 631.565C404.11 633.141 399.634 634.605 395.098 635.935C373.224 642.353 350.076 645.799 326.124 645.799C298.179 645.799 271.324 641.109 246.314 632.471C244.741 631.932 243.173 631.374 241.609 630.8C240.036 630.217 238.468 629.621 236.904 629.008C205.387 616.651 177.058 597.938 153.504 574.447C150.272 571.226 147.127 567.913 144.09 564.518C130.273 549.117 118.384 531.958 108.81 513.409V513.405C103.388 502.927 98.7173 492.005 94.8462 480.719C93.6711 477.299 92.5737 473.839 91.5498 470.354C86.5944 453.476 83.4103 435.838 82.2222 417.66C82.1487 416.524 82.0839 415.388 82.0234 414.248C81.8722 411.363 81.7728 408.46 81.7296 405.545C81.7037 404.202 81.6951 402.859 81.6951 401.511V401.447C81.6951 390.433 82.4252 379.589 83.8423 368.96C84.0842 367.12 84.3478 365.289 84.6329 363.466C84.8878 361.838 85.1557 360.214 85.4495 358.595C85.6439 357.468 85.8513 356.34 86.0629 355.222C87.7004 346.666 89.7871 338.27 92.2929 330.056C92.2929 330.056 173.537 249.828 180.657 242.46C187.777 235.092 196.647 232.972 204.514 233.468C212.386 233.969 217.38 237.463 219.506 239.463C221.631 241.463 320.689 351.849 320.689 351.849L331.68 349.465C331.68 349.465 416.246 290.162 425.366 285.04C434.487 279.922 448.727 277.171 467.961 292.032C487.199 306.894 545.032 352.596 545.032 352.596L570.487 407.705Z" fill="#23A094" stroke="black" stroke-width="2" stroke-miterlimit="10" stroke-linecap="round" stroke-linejoin="round"/>
<path d="M448.259 365.294H438.016V474.85H448.259V365.294Z" fill="black"/>
<path d="M202.76 474.846H191.017V555.558H202.76V474.846Z" fill="black"/>
<path d="M217.664 365.294H206.673V474.85H217.664V365.294Z" fill="black"/>
<path d="M112.568 365.294H101.577V474.85H112.568V365.294Z" fill="black"/>
<path d="M461.834 405.546V417.66H82.2171C82.1437 416.524 82.0789 415.389 82.0184 414.248C81.8672 411.363 81.7678 408.461 81.7246 405.546H461.834Z" fill="black"/>
<path d="M461.834 358.591V368.957H83.8374C84.0793 367.117 84.3429 365.286 84.628 363.463C84.8829 361.835 85.1508 360.211 85.4446 358.591H461.834Z" fill="black"/>
<path d="M124.561 316.012C124.561 316.012 189.453 253.263 194.637 248.767C199.822 244.271 207.879 243.459 213.5 249.579C219.121 255.699 272.71 318.007 272.71 318.007L214.066 265.498L241.111 338.237L200.388 264.561L183.275 334.306L183.711 274.304L124.561 316.012Z" fill="white" stroke="black" stroke-width="2" stroke-miterlimit="10" stroke-linecap="round" stroke-linejoin="round"/>
<path d="M386.802 321.92C386.802 321.92 395.628 314.012 399.461 311.015C403.293 308.017 424.026 294.115 428.856 291.035C433.686 287.956 441.014 286.958 445.179 289.204C449.343 291.45 497.144 323.168 497.144 323.168L453.007 301.44L461.25 336.319L439.847 295.277L431.518 348.472L429.686 301.686C429.686 301.686 405.202 327.245 405.202 326.994C405.202 326.744 412.279 309.594 412.279 309.594L386.802 321.92Z" fill="white" stroke="black" stroke-width="2" stroke-miterlimit="10" stroke-linecap="round" stroke-linejoin="round"/>
<path d="M570.564 401.442C570.564 472.73 540.024 536.891 491.311 581.552C486.628 585.854 481.777 589.965 476.765 593.891C476.298 594.254 475.836 594.617 475.365 594.975C472.708 597.031 470.004 599.031 467.26 600.97C450.575 612.786 432.343 622.569 412.927 629.941C411.467 630.494 410.002 631.034 408.529 631.565C404.105 633.141 399.629 634.605 395.093 635.935C373.219 642.353 350.07 645.8 326.118 645.8C298.174 645.8 271.319 641.109 246.308 632.472C244.736 631.932 243.168 631.375 241.604 630.8C240.031 630.217 238.463 629.621 236.899 629.008C205.382 616.652 177.053 597.938 153.499 574.448C150.267 571.226 147.122 567.913 144.084 564.519C130.268 549.118 118.378 531.959 108.804 513.409V513.405C109.146 510.282 110.243 504.914 113.816 504.154C118.897 503.07 123.645 510.813 123.645 510.813C123.645 510.813 125.144 505.817 129.806 505.069C134.467 504.322 138.637 511.811 138.637 511.811C138.637 511.811 140.637 509.479 146.629 511.725C146.629 511.725 155.287 508.149 163.198 518.803C163.198 518.803 166.447 512.144 173.277 512.645C180.108 513.146 181.685 521.965 181.685 521.965C181.685 521.965 187.102 514.143 194.926 518.138C202.755 522.133 202.841 527.709 202.841 527.709C202.841 527.709 205.338 520.216 212 520.885C218.662 521.55 221.993 534.373 221.993 534.373C221.993 534.373 227.074 523.55 236.398 528.21C245.725 532.874 440.47 569.503 453.461 568.755C466.452 568.008 469.325 562.428 469.325 562.428C469.325 562.428 472.825 561.599 475.905 559.768C478.981 557.937 481.068 556.27 481.068 556.27C481.068 556.27 472.263 559.016 467.826 558.269C463.389 557.522 464.577 555.332 468.388 553.583C472.198 551.834 481.007 544.341 483.068 541.974C483.068 541.974 474.073 545.222 470.518 544.341C466.953 543.473 469.887 540.786 472.574 538.847C475.261 536.912 483.258 528.987 485.44 526.491C485.44 526.491 476.32 528.547 474.013 526.927C471.701 525.303 473.43 523.865 475.408 522.867C477.383 521.87 488.564 513.815 491.251 508.131C491.251 508.131 485.315 511.258 480.627 510.818C475.944 510.377 478.757 507.821 479.569 506.762C480.377 505.7 490.188 494.212 492.936 484.222C492.936 484.222 486.814 487.535 484.127 487.034C481.444 486.533 482.818 483.972 484.442 482.408C486.067 480.849 497.183 468.553 500.557 461.622C503.931 454.69 504.614 450.008 504.614 450.008C504.614 450.008 495.312 455.126 491.687 455.186C488.067 455.251 489.812 452.44 491.061 451.321C492.31 450.194 500.116 441.202 504.614 433.337C509.111 425.464 511.176 419.223 511.176 419.223C511.176 419.223 502.998 422.16 496.686 422.1C490.374 422.035 492.504 418.912 493.187 418.105C493.869 417.288 505.551 402.306 511.358 392.749C517.169 383.2 519.852 376.829 519.852 376.829C519.852 376.829 505.111 383.2 503.551 381.511C501.991 379.826 503.361 377.956 506.238 375.395C509.107 372.834 516.542 364.343 519.847 357.973C523.161 351.603 523.783 346.675 523.783 346.675C523.783 346.675 511.98 351.356 506.67 349.858C501.361 348.359 505.988 345.677 507.353 344.489C508.731 343.302 525.779 328.255 529.339 316.326C529.339 316.326 522.284 319.012 517.165 318.822C512.045 318.637 513.419 315.639 515.039 313.644C516.663 311.644 525.157 300.342 525.408 297.41C525.658 294.477 525.343 288.418 524.842 280.989C524.492 275.75 526.717 267.907 528.06 263.731C554.886 302.942 570.564 350.359 570.564 401.442Z" fill="black"/>
<path d="M408.534 475.537V631.56C404.11 633.137 399.634 634.601 395.097 635.931C373.223 642.349 350.075 645.795 326.123 645.795C298.179 645.795 271.324 641.105 246.313 632.467C244.74 631.928 243.172 631.37 241.608 630.796V475.533H408.534V475.537Z" fill="#FFC900" stroke="black" stroke-width="2" stroke-miterlimit="10" stroke-linecap="round" stroke-linejoin="round"/>
<path d="M242.235 401.507V414.243H82.019C81.7987 410.028 81.6907 405.778 81.6907 401.507H242.235Z" fill="#FFC900" stroke="black" stroke-width="2" stroke-miterlimit="10" stroke-linecap="round" stroke-linejoin="round"/>
<path d="M460.918 401.507H422.609V414.243H460.918V401.507Z" fill="#FFC900" stroke="black" stroke-width="2" stroke-miterlimit="10" stroke-linecap="round" stroke-linejoin="round"/>
<path d="M153.504 359.342V574.448C150.272 571.226 147.127 567.913 144.09 564.519V359.342H153.504Z" fill="#FFC900" stroke="black" stroke-width="2" stroke-miterlimit="10" stroke-linecap="round" stroke-linejoin="round"/>
<path d="M424.572 359.342H416.492V472.79H424.572V359.342Z" fill="#FFC900" stroke="black" stroke-width="2" stroke-miterlimit="10" stroke-linecap="round" stroke-linejoin="round"/>
<path d="M465.666 359.342H457.587V472.79H465.666V359.342Z" fill="#FFC900" stroke="black" stroke-width="2" stroke-miterlimit="10" stroke-linecap="round" stroke-linejoin="round"/>
<path d="M246.317 359.342V632.472C243.151 631.383 240.01 630.226 236.903 629.004V359.342H246.317Z" fill="#FFC900" stroke="black" stroke-width="2" stroke-miterlimit="10" stroke-linecap="round" stroke-linejoin="round"/>
<path d="M451.465 480.344H444.095V535.91H451.465V480.344Z" fill="#FFC900" stroke="black" stroke-width="2" stroke-miterlimit="10" stroke-linecap="round" stroke-linejoin="round"/>
<path d="M467.265 600.97C450.58 612.787 432.348 622.569 412.933 629.941H395.379V600.97H467.265Z" fill="#FFC900" stroke="black" stroke-width="2" stroke-miterlimit="10" stroke-linecap="round" stroke-linejoin="round"/>
<path d="M491.316 570.06V582.075C486.633 586.571 481.781 590.868 476.77 594.976H361.066V570.06H491.316V570.06Z" fill="#FFC900" stroke="black" stroke-width="2" stroke-miterlimit="10" stroke-linecap="round" stroke-linejoin="round"/>
<path d="M459.005 542.281H329.757V563.137H459.005V542.281Z" fill="#FFC900" stroke="black" stroke-width="2" stroke-miterlimit="10" stroke-linecap="round" stroke-linejoin="round"/>
<path d="M430.857 514.182H309.105V534.33H430.857V514.182Z" fill="#FFC900" stroke="black" stroke-width="2" stroke-miterlimit="10" stroke-linecap="round" stroke-linejoin="round"/>
<path d="M390.017 594.975H354.352V600.97H390.017V594.975Z" fill="#FFC900" stroke="black" stroke-width="2" stroke-miterlimit="10" stroke-linecap="round" stroke-linejoin="round"/>
<path d="M416.618 480.716H290.952V505.938H416.618V480.716Z" fill="#FFC900" stroke="black" stroke-width="2" stroke-miterlimit="10" stroke-linecap="round" stroke-linejoin="round"/>
<path d="M412.932 629.941C407.091 632.161 401.146 634.16 395.098 635.935H376.019V629.941H412.932Z" fill="#FFC900" stroke="black" stroke-width="2" stroke-miterlimit="10" stroke-linecap="round" stroke-linejoin="round"/>
<path d="M475.37 594.975C472.713 597.031 470.008 599.031 467.265 600.97H390.012V594.975H475.37Z" fill="#FFC900" stroke="black" stroke-width="2" stroke-miterlimit="10" stroke-linecap="round" stroke-linejoin="round"/>
<path d="M356.574 563.132H315.379V570.064H356.574V563.132Z" fill="#FFC900" stroke="black" stroke-width="2" stroke-miterlimit="10" stroke-linecap="round" stroke-linejoin="round"/>
<path d="M497.249 563.132H356.573V570.064H497.249V563.132Z" fill="#FFC900" stroke="black" stroke-width="2" stroke-miterlimit="10" stroke-linecap="round" stroke-linejoin="round"/>
<path d="M461.839 534.33H280.458V542.281H461.839V534.33Z" fill="#FFC900" stroke="black" stroke-width="2" stroke-miterlimit="10" stroke-linecap="round" stroke-linejoin="round"/>
<path d="M463.333 534.33H323.678V542.281H463.333V534.33Z" fill="#FFC900" stroke="black" stroke-width="2" stroke-miterlimit="10" stroke-linecap="round" stroke-linejoin="round"/>
<path d="M435.77 505.942H263.469V514.182H435.77V505.942Z" fill="#FFC900" stroke="black" stroke-width="2" stroke-miterlimit="10" stroke-linecap="round" stroke-linejoin="round"/>
<path d="M469.891 355.222H403.872V363.463H469.891V355.222Z" fill="#FFC900" stroke="black" stroke-width="2" stroke-miterlimit="10" stroke-linecap="round" stroke-linejoin="round"/>
<path d="M252.228 355.222V363.463H84.6245C85.0522 360.699 85.5318 357.952 86.0545 355.222H252.228Z" fill="#FFC900" stroke="black" stroke-width="2" stroke-miterlimit="10" stroke-linecap="round" stroke-linejoin="round"/>
<path d="M435.77 505.942H304.068V514.182H435.77V505.942Z" fill="#FFC900" stroke="black" stroke-width="2" stroke-miterlimit="10" stroke-linecap="round" stroke-linejoin="round"/>
<path d="M475.409 470.354V480.72H94.8413C93.6662 477.299 92.5688 473.84 91.5449 470.354H475.409Z" fill="#FFC900" stroke="black" stroke-width="2" stroke-miterlimit="10" stroke-linecap="round" stroke-linejoin="round"/>
<path d="M270.088 470.355H284.453L286.389 444.381H269.15L270.088 470.355Z" fill="#FFC900" stroke="black" stroke-width="2" stroke-miterlimit="10" stroke-linecap="round" stroke-linejoin="round"/>
<path d="M280.522 422.329L276.772 465.919" stroke="black" stroke-width="2" stroke-miterlimit="10" stroke-linecap="round" stroke-linejoin="round"/>
<path d="M267.341 434.327L289.95 436.698C289.95 436.698 291.699 425.21 280.332 423.65C268.966 422.091 267.341 434.327 267.341 434.327Z" fill="#E2442F" stroke="black" stroke-width="2" stroke-miterlimit="10" stroke-linecap="round" stroke-linejoin="round"/>
<path d="M355.281 505.942H378.266C378.266 505.942 379.329 498.263 372.645 496.639C365.961 495.015 363.088 492.895 362.276 491.832C361.464 490.77 344.411 487.086 342.791 487.522C341.171 487.958 337.983 495.512 338.92 496.514C339.853 497.512 355.281 505.942 355.281 505.942Z" fill="#FF90E8" stroke="black" stroke-width="2" stroke-miterlimit="10" stroke-linecap="round" stroke-linejoin="round"/>
<path d="M327.614 492.247C327.614 492.247 323.181 499.261 327.614 505.942H355.281C355.281 505.942 358.094 502.362 354.469 499.096C350.849 495.827 345.349 494.704 341.914 491.521C338.48 488.334 327.614 492.247 327.614 492.247Z" fill="#FF90E8" stroke="black" stroke-width="2" stroke-miterlimit="10" stroke-linecap="round" stroke-linejoin="round"/>
<path d="M326.797 470.597L325.345 492.247H365.819C365.819 492.247 372.398 463.194 373.565 459.445C374.731 455.696 372.442 449.434 367.568 449.434C362.695 449.434 357.281 449.434 357.281 449.434H313.27C313.27 449.434 313.27 460.361 313.27 463.276C313.27 466.191 326.797 470.597 326.797 470.597Z" fill="#90A8ED" stroke="black" stroke-width="2" stroke-miterlimit="10" stroke-linecap="round" stroke-linejoin="round"/>
<path d="M346.079 492.247C346.079 492.247 350.408 461.112 350.494 457.782C350.581 454.452 349.077 449.438 342.251 449.438" stroke="black" stroke-width="2" stroke-miterlimit="10" stroke-linecap="round" stroke-linejoin="round"/>
<path d="M313.27 449.438C313.27 449.438 313.27 461.613 313.27 466.273C313.27 470.933 322.347 472.6 333.424 469.02" fill="#90A8ED"/>
<path d="M313.27 449.438C313.27 449.438 313.27 461.613 313.27 466.273C313.27 470.933 322.347 472.6 333.424 469.02" stroke="black" stroke-width="2" stroke-miterlimit="10" stroke-linecap="round" stroke-linejoin="round"/>
<path d="M309.062 438.512C309.062 438.512 310.769 435.808 313.102 431.395C315.435 426.981 320.762 423.154 325.842 422.489C330.923 421.824 335.55 423.5 335.55 423.5C335.55 423.5 346.537 425.361 351.967 434.703C357.398 444.045 350.74 449.439 350.74 449.439H306.941L309.062 438.512Z" fill="#90A8ED" stroke="black" stroke-width="2" stroke-miterlimit="10" stroke-linecap="round" stroke-linejoin="round"/>
<path d="M315.245 446.004C315.245 446.004 318.265 442.135 320.511 438.511Z" fill="#FF90E8"/>
<path d="M315.245 446.004C315.245 446.004 318.265 442.135 320.511 438.511" stroke="black" stroke-width="2" stroke-miterlimit="10" stroke-linecap="round" stroke-linejoin="round"/>
<path d="M309.063 438.511L315.245 446.004C315.245 446.004 307.373 455.869 298.257 459.553C289.137 463.237 285.266 461.799 285.266 461.799C285.266 461.799 285.577 457.929 285.577 456.365C285.577 454.806 283.642 454.055 281.767 453.182C279.891 452.31 281.892 449.313 284.579 449.438C287.266 449.563 288.891 453.372 289.638 453.247C290.386 453.122 300.508 449.684 309.063 438.511Z" fill="#FF90E8" stroke="black" stroke-width="2" stroke-miterlimit="10" stroke-linecap="round" stroke-linejoin="round"/>
<path d="M346.576 440.178L351.972 434.702C351.972 434.702 355.472 438.347 356.094 440.178C356.094 440.178 365.4 428.586 365.901 428.085C366.402 427.584 363.404 422.341 364.091 420.903C364.778 419.465 366.402 416.161 367.776 414.973C369.15 413.786 371.898 416.472 371.898 416.472L381.981 426.712L378.784 432.823L363.901 449.438H345.539L346.576 440.178Z" fill="#FF90E8" stroke="black" stroke-width="2" stroke-miterlimit="10" stroke-linecap="round" stroke-linejoin="round"/>
<path d="M342.916 431.831C342.916 431.831 347.349 435.014 347.349 449.439H330.612" fill="#90A8ED"/>
<path d="M342.916 431.831C342.916 431.831 347.349 435.014 347.349 449.439H330.612" stroke="black" stroke-width="2" stroke-miterlimit="10" stroke-linecap="round" stroke-linejoin="round"/>
<path d="M378.849 426.151H369.145L376.433 403.796H391.131L384.845 424.19L378.849 426.151Z" fill="#90A8ED" stroke="black" stroke-width="2" stroke-miterlimit="10" stroke-linecap="round" stroke-linejoin="round"/>
<path d="M373.271 426.151L380.14 403.796" stroke="black" stroke-width="2" stroke-miterlimit="10" stroke-linecap="round" stroke-linejoin="round"/>
<path d="M381.013 428.397C381.013 428.397 376.767 426.432 376.015 426.151C375.267 425.871 374.701 427.65 375.483 429.179C376.265 430.708 380.482 435.359 383.23 434.206C385.978 433.053 388.509 426.091 388.82 424.964C389.131 423.841 386.885 419.44 383.701 418.157C380.517 416.874 379.89 421.09 380.517 422.122C381.143 423.154 383.359 424.899 383.359 424.899C383.359 424.899 380.672 422.744 379.082 422.403C377.488 422.057 376.395 425.089 377.428 425.931C378.452 426.773 381.013 428.397 381.013 428.397Z" fill="#FF90E8" stroke="black" stroke-width="2" stroke-miterlimit="10" stroke-linecap="round" stroke-linejoin="round"/>
<path d="M336.19 371.685C337.257 368.757 337.719 365.535 337.404 362.167C336.418 351.676 327.847 343.319 317.335 342.581C304.621 341.691 294.031 351.737 294.031 364.253C294.031 372.424 298.546 379.541 305.221 383.251C305.947 383.657 306.206 384.564 305.787 385.285C303.536 389.198 302.266 393.742 302.318 398.592C302.473 412.81 314.229 424.445 328.452 424.462C342.921 424.479 354.655 412.762 354.655 398.303C354.655 386.866 347.314 377.153 337.088 373.599C336.302 373.322 335.904 372.467 336.19 371.685Z" fill="#FF90E8" stroke="black" stroke-width="2" stroke-miterlimit="10" stroke-linecap="round" stroke-linejoin="round"/>
<path d="M343.176 408.978C343.832 408.978 344.364 408.447 344.364 407.791C344.364 407.135 343.832 406.603 343.176 406.603C342.519 406.603 341.988 407.135 341.988 407.791C341.988 408.447 342.519 408.978 343.176 408.978Z" fill="black"/>
<path d="M328.923 408.625C329.579 408.625 330.111 408.093 330.111 407.437C330.111 406.781 329.579 406.249 328.923 406.249C328.267 406.249 327.735 406.781 327.735 407.437C327.735 408.093 328.267 408.625 328.923 408.625Z" fill="black"/>
<path d="M649.349 1.57959H518.313C510.775 1.57959 504.663 7.69022 504.663 15.2258V64.1702C504.663 71.7057 510.775 77.8163 518.313 77.8163H552.148L512.635 207.752L566.466 77.8163H649.349C656.887 77.8163 663 71.7057 663 64.1702V15.2258C663 7.69022 656.887 1.57959 649.349 1.57959Z" fill="white" stroke="black" stroke-width="2" stroke-miterlimit="10" stroke-linecap="round" stroke-linejoin="round"/>
<path d="M561.339 47.4406C561.325 47.2077 561.307 46.9748 561.293 46.7419C561.257 46.2943 561.257 45.865 561.444 45.422C561.563 45.1388 561.54 44.7598 561.476 44.4447C561.412 44.1295 561.43 43.8373 561.458 43.5267C561.517 42.9467 561.504 42.3576 561.545 41.773C561.577 41.2843 561.654 40.8048 561.695 40.3161C561.714 40.0832 561.705 39.8503 561.695 39.6174C561.673 38.8547 561.668 38.1011 561.965 37.3704C562.033 37.2014 561.983 36.9502 561.906 36.7676C561.782 36.4707 561.81 36.2104 561.887 35.9135C562.052 35.2924 562.207 34.6667 562.321 34.0365C562.408 33.5661 562.509 33.1185 562.842 32.7532C563.144 32.4198 563.509 32.2691 563.948 32.3558C564.505 32.47 565.076 32.5522 565.602 32.7532C566.355 33.0409 566.945 33.5981 567.233 34.3516C567.484 35.0093 567.772 35.5984 568.352 36.0277C568.503 36.1419 568.649 36.3109 568.713 36.4844C568.895 36.9913 569.247 37.3384 569.677 37.6353C569.709 37.6581 569.736 37.6855 569.763 37.7129C570.732 38.6537 571.705 39.59 572.669 40.5353C572.806 40.6678 572.952 40.8413 572.993 41.0149C573.085 41.435 573.395 41.5994 573.702 41.8186C574.177 42.1566 574.62 42.5448 575.068 42.9193C575.218 43.0426 575.342 43.2024 575.497 43.3212C575.986 43.6865 576.443 43.4947 576.493 42.901C576.552 42.1977 576.584 41.4944 576.635 40.7911C576.657 40.4805 576.721 40.17 576.74 39.8594C576.763 39.5306 576.753 39.2018 576.762 38.8729C576.767 38.6994 576.767 38.5213 576.79 38.3477C576.922 37.3202 577.096 36.2972 577.187 35.265C577.242 34.685 577.233 34.0822 577.142 33.5067C577 32.607 577.334 31.8946 577.864 31.2369C578.188 30.835 578.681 30.7209 579.138 30.5519C579.22 30.5199 579.353 30.5291 579.421 30.5747C579.791 30.8259 580.189 31.0588 580.504 31.3648C580.842 31.6936 580.86 32.164 580.892 32.6253C580.984 33.8356 580.879 35.0321 580.664 36.2195C580.641 36.3337 580.627 36.4524 580.623 36.5712C580.568 37.6673 580.536 38.7588 580.463 39.8548C580.404 40.75 580.299 41.6451 580.23 42.5402C580.125 43.924 579.878 45.3078 580.125 46.6962C580.23 47.2945 580.358 47.879 580.289 48.5001C580.198 49.3313 579.714 49.8976 579.079 50.3543C578.951 50.4457 578.7 50.4137 578.521 50.3726C577.909 50.2356 577.302 50.0986 576.703 49.9068C576.397 49.8109 576.077 49.6602 575.844 49.4455C574.725 48.4088 573.619 47.3538 572.537 46.2806C571.897 45.6503 571.303 44.9744 570.691 44.3168C570.586 44.2026 570.467 44.0976 570.357 43.9925C569.832 43.4993 569.302 43.0061 568.777 42.5083C568.439 42.184 568.11 41.8552 567.776 41.5264C567.443 41.1975 567.123 40.855 566.785 40.5399C566.529 40.3024 566.273 40.0558 565.976 39.8731C565.679 39.6859 565.428 39.8137 565.373 40.1563C565.259 40.8276 565.094 41.5035 565.085 42.184C565.058 43.65 564.966 45.1206 565.259 46.5729C565.305 46.8012 565.332 47.0387 565.359 47.2716C565.483 48.3312 564.953 49.3496 563.998 49.8337C563.121 50.2767 561.682 50.0347 561.394 48.6189C561.316 48.2398 561.312 47.8425 561.275 47.4543C561.289 47.4452 561.312 47.4406 561.339 47.4406Z" fill="black"/>
<path d="M600.509 39.1155C600.523 39.2342 600.528 39.4672 600.573 39.6955C600.683 40.2207 600.596 40.7048 600.359 41.1752C600.149 41.5954 600.002 42.0155 600.048 42.5225C600.075 42.8376 599.888 43.1892 599.746 43.5044C599.582 43.8743 599.367 44.226 599.175 44.5868C599.139 44.6553 599.13 44.742 599.089 44.8014C598.348 45.8335 597.663 46.9159 596.567 47.6375C596.16 47.907 595.758 48.1901 595.361 48.4733C594.808 48.8615 594.218 49.1537 593.529 49.1903C592.77 49.2314 592.021 49.4597 591.253 49.2725C591.18 49.2542 591.094 49.2634 591.02 49.2862C590.541 49.446 590.061 49.3912 589.568 49.3456C588.087 49.204 586.895 48.5372 585.936 47.4274C585.872 47.3543 585.808 47.2767 585.735 47.2128C584.72 46.3039 584.3 45.1439 584.254 43.8149C584.232 43.1527 584.063 42.4905 584.273 41.8328C584.291 41.778 584.296 41.7095 584.273 41.6593C583.985 40.956 584.209 40.2253 584.177 39.5083C584.163 39.2342 584.254 38.9191 584.396 38.6771C584.794 37.9966 585.095 37.2887 585.392 36.558C585.835 35.4573 586.616 34.6261 587.699 34.0964C587.978 33.9594 588.22 33.7493 588.494 33.6077C588.75 33.4753 589.024 33.3702 589.298 33.2834C589.632 33.1738 589.997 33.1419 590.308 32.9957C591.034 32.6578 591.829 32.6578 592.588 32.4705C592.752 32.4294 592.939 32.466 593.113 32.4888C593.519 32.5482 593.931 32.5938 594.328 32.7034C594.68 32.7993 595.055 32.9044 595.347 33.1145C595.708 33.3702 596.069 33.5666 596.503 33.6397C596.928 33.7127 597.261 33.9411 597.517 34.2882C598.047 35.0006 598.691 35.5852 599.445 36.0465C599.788 36.2566 599.966 36.5306 599.979 36.9553C599.989 37.2293 600.107 37.5262 600.254 37.7682C600.487 38.1564 600.601 38.5537 600.509 39.1155ZM591.925 36.4986C591.911 36.4529 591.898 36.4073 591.884 36.3616C591.614 36.4484 591.34 36.5214 591.075 36.6219C590.765 36.7361 590.468 36.9051 590.152 36.9964C588.672 37.4074 587.69 38.9328 587.727 40.3668C587.74 40.9149 587.818 41.4629 587.79 42.0064C587.745 42.8559 587.695 43.687 588.444 44.3036C588.503 44.3493 588.544 44.4269 588.576 44.4954C588.686 44.7649 588.914 44.8471 589.17 44.911C589.755 45.0617 590.34 45.2216 590.911 45.4088C591.171 45.491 591.391 45.5093 591.646 45.3997C592.848 44.8653 593.995 44.2442 594.949 43.3263C595.397 42.897 595.863 42.454 596.206 41.9425C596.539 41.4447 596.736 40.8555 596.973 40.2983C597.101 39.9924 597.211 39.6772 597.284 39.353C597.403 38.8323 597.238 38.4122 596.841 38.0377C596.242 37.4759 595.699 36.864 594.885 36.5945C594.758 36.5534 594.648 36.4575 594.534 36.3844C593.944 35.9962 593.341 35.9506 592.697 36.2657C592.455 36.3799 592.181 36.4255 591.925 36.4986Z" fill="black"/>
<path d="M603.817 46.1622C604.507 46.0298 604.932 46.3769 605.27 46.9249C605.535 47.3588 605.873 47.7516 605.96 48.2722C605.987 48.4366 606.001 48.6238 605.942 48.77C605.777 49.1856 605.562 49.5829 605.38 49.9939C604.996 50.848 604.219 51.0946 603.401 51.2773C603.347 51.291 603.269 51.2955 603.228 51.2681C602.606 50.8617 601.862 50.6379 601.547 49.8204C601.108 48.6787 601.428 47.7653 602.223 46.9432C602.305 46.8564 602.392 46.7788 602.469 46.692C602.835 46.3038 603.255 46.0435 603.817 46.1622Z" fill="black"/>
</svg>
