<svg xmlns="http://www.w3.org/2000/svg" width="398" height="419" fill="none"><g filter="url(#a)"><path fill="#fff" d="M334.464 28.008H112.723a4.104 4.104 0 0 0-4.106 4.1v151.725c0 2.264 1.839 4.1 4.106 4.1h221.741a4.103 4.103 0 0 0 4.106-4.1V32.109a4.103 4.103 0 0 0-4.106-4.101"/><path stroke="#000" stroke-width="2.179" d="M334.464 28.008H112.723a4.104 4.104 0 0 0-4.106 4.1v151.725c0 2.264 1.839 4.1 4.106 4.1h221.741a4.103 4.103 0 0 0 4.106-4.1V32.109a4.103 4.103 0 0 0-4.106-4.101Z"/></g><path fill="#23A094" stroke="#000" d="M300.64 81.615c5.825-.008 10.54-4.731 10.532-10.549-.009-5.817-4.738-10.526-10.564-10.517-5.825.008-10.54 4.731-10.532 10.549.009 5.817 4.738 10.526 10.564 10.517Z"/><mask id="b" width="23" height="22" x="289" y="60" maskUnits="userSpaceOnUse" style="mask-type:alpha"><path fill="#23A094" stroke="#000" d="M300.637 81.37c5.758-.01 10.418-4.677 10.409-10.426s-4.682-10.404-10.44-10.395c-5.757.008-10.417 4.676-10.409 10.426.009 5.749 4.683 10.403 10.44 10.394Z"/></mask><g mask="url(#b)"><path fill="#FF90E8" stroke="#000" d="M305.751 70.72a3.91 3.91 0 0 1-.474-5.466l-9.328.014a3.904 3.904 0 0 1-.457 5.468 3.904 3.904 0 0 1 .474 5.466l9.328-.013a3.91 3.91 0 0 1 .457-5.468Z"/><path fill="#F1F333" stroke="#000" d="m298.631 76.199 3.994-.006.011 7.68-3.994.005z"/><path fill="#000" d="M301.151 83.875v.377l.754-.001-.001-.377zm.743-6.615a.376.376 0 1 0-.753.001zm.01 6.614-.01-6.614-.753.001.01 6.614zm-3.155-12.89a.27.27 0 1 0 0-.539.27.27 0 0 0 0 .54m3.746-.007a.27.27 0 1 0 0-.539.27.27 0 0 0 0 .54"/><path stroke="#000" d="M299.736 71.701c.063.125.309.391.792.45.482.06.854-.277.979-.453"/></g><path fill="#000" d="M205.666 63.168c-2.476 0-4.897 2.24-5.175 5.474v-5.207h-3.555v15.703h3.599v-7.601c0-2.13 1.51-5.133 5.131-5.133zm37.755 13.455V65.865h2.086c2.78 0 5.039 1.735 5.039 5.292 0 3.558-2.259 5.466-5.039 5.466zm-3.562 2.516h6.082c3.736 0 8.341-2.43 8.341-7.982 0-5.466-4.605-7.721-8.341-7.721h-6.082zm-13.63-7.809c0-2.863 1.477-5.205 3.91-5.205 2.345 0 3.649 2.342 3.649 5.205s-1.304 5.206-3.649 5.206c-2.433 0-3.91-2.343-3.91-5.206m-3.649.174c0 4.685 2.433 7.982 6.256 7.982 2.78 0 4.43-1.822 5.299-4.772v4.425h3.561V63.435h-3.561V67.6c-.782-2.777-2.432-4.425-5.039-4.425-3.91 0-6.516 3.557-6.516 8.329m-81.114 7.983c-4.432 0-7.038-3.557-7.038-7.982 0-4.599 2.867-8.33 8.341-8.33 5.647 0 7.558 3.818 7.645 5.987h-4.084c-.086-1.214-1.129-3.036-3.649-3.036-2.693 0-4.431 2.342-4.431 5.205s1.738 5.206 4.431 5.206c2.433 0 3.476-1.909 3.91-3.817h-3.91v-1.562h8.205v7.982h-3.6v-5.033c-.261 1.823-1.39 5.38-5.82 5.38m16.714-.001c-3.388 0-5.473-2.255-5.473-6.767v-9.283h3.649v9.283c0 2.343 1.129 3.47 3.041 3.47 3.736 0 5.126-4.598 5.126-7.808v-4.946h3.649V79.14h-3.562v-5.812c-.695 3.21-2.606 6.16-6.43 6.16m31.797-16.321c-3.113 0-5.077 3.003-5.718 5.78-.109-3.721-1.942-5.78-4.874-5.78-2.533 0-4.884 2.256-5.494 5.825v-5.558h-3.557V79.14h3.603v-5.63c0-1.396.582-7.124 4.209-7.124 2.349 0 2.594 2.116 2.594 5.01v7.744h3.602v-5.63c0-1.396.606-7.124 4.233-7.124 2.347 0 2.59 2.116 2.59 5.01v7.744h3.606v-9.29c.017-4.456-1.559-6.682-4.794-6.682m23.416-.001c-4.664 0-7.825 3.652-7.825 8.16 0 4.967 3.007 8.16 7.825 8.16 4.664 0 7.881-3.652 7.881-8.16 0-4.967-3.064-8.16-7.881-8.16m0 13.54c-2.715 0-4.474-2.296-4.474-5.38s1.765-5.38 4.474-5.38 4.403 2.295 4.403 5.38-1.696 5.38-4.403 5.38"/><path fill="#23A094" stroke="#000" stroke-width=".545" d="M220.217 43.643h-8.339a1.39 1.39 0 0 0-1.39 1.388 1.39 1.39 0 0 0 1.39 1.388h8.339a1.389 1.389 0 1 0 0-2.776Zm15.287 0h-8.339a1.39 1.39 0 0 0-1.39 1.388 1.39 1.39 0 0 0 1.39 1.388h8.339a1.389 1.389 0 1 0 0-2.776Z"/><path fill="#fff" stroke="#000" stroke-width="1.222" d="M183.791 100.799h-45.844a3.393 3.393 0 0 0-3.396 3.391v54.259a3.393 3.393 0 0 0 3.396 3.391h45.844a3.393 3.393 0 0 0 3.395-3.391V104.19a3.393 3.393 0 0 0-3.395-3.391Z"/><path fill="#FF90E8" stroke="#000" stroke-width="1.222" d="M179.834 149.972h-9.061a2.259 2.259 0 1 0 0 4.515h9.061a2.259 2.259 0 1 0 0-4.515Z"/><path fill="#D6D3D1" d="M180.585 139.607h-39.433a1.506 1.506 0 1 0 0 3.011h39.433a1.507 1.507 0 1 0 0-3.011"/><path fill="#FFC900" d="M142.298 150.665a.454.454 0 0 1 .789 0l.476.837a.45.45 0 0 0 .303.219l.943.194c.345.07.482.489.244.749l-.649.709a.45.45 0 0 0-.116.357l.107.956a.453.453 0 0 1-.638.463l-.876-.397a.45.45 0 0 0-.376 0l-.877.397a.453.453 0 0 1-.638-.463l.107-.956a.46.46 0 0 0-.115-.357l-.65-.709a.452.452 0 0 1 .244-.749l.943-.194a.45.45 0 0 0 .304-.219z"/><path fill="#E7E5E4" stroke="#000" stroke-width="1.222" d="M134.551 104.19a3.393 3.393 0 0 1 3.396-3.391h45.843a3.393 3.393 0 0 1 3.396 3.391v28.825h-52.635z"/><path fill="#23A094" stroke="#000" stroke-miterlimit="10" d="M176.64 119.31c-.183-2.125-.776-3.998-1.763-5.564a10.2 10.2 0 0 0-4.084-3.706 4.16 4.16 0 0 0-3.046-2.348 4.24 4.24 0 0 0-3.442.851c-2.267-.027-4.33.474-6.135 1.489a11.2 11.2 0 0 0-3.543 3.157l-.764-.144-.151-.029-6.847-1.291c-.624-.172-2.204-.459-3.739.426-.857.494-1.961 1.515-2.349 3.566-.422 2.229.486 4.252 2.491 5.551 1.219.789 2.581 1.156 3.496 1.362 1.146.259 4.804.995 5.524 1.14l.031.006.097.018.051.01.071-.377-.063.378c.341.064 2.038.389 5.34 1.012l6.569 1.239 6.236 1.176 2.327.439a2.684 2.684 0 0 0 3.081-1.882c.037-.123.903-3.09.612-6.479Z"/><path fill="#000" d="M166.257 111.533q-.344-.056-.675-.093l.008-.038c.125-.668.859-1.088 1.64-.94.779.147 1.308.808 1.182 1.472l-.042.122q-.266-.093-.547-.175-.546-.161-1.158-.277a6 6 0 0 0-.408-.071m-16.668 8.205c.874.896 1.909 1.258 3.21 1.525-.828-.167-4.368-.88-5.463-1.127-1.247-.282-4.451-1.113-3.944-3.797.508-2.684 2.818-1.873 2.818-1.873 2.688.507 1.476 3.322 3.379 5.272"/><path stroke="#000" stroke-linecap="round" stroke-linejoin="round" d="M152.801 121.263c-1.302-.266-2.337-.628-3.21-1.525-1.903-1.949-.691-4.765-3.38-5.272 0 0-2.307-.806-2.815 1.878-.507 2.685 2.697 3.515 3.941 3.796 1.098.248 4.636.961 5.463 1.127m.001-.004.175.033m3.013-5.038s.905-2.312 3.48-3.763c1.457-.819 3.447-1.364 6.112-1.059q.331.039.676.093c.132.025.268.045.404.071a12 12 0 0 1 1.705.451c8.107 2.838 5.059 13.104 5.059 13.104l-2.33-.439-7.349-1.387-10.771-2.032"/><path stroke="#000" stroke-linecap="round" stroke-linejoin="round" d="m146.211 114.465 8.827 1.665q.485.092.926.218c1.542.436 2.703 1.189 3.51 2.302q.198.272.363.564.225.408.367.85c.162.486.269.957.483 1.388.379.774 1.099 1.419 3.075 1.791 0 0 .818-7.022 2.493-11.708l.001-.006m-.67-.131c.126-.668.86-1.087 1.64-.94s1.308.807 1.182 1.472"/><path stroke="#000" stroke-linecap="round" stroke-linejoin="round" d="m149.07 115.047.008.001c.068.014.622.196 1.121 2.621.434 2.122 3.461 2.554 5.568 2.951 2.553.482 4.856.823 4.856.823"/><path stroke="#000" stroke-linecap="round" stroke-linejoin="round" d="M151.324 115.471h.005c.049.01.436.135.784 1.832.303 1.482 2.42 1.784 3.892 2.062 1.785.337 4.088.707 4.088.707"/><path stroke="#000" stroke-linecap="round" stroke-linejoin="round" d="m153.258 115.79.01.002c.049.015.26.138.451 1.069.177.866 1.414 1.042 2.275 1.205 1.043.196 3.435.61 3.435.61m11.665 6.04c.238-1.994 1.72-9.825-3.285-12.807m-6.463 5.221c.054-.001 1.214-.026 1.224.881.009.929-2.734 1.202-2.734 1.202m-.014-3.77c.196-.118 2.744-1.615 3.444-.593.713 1.045-1.822 2.233-1.918 2.279m-1.536-1.681.008-.005"/><path stroke="#000" stroke-linecap="round" stroke-linejoin="round" d="M159.48 112.519s2.004-.78 2.196.414c.183 1.141-1.688 2.401-1.857 2.514"/><path fill="#fff" stroke="#000" stroke-width="1.331" d="M246.615 100.799h-45.844a3.393 3.393 0 0 0-3.396 3.391v54.259a3.393 3.393 0 0 0 3.396 3.391h45.844a3.394 3.394 0 0 0 3.396-3.391V104.19a3.394 3.394 0 0 0-3.396-3.391Z"/><path fill="#FF90E8" stroke="#000" stroke-width="1.222" d="M242.654 149.972h-9.061a2.259 2.259 0 1 0 0 4.515h9.061a2.259 2.259 0 1 0 0-4.515Z"/><path fill="#D6D3D1" d="M243.407 139.608h-39.433a1.505 1.505 0 1 0 0 3.01h39.433a1.506 1.506 0 1 0 0-3.01"/><path fill="#E7E5E4" stroke="#000" stroke-width="1.331" d="M197.375 104.19a3.393 3.393 0 0 1 3.395-3.391h45.845a3.394 3.394 0 0 1 3.396 3.391v28.825h-52.636z"/><path fill="#FFC900" d="M205.122 150.665a.455.455 0 0 1 .79 0l.474.837a.45.45 0 0 0 .304.219l.944.194c.344.07.481.489.243.749l-.65.709a.46.46 0 0 0-.116.357l.108.956a.453.453 0 0 1-.638.463l-.877-.397a.45.45 0 0 0-.375 0l-.877.397a.453.453 0 0 1-.638-.463l.108-.956a.46.46 0 0 0-.116-.357l-.65-.709a.453.453 0 0 1 .244-.749l.943-.194a.45.45 0 0 0 .304-.219z"/><path fill="#FF90E8" stroke="#000" d="m207.906 117.134.005-.005.08-.073v-.001c1.661-1.514 2.475-2.674 2.867-3.39 1.703-3.108 4.165-3.882 5.93-3.996a7.2 7.2 0 0 1 1.801.116l.199.038.142-.145c.571-.583 1.304-1.154 2.177-1.479 1.418-.531 3.033-.545 4.589-.065l.285.088.15-.257 1.132-1.92a2.246 2.246 0 0 1 4.143.725v.498l.497-.167 3.804-1.28c.432-.146.9-.156 1.338-.029.439.126.829.383 1.117.737a2.23 2.23 0 0 1 .201 2.543l-.005.009-.004.007-1.348 2.326-.267.461.524.097 1.101.206a2.24 2.24 0 0 1 1.808 1.862 2.24 2.24 0 0 1-1.163 2.319l-1.954 1.038-.369.197.234.346.642.948a2.24 2.24 0 0 1 .018 2.485 2.245 2.245 0 0 1-2.29.972l-.377-.07-.528-.098.087.529.243 1.468a2.235 2.235 0 0 1-1.089 2.302 2.24 2.24 0 0 1-2.544-.201l-2.261-1.841-.264-.215-.241.24a9.95 9.95 0 0 1-4.174 2.492l-.005.001a14 14 0 0 1-4.12.641c-2.901-.001-5.699-.978-8.247-2.921a18.1 18.1 0 0 1-4.279-4.69 2.235 2.235 0 0 1 .415-2.848Z"/><path fill="#000" d="M229.043 112.22s0 .027-.008.076c-.047.539-.425 3.797-2.625 6.237l-.123-.184c-1.268-.646-3.513-.037-4.319 1.009-4.367-.307-6.185 2.054-6.185 2.054l-.012.088c-3.989-.56-6.311-2.602-6.392-2.675.103-.024 3.533-.844 4.778-1.319 1.041-.397 1.675-1.005 2.456-1.437l.082.028c.115.041 1.365 1.95 2.33 2.084.539.073 1.556-.174 2.449-.472.708-.234 1.337-.502 1.594-.666.703-.453.205-3.32.205-3.32l-.021-.05c.548-.232 1.181-.366 2.04-.384 1.684-.037 3.751-1.069 3.751-1.069"/><path stroke="#000" stroke-linecap="round" stroke-linejoin="round" d="M209.379 118.824c.189-.184 2.297-2 3.427-4.063s2.653-2.742 4.107-2.837a5.46 5.46 0 0 1 2.662.561s.953-1.666 2.296-2.168 3.14-.301 4.693.707q.135.088.263.168c1.394.861 2.216 1.025 2.216 1.025s-2.068 1.027-3.752 1.065c-.858.017-1.492.152-2.039.384-.527.224-.974.535-1.465.916-.49.382-.756.608-1.144.748-.41.149-.962.195-2.044.204a4 4 0 0 0-1.986.523c-.781.435-1.415 1.043-2.456 1.436-1.245.476-4.67 1.295-4.778 1.32"/><path stroke="#000" stroke-linecap="round" stroke-linejoin="round" d="M209.379 118.824c.084.145 5.168 8.744 14.074 6.005 2.289-.705 3.711-2.12 4.582-3.754 2.022-3.797 1.064-8.779 1.064-8.779"/><path stroke="#000" stroke-linecap="round" stroke-linejoin="round" d="M229.043 112.22s0 .027-.008.076c-.047.539-.425 3.797-2.625 6.237a8 8 0 0 1-3.554 2.289c-2.724.87-5.11.955-7.085.678-3.989-.559-6.311-2.601-6.392-2.674"/><path stroke="#000" stroke-linecap="round" stroke-linejoin="round" d="M216.695 116.093c.116.041 1.366 1.95 2.331 2.084.539.072 1.557-.174 2.449-.472.707-.235 1.336-.502 1.593-.666.704-.453.206-3.32.206-3.32m13.127-5.755-.001.001-3.218 5.554 4.749.883-4.527 2.405 2.273 3.358-4.053-.757.851 5.152-4.205-3.425m-1.44-9.953 2.344-3.984s.605 3.526.72 3.528c.115.001 6.407-2.721 6.505-2.762m-15.725 7.451.783 2.202m-5.672 3.796s1.819-2.361 6.186-2.053c.805-1.047 3.05-1.655 4.318-1.01"/><path fill="#fff" stroke="#000" stroke-width="1.331" d="M309.437 100.799h-45.844a3.394 3.394 0 0 0-3.396 3.391v54.259a3.394 3.394 0 0 0 3.396 3.391h45.844a3.394 3.394 0 0 0 3.396-3.391V104.19a3.394 3.394 0 0 0-3.396-3.391Z"/><path fill="#FF90E8" stroke="#000" stroke-width="1.222" d="M305.479 149.972h-9.062a2.26 2.26 0 0 0-2.261 2.258 2.26 2.26 0 0 0 2.261 2.257h9.062a2.26 2.26 0 0 0 2.261-2.257 2.26 2.26 0 0 0-2.261-2.258Z"/><path fill="#D6D3D1" d="M306.581 139.183h-39.433a1.506 1.506 0 1 0 0 3.01h39.433c.833 0 1.508-.674 1.508-1.505s-.675-1.505-1.508-1.505"/><path fill="#E7E5E4" stroke="#000" stroke-width="1.331" d="M260.197 104.19a3.393 3.393 0 0 1 3.396-3.391h45.844a3.393 3.393 0 0 1 3.396 3.391v28.825h-52.636z"/><path fill="#FFC900" d="M267.947 150.665a.454.454 0 0 1 .789 0l.475.837a.45.45 0 0 0 .303.219l.944.194c.345.07.482.489.244.749l-.65.709a.45.45 0 0 0-.116.357l.108.956a.454.454 0 0 1-.638.463l-.877-.397a.45.45 0 0 0-.375 0l-.877.397a.454.454 0 0 1-.639-.463l.108-.956a.46.46 0 0 0-.115-.357l-.651-.709a.453.453 0 0 1 .245-.749l.943-.194a.45.45 0 0 0 .304-.219z"/><path fill="#F1F333" stroke="#000" stroke-miterlimit="10" d="m304.41 114.059-12.156-.051c-.736-.894-1.72-1.69-2.914-2.346a3.82 3.82 0 0 0-4.178-6.077 2.7 2.7 0 0 0-.5-.518l-.773-.612a2.71 2.71 0 0 0-3.707.319c-.732.817-1.611 1.791-1.816 2.011q-.125.12-.232.255l-.021-.008a3.55 3.55 0 0 0-3.645.602 3.56 3.56 0 0 0-1.149 3.512q-.534.235-1.028.508c-2.801 1.541-4.411 3.867-4.42 6.381a6.1 6.1 0 0 0 .681 2.805c1.163 3.003 3.378 5.06 3.628 5.287q.081.074.17.141c2.116 1.616 5.269 2.553 8.653 2.568h.018c4.395.018 8.303-1.516 10.202-3.991l.034-.045a15.3 15.3 0 0 0 1.466-2.559l11.659.049a4.1 4.1 0 0 0 1.594-.289 4.1 4.1 0 0 0 1.36-.881 4.13 4.13 0 0 0 1.239-2.927 4.1 4.1 0 0 0-.312-1.59 4.13 4.13 0 0 0-2.255-2.239 4.1 4.1 0 0 0-1.591-.303z"/><path fill="#000" d="M291.128 118.11q-.002.295-.056.586c-.143.764-.559 1.483-1.192 2.125l-.121-.009c-.231-1.282-1.361-2.419-3.036-3.211a.8.8 0 0 0 .106-.189.83.83 0 0 0-.462-1.094.83.83 0 0 0-.912.198.82.82 0 0 0-.232.508h-.013a14.6 14.6 0 0 0-4.11-.584 15 15 0 0 0-2.26.156 1.8 1.8 0 0 0-.636-.58c-.632-.349-1.393-.045-1.339.517a.62.62 0 0 0 .211.424l-.052.028c-2.76.802-4.645 2.402-4.661 4.253a5.4 5.4 0 0 1-1.248-1.427 3.46 3.46 0 0 1-.498-1.766c.014-3.144 4.61-5.674 10.272-5.659l.408.002.051.028c-.31.595-.309 1.154-.093 1.659.285.664 1.074.889 1.375.411.374-.593-.406-1.001.014-1.615.116-.158.269-.283.444-.368l.051.027c3.788.483 6.78 2.128 7.694 4.22.193.428.293.891.295 1.36"/><path stroke="#000" stroke-linecap="round" stroke-linejoin="round" d="M286.723 117.601c1.675.791 2.805 1.928 3.035 3.21m-10.928-4.214h.011a15.4 15.4 0 0 1 2.261-.155c1.39-.003 2.775.193 4.109.584m-12.844 4.226v-.013c.015-1.851 1.901-3.452 4.661-4.253"/><path stroke="#000" stroke-linecap="round" stroke-linejoin="round" d="M291.091 118.631c0 .022-.009.045-.012.066q-.078.421-.193.824c-.584 2.047-1.775 3.668-1.775 3.668-1.329 1.732-4.431 2.941-8.042 2.929-2.892-.012-5.452-.799-7.035-2.008 0 0-1.98-1.782-2.931-4.292"/><path stroke="#000" stroke-linecap="round" stroke-linejoin="round" d="M283.141 112.531c3.788.483 6.781 2.129 7.694 4.221.191.427.29.889.291 1.356q-.002.296-.056.586c-.142.764-.558 1.483-1.192 2.126-1.743 1.768-5.131 2.961-9.024 2.944-3.535-.015-6.649-1.014-8.485-2.532a5.5 5.5 0 0 1-1.249-1.427 3.47 3.47 0 0 1-.497-1.767c.014-3.143 4.609-5.674 10.272-5.658l.408.001m-3.683-1.723a.854.854 0 1 1-.969-1.15.86.86 0 0 1 .961.497.85.85 0 0 1 .008.653"/><path stroke="#000" stroke-linecap="round" stroke-linejoin="round" d="M285.222 117.024a.9.9 0 0 1 .232-.509.9.9 0 0 1 .27-.188.84.84 0 0 1 .918.17.83.83 0 0 1 .251.593.85.85 0 0 1-.607.815.836.836 0 0 1-1.064-.881m2.274-7.424a1.106 1.106 0 0 1-1.635.519 1.107 1.107 0 0 1-.191-1.705 1.1 1.1 0 0 1 .564-.311 1.12 1.12 0 0 1 1.006.291 1.11 1.11 0 0 1 .256 1.206m-6.145 2.816a3 3 0 0 1 .384-.568c.739-.887 1.957-.909 2.114-.201.117.536-.341.632-.758.856-.176.084-.329.21-.445.367-.419.615.357 1.023-.013 1.616-.302.477-1.091.252-1.375-.411-.217-.505-.217-1.064.093-1.659m-2.508 4.179c.242.363.372.847.349 1.474-.04 1.153-.99 1.916-1.548 1.451-.592-.493.245-.998.203-1.703-.032-.533-.489-.604-.768-.861a.62.62 0 0 1-.211-.424c-.054-.562.707-.866 1.338-.517a1.8 1.8 0 0 1 .637.58m3.401-10.012.773.612-1.637 2.45s-1.171-.852-1.095-.903c.076-.053 1.959-2.159 1.959-2.159m-.503 11.448-.065 2.502s1.447-.189 1.488-.284-.319-2.437-.319-2.437zm9.175-1.317 13.522.056a1.403 1.403 0 0 1-.012 2.808l-13.572-.058"/><path stroke="#000" stroke-linecap="round" stroke-linejoin="round" d="M304.84 118.176a.512.512 0 0 0-1.012-.103.512.512 0 0 0 .972.299.5.5 0 0 0 .04-.196"/><path fill="#000" d="M145.866 406.518h-1.772l4.445 6.082v4.251h1.483V412.6l4.461-6.082h-1.691l-3.511 4.886zm6.911 6.835c0 2.066 1.606 3.646 3.974 3.646 2.353 0 3.991-1.58 3.991-3.646 0-2.067-1.605-3.647-3.991-3.647-2.368 0-3.974 1.58-3.974 3.647m6.492 0c0 1.475-1.043 2.495-2.518 2.495-1.457 0-2.516-1.034-2.516-2.495s1.059-2.495 2.516-2.495c.746 0 1.342.236 1.806.709.48.457.712 1.062.712 1.786m7.631-3.499v3.72c0 1.402-.961 2.303-2.225 2.303-1.163 0-1.804-.605-1.804-1.83v-4.193h-1.449v4.488c0 1.727 1.112 2.657 2.865 2.657 1.163 0 2.074-.517 2.613-1.329v1.181h1.467v-6.997zm2.577 0v6.997h1.489v-4.458c0-.945.606-1.565 1.524-1.565.814 0 1.316.398 1.316 1.048 0 .133-.017.31-.051.517h1.454c.07-.236.104-.502.104-.783 0-1.063-.918-1.904-2.251-1.904-.988 0-1.732.413-2.096 1.167v-1.019zm10.755 0h-1.359l2.254 6.997h1.728l1.679-5.373 1.679 5.373h1.711l2.255-6.997h-1.359l-1.775 5.757-1.711-5.757h-1.615l-1.712 5.757zm16.076 4.458c-.317 1.004-1.068 1.565-2.285 1.565-1.401 0-2.502-.812-2.518-2.333h5.721c.066-.265.099-.546.099-.856 0-.915-.316-1.639-.967-2.17-.65-.546-1.501-.812-2.551-.812-2.252 0-3.77 1.594-3.77 3.602 0 2.259 1.668 3.691 3.986 3.691 1.818 0 3.002-.841 3.536-2.259zm-4.803-1.683c.149-1.107 1.067-1.801 2.285-1.801 1.2 0 2.118.59 2.118 1.594l-.017.207zm6.684-6.111v10.333h1.363V415.7c.548.812 1.561 1.3 2.69 1.3 2.177 0 3.721-1.433 3.721-3.603s-1.461-3.691-3.555-3.691c-1.179 0-2.258.591-2.79 1.462v-4.65zm3.854 9.344c-1.279 0-2.491-.929-2.491-2.48 0-1.549 1.229-2.524 2.491-2.524 1.346 0 2.492.96 2.492 2.524 0 1.58-1.146 2.48-2.492 2.48m4.119-.842c.474 1.196 1.71 1.979 3.522 1.979s3.217-.916 3.217-2.215c0-1.166-.931-1.86-2.811-2.081-1.575-.192-2.15-.458-2.15-1.063 0-.546.677-.901 1.557-.901.864 0 1.49.355 1.761 1.063l1.135-.546c-.492-.989-1.388-1.55-2.896-1.55-.829 0-1.523.177-2.082.546q-.813.533-.813 1.373c0 1.107.914 1.772 2.76 2.008 1.625.191 2.116.561 2.116 1.225 0 .606-.66 1.019-1.727 1.019-1.219 0-1.93-.413-2.386-1.402zm7.521-5.166v6.998h2.036v-6.998zm-.119-1.299h2.275v-1.491h-2.275zm4.265 6.216c0 1.402.931 2.229 2.625 2.229 1.372 0 2.286-.694 2.506-1.949l-1.355-.266c-.135.768-.525 1.093-1.202 1.093-.626 0-1.1-.384-1.1-1.049v-3.897h2.878v-1.078h-2.878v-2.169h-1.474v2.169h-1.593v1.078h1.593z"/><path fill="#000" d="M229.037 414.312c-.317 1.004-1.067 1.565-2.285 1.565-1.401 0-2.502-.812-2.519-2.333h5.721c.067-.265.101-.546.101-.856 0-.915-.318-1.639-.968-2.17-.651-.546-1.501-.812-2.552-.812-2.252 0-3.769 1.594-3.769 3.602 0 2.259 1.668 3.691 3.986 3.691 1.818 0 3.002-.841 3.536-2.259zm-4.804-1.683c.151-1.107 1.067-1.801 2.285-1.801 1.202 0 2.118.59 2.118 1.594l-.016.207zM159.758 10.63c1.877 0 3.09-.856 3.903-2.465v2.317h1.168V5.138h-6.342v1.27h4.686c-.177 1.299-1.286 2.938-3.252 2.938-2.291 0-3.814-1.654-3.814-4.03 0-2.407 1.686-4.03 3.74-4.03 1.937 0 3.119.9 3.563 2.716l1.33-.443C164.208 1.374 162.508 0 159.832 0c-2.882-.059-5.188 2.347-5.144 5.315-.044 3.055 2.188 5.358 5.07 5.314m11.709-7.145v3.72c0 1.403-.843 2.303-1.952 2.303-1.02 0-1.581-.605-1.581-1.83V3.484h-1.272v4.488c0 1.727.975 2.657 2.513 2.657 1.02 0 1.818-.516 2.292-1.328v1.18h1.286V3.485zm3.252.002v6.997h1.271V6.202c0-1.137.592-1.713 1.361-1.713.768 0 1.285.502 1.285 1.462v4.532h1.286V6.128c0-1.078.607-1.639 1.376-1.639.753 0 1.285.532 1.285 1.403v4.59h1.272V5.627c0-1.476-.829-2.288-2.129-2.288-.887 0-1.686.502-2.055 1.388-.237-.9-.946-1.388-1.788-1.388-.932 0-1.553.443-1.893 1.137v-.99zm11.117 0v6.997h1.271V6.025c0-.945.518-1.565 1.301-1.565.695 0 1.124.398 1.124 1.048 0 .133-.015.31-.045.517h1.242c.059-.237.089-.502.089-.783 0-1.063-.783-1.904-1.922-1.904-.843 0-1.478.413-1.789 1.166V3.486zm5.951 3.498c0 2.067 1.434 3.646 3.548 3.646 2.099 0 3.562-1.58 3.562-3.646 0-2.067-1.433-3.646-3.562-3.646-2.114 0-3.548 1.58-3.548 3.646m5.794 0c0 1.476-.93 2.495-2.246 2.495-1.301 0-2.247-1.033-2.247-2.495 0-1.461.946-2.495 2.247-2.495.665 0 1.197.237 1.611.709.429.458.635 1.063.635 1.786m2.522 1.506c0 .65.222 1.166.666 1.565.458.384 1.004.575 1.655.575 1.123 0 2.055-.501 2.409-1.254v1.107h1.227V6.098c0-1.727-1.078-2.76-2.986-2.76-1.641 0-2.734.856-3.015 2.2l1.153.324c.177-.9.857-1.446 1.862-1.446 1.05 0 1.759.56 1.759 1.58v.722l-.635-.177a5 5 0 0 0-1.493-.221c-1.523 0-2.602.738-2.602 2.17m4.73-.62c0 1.019-.812 1.639-1.981 1.639-.931 0-1.433-.443-1.433-1.093 0-.723.561-1.107 1.463-1.107.37 0 .813.074 1.301.221l.65.192zm2.772-.841c0 2.14 1.346 3.602 3.282 3.602a2.74 2.74 0 0 0 2.424-1.403v1.255h1.227V.149h-1.285v4.606c-.459-.87-1.316-1.417-2.395-1.417-1.907 0-3.253 1.52-3.253 3.69m5.706-.015c0 1.565-1.123 2.48-2.217 2.48-1.153 0-2.217-.9-2.217-2.48 0-1.565 1.079-2.524 2.217-2.524 1.094 0 2.217.974 2.217 2.524m8.316-.782h3.209c2.083 0 3.355-1.402 3.355-3.04 0-1.683-1.212-3.042-3.355-3.042h-4.568v10.334h1.359zm0-1.284V1.434h3.09c1.227 0 2.04.635 2.04 1.756 0 1.122-.813 1.757-2.04 1.757zm8.137-1.461v6.997h1.271V6.025c0-.945.518-1.565 1.301-1.565.695 0 1.124.398 1.124 1.048 0 .133-.015.31-.045.517h1.242c.059-.237.088-.502.088-.783 0-1.063-.783-1.904-1.921-1.904-.842 0-1.478.413-1.789 1.166V3.486zm5.951 3.498c0 2.067 1.434 3.646 3.547 3.646 2.1 0 3.563-1.58 3.563-3.646 0-2.067-1.434-3.646-3.563-3.646-2.113 0-3.547 1.58-3.547 3.646m5.795 0c0 1.476-.932 2.495-2.248 2.495-1.3 0-2.246-1.033-2.246-2.495 0-1.461.946-2.495 2.246-2.495.666 0 1.198.237 1.612.709.429.458.636 1.063.636 1.786m3.516 3.499h1.271v-5.92h1.981V3.487h-1.981V2.453q0-1.373 1.109-1.373c.694 0 1.123.383 1.123 1.048l-.014.265h1.196c.016-.088.016-.191.016-.324 0-1.226-.784-2.067-2.321-2.067-1.523 0-2.38.96-2.38 2.421v1.063h-1.567v1.078h1.567zm5.366-6.998v6.998h1.272V3.485zm-.074-1.299h1.42V.696h-1.42zm3.323 8.297h1.271V.149h-1.271zm8.376-2.539c-.281 1.004-.946 1.565-2.025 1.565-1.242 0-2.217-.812-2.232-2.333h5.071c.058-.266.088-.546.088-.856 0-.915-.281-1.639-.857-2.17-.577-.546-1.33-.812-2.262-.812-1.996 0-3.341 1.594-3.341 3.602 0 2.259 1.478 3.69 3.533 3.69 1.612 0 2.661-.841 3.134-2.258zM257.76 6.26c.133-1.107.946-1.801 2.025-1.801 1.064 0 1.877.59 1.877 1.594l-.014.207zM138.04 412.616a.5.5 0 0 0 .159-.705.54.54 0 0 0-.729-.153zm-24.358-8.568a.53.53 0 0 0-.646.36l-1.236 4.427a.507.507 0 0 0 .371.624.53.53 0 0 0 .646-.359l1.099-3.935 4.072 1.062a.53.53 0 0 0 .646-.36.51.51 0 0 0-.371-.625zm22.922 8.216a.5.5 0 0 0-.197.694.535.535 0 0 0 .718.191zm-1.391 1.811a.5.5 0 0 0 .272-.67.533.533 0 0 0-.693-.265zm-2.318-.257a.506.506 0 0 0-.351.635.53.53 0 0 0 .658.339zm-1.786 1.452a.51.51 0 0 0 .432-.587.525.525 0 0 0-.607-.417zm-2.172-.816a.516.516 0 0 0-.513.521.52.52 0 0 0 .54.497zm-2.133.911a.523.523 0 0 0 .59-.439.51.51 0 0 0-.455-.571zm-1.821-1.406a.53.53 0 0 0-.654.346.507.507 0 0 0 .358.632zm-2.32.24a.536.536 0 0 0 .701-.247.503.503 0 0 0-.255-.677zm-1.312-1.865a.537.537 0 0 0-.728.152.5.5 0 0 0 .156.704zm-2.3-.376a.54.54 0 0 0 .743-.065.5.5 0 0 0-.068-.718zm-.809-2.113a.54.54 0 0 0-.746-.009.5.5 0 0 0-.009.721zm-2.17-.821a.54.54 0 0 0 .742.072.497.497 0 0 0 .074-.717zm-.422-2.225a.537.537 0 0 0-.734-.124.5.5 0 0 0-.129.709zm-2.018-1.119c.152.24.476.315.725.168a.5.5 0 0 0 .174-.701zm23.838 6.078q-.405.251-.866.506l.521.885q.487-.268.915-.533zm-2.678 1.382c-.596.251-1.23.481-1.897.678l.307.974a19 19 0 0 0 2.011-.717zm-3.858 1.126a15 15 0 0 1-1.997.188l.027 1.018a16 16 0 0 0 2.145-.202zm-3.995.089a13 13 0 0 1-1.956-.396l-.296.978q1.073.301 2.117.428zm-3.83-1.08a15 15 0 0 1-1.758-.941l-.572.856q.943.586 1.884 1.009zm-3.383-2.1a19 19 0 0 1-1.484-1.33l-.755.712q.778.769 1.564 1.401zm-2.838-2.796a27 27 0 0 1-1.238-1.58l-.863.585q.637.875 1.285 1.64zm-2.357-3.232a31 31 0 0 1-.529-.861l-.915.508q.271.454.545.886zM276.706 4.487a.51.51 0 1 0 .331.963zm19.783 12.74c.226.17.545.125.716-.099l2.768-3.658a.51.51 0 0 0-.814-.614l-2.461 3.251-3.256-2.457a.509.509 0 1 0-.615.813zM277.954 5.156a.51.51 0 1 0-.294-.976zm1.657-1.477a.51.51 0 1 0 .214.996zm2.115.674a.51.51 0 0 0-.125-1.011zm1.895-1.157a.51.51 0 1 0 .02 1.02zm1.926 1.098a.51.51 0 0 0 .107-1.014zm2.121-.655a.51.51 0 0 0-.254.987zm1.524 1.605a.51.51 0 0 0 .418-.929zm2.216.086a.51.51 0 1 0-.583.836zm.848 2.043a.51.51 0 0 0 .727-.715zm2.038.865a.511.511 0 0 0-.837.583zm.13 2.212a.51.51 0 0 0 .912-.457zm1.711 1.41a.51.51 0 0 0-.959.346zm-.396 2.183a.51.51 0 0 0 .989-.253zm1.407 1.708a.51.51 0 0 0-1.005.175zm-20.109-10.3q.437-.151.917-.295l-.294-.976q-.499.15-.954.307zm2.788-.776a22 22 0 0 1 1.901-.322l-.125-1.011c-.686.084-1.353.2-1.99.337zm3.816-.46q.95-.02 1.906.079l.107-1.014a17 17 0 0 0-2.033-.084zm3.773.41q.91.232 1.778.62l.418-.93a12 12 0 0 0-1.942-.676zm3.411 1.541c.497.346.977.746 1.431 1.207l.727-.715a11 11 0 0 0-1.575-1.328zm2.632 2.655q.517.737.967 1.629l.912-.457a14 14 0 0 0-1.042-1.755zm1.719 3.385q.31.858.563 1.837l.989-.253a21 21 0 0 0-.593-1.93zm.965 3.72q.081.47.151.965l1.011-.14q-.072-.512-.157-1z"/><g filter="url(#c)"><path fill="#000" d="M274.898 227.804H52.333c-2.277 0-4.122 1.836-4.122 4.1v151.725c0 2.264 1.845 4.1 4.122 4.1h222.565c2.276 0 4.121-1.836 4.121-4.1V231.904c0-2.264-1.845-4.1-4.121-4.1"/><path stroke="#000" stroke-width="2" d="M274.898 227.804H52.333c-2.277 0-4.122 1.836-4.122 4.1v151.725c0 2.264 1.845 4.1 4.122 4.1h222.565c2.276 0 4.121-1.836 4.121-4.1V231.904c0-2.264-1.845-4.1-4.121-4.1Z"/></g><path stroke="#fff" d="M56.291 251.701h12.914m-12.914 3.763h12.914m-12.914 3.764h12.914"/><path fill="#fff" stroke="#000" stroke-width="2" d="M48 231.557c0-2.265 1.845-4.101 4.122-4.101h222.481c2.277 0 4.122 1.836 4.122 4.101v13.962H48z"/><path fill="#FFC900" d="M65.353 238.401c1.39 0 2.516-.934 2.516-2.086s-1.126-2.086-2.516-2.086-2.517.934-2.517 2.086 1.127 2.086 2.517 2.086"/><path fill="#E2442F" d="M58.808 238.401c1.39 0 2.516-.934 2.516-2.086s-1.126-2.086-2.516-2.086-2.517.934-2.517 2.086 1.127 2.086 2.517 2.086"/><path fill="#23A094" d="M71.622 238.401c1.39 0 2.517-.934 2.517-2.086s-1.127-2.086-2.517-2.086-2.516.934-2.516 2.086 1.126 2.086 2.516 2.086"/><path fill="#fff" stroke="#000" stroke-width="1.09" d="M215.447 264.709H111.784c-1.547 0-2.802 1.243-2.802 2.776v90.218c0 1.533 1.255 2.776 2.802 2.776h103.663c1.547 0 2.801-1.243 2.801-2.776v-90.218c0-1.533-1.254-2.776-2.801-2.776Z"/><path fill="#90A8ED" stroke="#000" stroke-width="1.09" d="M108.982 267.485c0-1.533 1.255-2.776 2.802-2.776h103.658c1.548 0 2.802 1.243 2.802 2.776v44.792H108.982z"/><path fill="#000" stroke="#000" d="M158.96 320.067h-40.722c-1.273 0-2.304 1.011-2.304 2.258s1.031 2.258 2.304 2.258h40.722c1.273 0 2.305-1.011 2.305-2.258s-1.032-2.258-2.305-2.258Z"/><path fill="#D6D3D1" d="M166.801 329.785h-49.454a1.4 1.4 0 0 0-1.413 1.388 1.4 1.4 0 0 0 1.413 1.388h49.454a1.4 1.4 0 0 0 1.413-1.388 1.4 1.4 0 0 0-1.413-1.388m37.22-.187h-11.98c-.882 0-1.598.674-1.598 1.506 0 .831.716 1.505 1.598 1.505h11.98c.882 0 1.597-.674 1.597-1.505 0-.832-.715-1.506-1.597-1.506m-41.391 11.291h-45.281c-.782 0-1.415.621-1.415 1.388s.633 1.388 1.415 1.388h45.281c.781 0 1.415-.622 1.415-1.388 0-.767-.634-1.388-1.415-1.388m-5.563-5.269h-39.715c-.783 0-1.418.622-1.418 1.388 0 .767.635 1.388 1.418 1.388h39.715c.783 0 1.418-.621 1.418-1.388s-.635-1.388-1.418-1.388m43.915 0h-8.917c-.896 0-1.622.674-1.622 1.505 0 .832.726 1.506 1.622 1.506h8.917c.896 0 1.621-.674 1.621-1.506 0-.831-.725-1.505-1.621-1.505m-41.134 10.536H117.35c-.782 0-1.416.622-1.416 1.388 0 .767.634 1.388 1.416 1.388h42.498c.783 0 1.417-.621 1.417-1.388s-.634-1.388-1.417-1.388"/><path fill="#D6D3D1" stroke="#000" stroke-width="1.09" d="M108.982 267.485c0-1.533 1.255-2.776 2.802-2.776h103.658c1.548 0 2.802 1.243 2.802 2.776v44.792H108.982z"/><mask id="d" width="111" height="49" x="108" y="264" maskUnits="userSpaceOnUse" style="mask-type:alpha"><path fill="#D6D3D1" stroke="#000" stroke-width="1.09" d="M108.982 267.485c0-1.533 1.255-2.776 2.802-2.776h103.658c1.548 0 2.802 1.243 2.802 2.776v44.792H108.982z"/></mask><g mask="url(#d)"><path fill="#fff" stroke="#000" d="M128.797 306.223s16.064-6.19 31.822-1.234c17.609 5.538 31.824 1.01 31.824 1.01v-34.236s-14.213 4.519-31.818-1.014c-15.762-4.955-31.828 1.266-31.828 1.266z"/><path fill="#000" d="m137.91 280.94.023-2.851-6.404-.052-.023 2.851c.283-.029 1.037-.023 1.79-.016-.051 6.265-.168 16.792-.263 20.677l3.014.024c-.031-3.917.023-14.412.168-20.678.691.006 1.476.012 1.695.045m3.911-8.056-3.014-.024c-.009 4.95-.194 12.249-.234 17.105-.007.909.016 1.912.164 3.104.266 2.07 1.384 3.426 3.488 3.444 2.573.021 3.78-1.568 3.817-6.173.039-4.668.074-12.815.174-17.419l-3.014-.025c.056 4.732.01 14.13-.092 18.986-.041 1.222-.389 1.533-.829 1.529-.376-.003-.687-.319-.742-1.385-.026-.689-.023-1.065-.046-1.942.002-4.199.218-11.467.328-17.2m11.571 2.877.023-2.851-6.404-.052-.023 2.851c.283-.029 1.036-.023 1.789-.017-.051 6.266-.168 16.793-.262 20.677l3.014.025c-.032-3.917.022-14.413.168-20.678.691.005 1.475.012 1.695.045m4.088.27c-3.045-.024-4.337 4.414-4.398 11.902-.062 7.644 1.22 12.104 4.202 12.128s4.337-4.414 4.399-12.058c.062-7.582-1.189-11.948-4.203-11.972m-.174 21.398c-.565-.004-1.137-3.017-1.085-9.471.052-6.423.671-9.174 1.237-9.17.565.005 1.138 2.766 1.087 9.189-.054 6.454-.674 9.457-1.239 9.452m10.96 4.595 3.078-.163c-.727-3.171-2.117-9.824-2.961-14.092 1.136-.774 2.025-2.02 2.041-3.9.03-3.728-2.655-5.536-7.615-5.671.056 8.649-.024 18.424-.192 23.592l3.014.024c-.009-2.788.001-7.801.074-12.971l.095-.03c.996 4.865 2.02 10.262 2.466 13.211m-.793-18.148c-.009 1.034-.707 1.874-1.745 2.242l.036-4.543c1.254.355 1.719 1.016 1.709 2.301m4.318-5.442c.02 5.264-.112 17.576-.191 23.497l3.013.025c-.014-5.923.086-18.235.191-23.498zm8.68 26.601 3.015.024c-.61-6.146-1.7-18.844-2.007-23.515l-4.112-.033c-.691 7.827-1.614 17.063-2.357 23.48l2.982.024c.147-2.693.366-6.389.648-10.178l1.412.012c.217 4.294.373 8.212.419 10.186m-1.714-13.048c.212-2.85.422-5.605.629-7.828l.094.001c.14 2.131.305 4.953.438 7.836zm10.526 6.986c-.848.056-1.633.081-2.324.076.029-7.426.075-16.888.201-20.835l-3.076-.025c.029 4.199-.024 18.361-.191 23.498 2.009-.047 3.893 0 5.368.043z"/></g><path fill="#FF90E8" d="M208.534 319.062h-15.731c-1.303 0-2.36 1.01-2.36 2.257s1.057 2.258 2.36 2.258h15.731c1.303 0 2.36-1.011 2.36-2.258s-1.057-2.257-2.36-2.257"/><path fill="#fff" stroke="#000" stroke-width="2.179" d="M108.801 32.109a4.103 4.103 0 0 1 4.106-4.101h221.657a4.103 4.103 0 0 1 4.106 4.1v13.963H108.801z"/><path fill="#FFC900" d="M125.728 38.954a2.087 2.087 0 1 0 0-4.173 2.088 2.088 0 1 0 0 4.173"/><path fill="#E2442F" d="M119.181 38.954a2.087 2.087 0 1 0 0-4.173 2.088 2.088 0 1 0 0 4.173"/><path fill="#23A094" d="M131.993 38.954c1.154 0 2.09-.934 2.09-2.086a2.09 2.09 0 0 0-2.09-2.087 2.09 2.09 0 0 0-2.089 2.087c0 1.152.936 2.086 2.089 2.086"/><path fill="#000" d="M35.57 140.414a3.7 3.7 0 0 1-3.695-3.69 3.7 3.7 0 0 1 3.695-3.69 3.7 3.7 0 0 1 3.695 3.69v3.69z"/><g filter="url(#e)"><path fill="#FF7051" stroke="#000" stroke-width="2.179" d="M65.96 113.181H14.361c-6.804 0-12.319 5.507-12.319 12.302v49.972c0 6.795 5.515 12.302 12.319 12.302h51.597c6.804 0 12.32-5.507 12.32-12.302v-49.972c0-6.795-5.516-12.302-12.32-12.302Z"/><path fill="#000" d="M30.01 155.231a3.7 3.7 0 0 1-3.696 3.69 3.7 3.7 0 0 1-3.695-3.69c0-2.03 1.662-3.69 3.695-3.69h3.695zm1.861 0c0-2.03 1.662-3.69 3.695-3.69a3.7 3.7 0 0 1 3.695 3.69v9.24c0 2.03-1.661 3.69-3.695 3.69a3.7 3.7 0 0 1-3.695-3.69zm3.695-12.958a3.7 3.7 0 0 1 3.695 3.689 3.7 3.7 0 0 1-3.695 3.69h-9.252a3.7 3.7 0 0 1-3.695-3.69 3.7 3.7 0 0 1 3.695-3.689zm14.838 3.69a3.7 3.7 0 0 1 3.695-3.691 3.7 3.7 0 0 1 3.696 3.691c0 2.03-1.661 3.69-3.696 3.69h-3.695zm-1.86 0a3.7 3.7 0 0 1-3.694 3.69 3.7 3.7 0 0 1-3.696-3.69v-9.239a3.7 3.7 0 0 1 3.695-3.69 3.7 3.7 0 0 1 3.695 3.69zm-3.696 14.817a3.7 3.7 0 0 1 3.695 3.69 3.7 3.7 0 0 1-3.695 3.691 3.7 3.7 0 0 1-3.696-3.691v-3.69zm.002-1.859a3.7 3.7 0 0 1-3.696-3.69c0-2.03 1.661-3.69 3.695-3.69h9.253a3.7 3.7 0 0 1 3.694 3.69 3.7 3.7 0 0 1-3.694 3.69z"/></g><g filter="url(#f)"><path fill="#90A8ED" stroke="#000" stroke-width="2.179" d="M380.11 339.127h-51.598c-6.803 0-12.319 5.508-12.319 12.302v49.973c0 6.794 5.516 12.302 12.319 12.302h51.598c6.803 0 12.319-5.508 12.319-12.302v-49.973c0-6.794-5.516-12.302-12.319-12.302Z"/><path fill="#000" d="M364.805 370.894s-3.115 10.014-3.369 10.841c-.092-.85-2.376-18.824-2.376-18.824-5.306 0-8.144 3.874-9.643 7.96 0 0-3.784 10.037-4.107 10.888-.023-.78-.577-10.771-.577-10.771-.322-5.006-4.798-8.053-8.421-8.053l4.384 27.231c5.56-.023 8.559-3.873 10.128-7.959 0 0 3.345-8.857 3.484-9.258.023.378 2.399 17.217 2.399 17.217 5.583 0 8.582-3.613 10.197-7.557l7.821-19.674c-5.514 0-8.421 3.85-9.92 7.959"/></g><g filter="url(#g)"><path fill="#23A094" stroke="#000" stroke-width="2.179" d="M65.96 7.384H14.361c-6.804 0-12.319 5.508-12.319 12.302v49.973c0 6.794 5.515 12.302 12.319 12.302h51.597c6.804 0 12.32-5.508 12.32-12.302V19.686c0-6.794-5.516-12.302-12.32-12.302Z"/><path fill="#000" d="M40.51 64.956c10.98 0 19.88-8.888 19.88-19.852S51.49 25.25 40.51 25.25s-19.88 8.888-19.88 19.853c0 10.964 8.901 19.852 19.88 19.852"/><path fill="#23A094" d="M40.389 56.16c3.627 0 6.033-1.1 8.15-2.871.353-.306.643-.764.643-1.344 0-.947-.867-1.74-1.862-1.74-.481 0-.898.182-1.187.427-1.637 1.313-3.241 2.046-5.616 2.046-4.3 0-7.413-3.39-7.413-7.574v-.061c0-4.184 3.145-7.544 7.413-7.544 2.15 0 3.819.733 5.36 1.924a2 2 0 0 0 1.186.366c1.092 0 1.958-.794 1.958-1.832a1.85 1.85 0 0 0-.77-1.496c-1.957-1.436-4.235-2.413-7.702-2.413-6.803 0-11.584 4.978-11.584 11.056v.06c0 6.14 4.878 10.996 11.424 10.996"/></g><g filter="url(#h)"><path fill="#FFC900" stroke="#000" stroke-width="2.179" d="M379.289 227.59h-51.597c-6.804 0-12.319 5.508-12.319 12.302v49.973c0 6.794 5.515 12.302 12.319 12.302h51.597c6.804 0 12.319-5.508 12.319-12.302v-49.973c0-6.794-5.515-12.302-12.319-12.302Z"/><path fill="#000" d="M357.264 264.875c0 1.14-.206 2.269-.608 3.336a9.5 9.5 0 0 1-3.341.607h-.014a9.5 9.5 0 0 1-3.341-.607 9.5 9.5 0 0 1-.609-3.337v-.014a9.4 9.4 0 0 1 .607-3.336 9.5 9.5 0 0 1 3.342-.608h.013a9.5 9.5 0 0 1 3.341.608 9.5 9.5 0 0 1 .608 3.336v.014h.001zm11.647-2.641h-9.236l6.53-6.521a15.9 15.9 0 0 0-3.73-3.724l-6.531 6.521v-9.223a16 16 0 0 0-2.628-.219h-.016c-.896 0-1.774.076-2.629.219v9.223l-6.532-6.521a16 16 0 0 0-2.018 1.706l-.003.003a16 16 0 0 0-1.707 2.015l6.532 6.521h-9.237s-.22 1.733-.22 2.628v.011c0 .896.076 1.774.22 2.628h9.237l-6.532 6.52a15.9 15.9 0 0 0 3.729 3.725l6.532-6.521v9.224q1.282.216 2.625.219h.022c.88-.001 1.758-.074 2.625-.219v-9.224l6.532 6.522a16 16 0 0 0 2.02-1.706h.001a16 16 0 0 0 1.706-2.017l-6.529-6.522h9.237c.143-.854.219-1.729.219-2.623v-.023q0-1.32-.219-2.621z"/></g><defs><filter id="a" width="236.133" height="166.105" x="107.528" y="26.918" color-interpolation-filters="sRGB" filterUnits="userSpaceOnUse"><feFlood flood-opacity="0" result="BackgroundImageFix"/><feColorMatrix in="SourceAlpha" result="hardAlpha" values="0 0 0 0 0 0 0 0 0 0 0 0 0 0 0 0 0 0 127 0"/><feOffset dx="4" dy="4"/><feComposite in2="hardAlpha" operator="out"/><feColorMatrix values="0 0 0 0 0 0 0 0 0 0 0 0 0 0 0 0 0 0 1 0"/><feBlend in2="BackgroundImageFix" result="effect1_dropShadow_804_8037"/><feBlend in="SourceGraphic" in2="effect1_dropShadow_804_8037" result="shape"/></filter><filter id="c" width="236.808" height="165.926" x="47.211" y="226.804" color-interpolation-filters="sRGB" filterUnits="userSpaceOnUse"><feFlood flood-opacity="0" result="BackgroundImageFix"/><feColorMatrix in="SourceAlpha" result="hardAlpha" values="0 0 0 0 0 0 0 0 0 0 0 0 0 0 0 0 0 0 127 0"/><feOffset dx="4" dy="4"/><feComposite in2="hardAlpha" operator="out"/><feColorMatrix values="0 0 0 0 0 0 0 0 0 0 0 0 0 0 0 0 0 0 1 0"/><feBlend in2="BackgroundImageFix" result="effect1_dropShadow_804_8037"/><feBlend in="SourceGraphic" in2="effect1_dropShadow_804_8037" result="shape"/></filter><filter id="e" width="82.415" height="80.756" x=".953" y="112.091" color-interpolation-filters="sRGB" filterUnits="userSpaceOnUse"><feFlood flood-opacity="0" result="BackgroundImageFix"/><feColorMatrix in="SourceAlpha" result="hardAlpha" values="0 0 0 0 0 0 0 0 0 0 0 0 0 0 0 0 0 0 127 0"/><feOffset dx="4" dy="4"/><feComposite in2="hardAlpha" operator="out"/><feColorMatrix values="0 0 0 0 0 0 0 0 0 0 0 0 0 0 0 0 0 0 1 0"/><feBlend in2="BackgroundImageFix" result="effect1_dropShadow_804_8037"/><feBlend in="SourceGraphic" in2="effect1_dropShadow_804_8037" result="shape"/></filter><filter id="f" width="82.415" height="80.756" x="315.104" y="338.037" color-interpolation-filters="sRGB" filterUnits="userSpaceOnUse"><feFlood flood-opacity="0" result="BackgroundImageFix"/><feColorMatrix in="SourceAlpha" result="hardAlpha" values="0 0 0 0 0 0 0 0 0 0 0 0 0 0 0 0 0 0 127 0"/><feOffset dx="4" dy="4"/><feComposite in2="hardAlpha" operator="out"/><feColorMatrix values="0 0 0 0 0 0 0 0 0 0 0 0 0 0 0 0 0 0 1 0"/><feBlend in2="BackgroundImageFix" result="effect1_dropShadow_804_8037"/><feBlend in="SourceGraphic" in2="effect1_dropShadow_804_8037" result="shape"/></filter><filter id="g" width="82.415" height="80.756" x=".953" y="6.294" color-interpolation-filters="sRGB" filterUnits="userSpaceOnUse"><feFlood flood-opacity="0" result="BackgroundImageFix"/><feColorMatrix in="SourceAlpha" result="hardAlpha" values="0 0 0 0 0 0 0 0 0 0 0 0 0 0 0 0 0 0 127 0"/><feOffset dx="4" dy="4"/><feComposite in2="hardAlpha" operator="out"/><feColorMatrix values="0 0 0 0 0 0 0 0 0 0 0 0 0 0 0 0 0 0 1 0"/><feBlend in2="BackgroundImageFix" result="effect1_dropShadow_804_8037"/><feBlend in="SourceGraphic" in2="effect1_dropShadow_804_8037" result="shape"/></filter><filter id="h" width="82.415" height="80.756" x="314.283" y="226.5" color-interpolation-filters="sRGB" filterUnits="userSpaceOnUse"><feFlood flood-opacity="0" result="BackgroundImageFix"/><feColorMatrix in="SourceAlpha" result="hardAlpha" values="0 0 0 0 0 0 0 0 0 0 0 0 0 0 0 0 0 0 127 0"/><feOffset dx="4" dy="4"/><feComposite in2="hardAlpha" operator="out"/><feColorMatrix values="0 0 0 0 0 0 0 0 0 0 0 0 0 0 0 0 0 0 1 0"/><feBlend in2="BackgroundImageFix" result="effect1_dropShadow_804_8037"/><feBlend in="SourceGraphic" in2="effect1_dropShadow_804_8037" result="shape"/></filter></defs></svg>