<svg xmlns="http://www.w3.org/2000/svg" width="484" height="607" fill="none"><path fill="#F1F333" stroke="#000" stroke-miterlimit="10" stroke-width="2.009" d="M317.869 487.833c3.126-7.894 2.211-16.874-2.508-24.635-3.945-6.481-10.281-11.69-17.84-14.676a38.4 38.4 0 0 0-11.575-2.617l-.807-2.281a23.1 23.1 0 0 0-5.152-8.309 22.9 22.9 0 0 0-8.116-5.411l-45.579-17.84a15.13 15.13 0 0 0-11.633.261 15.4 15.4 0 0 0-8.097 8.453l-16.185 41.214a15.36 15.36 0 0 0 .185 11.696 15.1 15.1 0 0 0 8.357 8.086l46.06 18.033a21.8 21.8 0 0 0 9.141 1.469 22 22 0 0 0 8.956-2.448l3.361-1.745a38.3 38.3 0 0 0 9.662 5.522c7.558 2.986 15.755 3.514 23.065 1.474 8.765-2.416 15.584-8.338 18.705-16.246Z"/><path stroke="#000" stroke-linecap="round" stroke-linejoin="round" stroke-width="2.009" d="M269.14 472.363c.062-1.15.31-2.283.733-3.356 2.803-7.079 12.658-9.816 22.012-6.123s14.66 12.405 11.866 19.503-12.654 9.814-22.014 6.118c-5.075-2.006-8.958-5.483-11.01-9.402"/><path stroke="#000" stroke-linecap="round" stroke-linejoin="round" stroke-width="2.009" d="m204.524 467.497 16.205-41.195 45.581 17.844a7.84 7.84 0 0 1 4.536 4.694l7.302 20.541a4.62 4.62 0 0 1-2.219 5.622l-19.73 10.241a6.76 6.76 0 0 1-5.596.3z"/><path fill="#000" stroke="#000" stroke-miterlimit="10" stroke-width="2.009" d="M217.269 457.147q.16.337.36.652a2.78 2.78 0 0 0 1.709 1.177 1.35 1.35 0 0 0 1.423-.411 3 3 0 0 0 .644-1.395 34 34 0 0 0 .514-4.286c.161-2.064.283-4.139.438-6.206a28 28 0 0 1 .473-3.469 4.4 4.4 0 0 1 .887-1.985 2.72 2.72 0 0 1 2.432-.935c.345.03.266.077.381-.169.355-.833.698-1.679 1.046-2.516l.065-.156 2.312.955-.063.15c-.344.869-.687 1.73-1.038 2.596-.03.086-.002.123.078.182a4 4 0 0 1 1.358 1.272c-.563.415-1.135.834-1.683 1.232-.219-.226-.41-.463-.635-.664a2.3 2.3 0 0 0-1.16-.531 1.11 1.11 0 0 0-1.113.436 2.8 2.8 0 0 0-.482 1.295 55 55 0 0 0-.55 5.69c-.137 2.004-.26 4.002-.431 6.004a19 19 0 0 1-.417 2.549 4 4 0 0 1-1.298 2.239 3.05 3.05 0 0 1-2.313.672c-.165-.011-.244.024-.295.163-.341.889-.701 1.775-1.055 2.687l-.106.253-2.334-.968 1.228-2.964c-.276-.217-.547-.408-.821-.62a5.6 5.6 0 0 1-1.097-1.259.1.1 0 0 1-.022-.051.1.1 0 0 1 .019-.058c.496-.569 1.022-1.057 1.546-1.561Zm14.759 5.812c.105.242.202.466.36.652a2.8 2.8 0 0 0 1.712 1.17 1.34 1.34 0 0 0 1.42-.405c.335-.401.558-.882.648-1.397.258-1.417.429-2.848.514-4.285.159-2.069.284-4.14.438-6.207q.125-1.749.474-3.468a4.4 4.4 0 0 1 .885-1.99 2.71 2.71 0 0 1 2.434-.931c.345.031.265.077.381-.168l1.045-2.516.066-.157 2.312.956a1 1 0 0 0-.063.15l-1.038 2.596c-.035.087-.003.123.078.182a4 4 0 0 1 1.358 1.271c-.568.417-1.137.83-1.683 1.232-.22-.225-.411-.463-.642-.666a2.3 2.3 0 0 0-1.154-.529 1.1 1.1 0 0 0-1.113.436 2.8 2.8 0 0 0-.483 1.291 54 54 0 0 0-.549 5.695c-.137 2.004-.26 4.001-.431 6.003a20 20 0 0 1-.421 2.552 3.98 3.98 0 0 1-1.293 2.237 3.1 3.1 0 0 1-1.089.574 3 3 0 0 1-1.224.097c-.165-.01-.244.025-.295.164-.346.891-.701 1.775-1.055 2.687l-.102.25-2.334-.968 1.229-2.963c-.277-.217-.554-.411-.822-.62a5.8 5.8 0 0 1-1.097-1.259l-.024-.056a.14.14 0 0 1 .016-.052c.521-.552 1.029-1.043 1.542-1.558Zm14.915 5.904c.104.243.201.467.359.652a2.8 2.8 0 0 0 1.712 1.171 1.33 1.33 0 0 0 1.42-.405c.336-.4.56-.883.649-1.397a36 36 0 0 0 .516-4.281c.159-2.069.279-4.138.438-6.207q.123-1.749.473-3.468a4.4 4.4 0 0 1 .885-1.99 2.7 2.7 0 0 1 1.099-.776 2.7 2.7 0 0 1 1.33-.152c.35.028.271.074.376-.194l1.046-2.516.065-.157 2.312.956a1 1 0 0 0-.063.149l-1.038 2.597c-.036.082-.002.123.076.177a4.04 4.04 0 0 1 1.36 1.276c-.568.417-1.137.83-1.683 1.232-.219-.225-.411-.463-.642-.666a2.26 2.26 0 0 0-1.153-.529 1.09 1.09 0 0 0-1.113.436 2.8 2.8 0 0 0-.484 1.291 55 55 0 0 0-.548 5.694c-.137 2.004-.26 4.002-.431 6.004a20 20 0 0 1-.422 2.551 4 4 0 0 1-1.293 2.237 3.05 3.05 0 0 1-2.313.672c-.17-.008-.244.024-.295.163-.346.892-.703 1.771-1.055 2.687l-.104.246-2.339-.966 1.236-2.961c-.276-.216-.554-.41-.821-.62a5.8 5.8 0 0 1-1.098-1.258.13.13 0 0 1-.024-.056.14.14 0 0 1 .017-.052 35 35 0 0 1 1.55-1.54Z"/><path stroke="#000" stroke-linecap="round" stroke-linejoin="round" stroke-width="2.009" d="M266.37 470.904a3.717 3.717 0 0 0 4.925 1.928 3.793 3.793 0 0 0 1.949-4.964 3.72 3.72 0 0 0-4.925-1.928 3.79 3.79 0 0 0-1.949 4.964"/><g filter="url(#a)"><rect width="378.079" height="280.772" x="64.306" y="34.728" fill="#fff" rx="17.496"/><rect width="378.079" height="280.772" x="64.306" y="34.728" stroke="#000" stroke-width="2.009" rx="17.496"/></g><path stroke="#000" stroke-width="2.009" d="M63.969 57.599h378.19m-134 .689v257.013"/><ellipse cx="83.319" cy="46.912" fill="#FFC900" rx="2.396" ry="2.416"/><ellipse cx="75.811" cy="46.912" fill="#DC341E" rx="2.396" ry="2.416"/><ellipse cx="90.509" cy="46.912" fill="#23A094" rx="2.396" ry="2.416"/><path fill="#23A094" stroke="#000" stroke-miterlimit="10" stroke-width="2.009" d="M107.564 278.892H84.768a2.76 2.76 0 0 0-2.762 2.762v10.181a2.763 2.763 0 0 0 2.762 2.763h22.796a2.76 2.76 0 0 0 2.762-2.763v-10.181a2.76 2.76 0 0 0-2.762-2.762Z"/><path fill="#F1F333" stroke="#000" stroke-miterlimit="10" stroke-width="2.009" d="M143.672 278.892h-22.795a2.76 2.76 0 0 0-2.763 2.762v10.181a2.763 2.763 0 0 0 2.763 2.763h22.795a2.763 2.763 0 0 0 2.763-2.763v-10.181a2.76 2.76 0 0 0-2.763-2.762Z"/><ellipse cx="165.877" cy="287.073" fill="#FF90E8" stroke="#000" stroke-width="2.009" rx="8.114" ry="8.181"/><path stroke="#000" stroke-linecap="round" stroke-linejoin="round" stroke-width="2.009" d="M165.875 283.402v7.34m-3.639-3.67h7.279"/><rect width="42.012" height="4.284" x="349.797" y="193.354" fill="#D6D3D1" rx="2.142"/><rect width="32.074" height="4.1" x="349.797" y="206.069" fill="#D6D3D1" rx="2.05"/><rect width="52.402" height="3.644" x="349.797" y="218.919" fill="#D6D3D1" rx="1.822"/><rect width="42.012" height="4.1" x="349.797" y="231.058" fill="#D6D3D1" rx="2.05"/><rect width="60.534" height="4.1" x="349.797" y="243.908" fill="#D6D3D1" rx="2.05"/><rect width="46.078" height="4.1" x="349.797" y="256.757" fill="#D6D3D1" rx="2.05"/><rect width="32.074" height="4.1" x="349.797" y="269.61" fill="#D6D3D1" rx="2.05"/><ellipse cx="341.665" cy="195.177" fill="#FFC900" rx="4.066" ry="4.1"/><ellipse cx="341.665" cy="208.027" fill="#FFC900" rx="4.066" ry="4.1"/><ellipse cx="341.665" cy="220.878" fill="#FFC900" rx="4.066" ry="4.1"/><ellipse cx="341.665" cy="233.729" fill="#FFC900" rx="4.066" ry="4.1"/><ellipse cx="341.665" cy="246.58" fill="#FFC900" rx="4.066" ry="4.1"/><ellipse cx="341.665" cy="259.43" fill="#FFC900" rx="4.066" ry="4.1"/><ellipse cx="341.665" cy="272.279" fill="#FFC900" rx="4.066" ry="4.1"/><path fill="#000" d="M271.737 117.032a5.2 5.2 0 0 1-2.492-.623q-1.16-.623-1.868-1.869-.71-1.245-.709-3.114 0-1.869.709-3.093.73-1.245 1.868-1.847a5.1 5.1 0 0 1 2.427-.623q1.397 0 2.406.602a4.07 4.07 0 0 1 1.589 1.675q.56 1.052.559 2.448v1.182h-7.518q.065 1.224.537 2.018.473.774 1.139 1.16.687.365 1.331.365h.172q.795 0 1.461-.408t.816-1.267h2.04q-.194 1.074-.837 1.847a4.3 4.3 0 0 1-1.59 1.16 5.2 5.2 0 0 1-2.04.387m-2.9-6.873h5.348q-.064-1.397-.794-1.976a2.45 2.45 0 0 0-1.633-.602h-.172q-.837 0-1.653.58-.795.559-1.096 1.998m-6.896 6.658v-15.035h2.041v15.035zm-7.239.215a5.2 5.2 0 0 1-2.492-.623q-1.16-.623-1.868-1.869-.71-1.245-.709-3.114 0-1.869.709-3.093.73-1.245 1.868-1.847a5.06 5.06 0 0 1 2.427-.623q1.397 0 2.406.602a4.07 4.07 0 0 1 1.589 1.675q.559 1.052.559 2.448v1.182h-7.518q.065 1.224.537 2.018.473.774 1.139 1.16.687.365 1.331.365h.172q.795 0 1.461-.408.664-.408.816-1.267h2.04q-.193 1.074-.838 1.847a4.3 4.3 0 0 1-1.589 1.16 5.2 5.2 0 0 1-2.04.387m-2.9-6.873h5.348q-.065-1.397-.794-1.976a2.45 2.45 0 0 0-1.633-.602h-.172q-.837 0-1.653.58-.795.559-1.096 1.998m-6.898 6.658v-15.035h2.041v15.035zm-7.239.215a5.2 5.2 0 0 1-2.492-.623q-1.16-.623-1.869-1.869-.708-1.245-.708-3.114t.708-3.093q.73-1.245 1.869-1.847a5.06 5.06 0 0 1 2.427-.623q1.397 0 2.406.602a4.07 4.07 0 0 1 1.589 1.675q.559 1.052.559 2.448v1.182h-7.518q.065 1.224.537 2.018.473.774 1.138 1.16.689.365 1.332.365h.172q.795 0 1.46-.408.666-.408.817-1.267h2.04q-.193 1.074-.838 1.847a4.3 4.3 0 0 1-1.589 1.16 5.2 5.2 0 0 1-2.04.387m-2.9-6.873h5.348q-.065-1.397-.795-1.976a2.45 2.45 0 0 0-1.632-.602h-.172q-.837 0-1.654.58-.794.559-1.095 1.998m-12.498 6.658v-15.035h2.041v8.935l4.725-4.639h2.685l-4.468 4.274 4.683 6.465h-2.513l-3.63-5.069-1.482 1.439v3.63zm-9.22.214q-1.932 0-3.2-.687a4.53 4.53 0 0 1-1.869-1.976q-.623-1.267-.623-2.921v-9.665h2.148v9.45q0 1.848.859 2.857.881 1.01 2.578 1.009h.215q1.696 0 2.556-1.009.88-1.01.88-2.857v-9.45h2.148v9.665q0 1.654-.644 2.921a4.63 4.63 0 0 1-1.912 1.976q-1.246.687-3.136.687m-23.037 3.758v-1.825h3.007q.494 0 .665-.194.194-.193.194-.665v-1.504l-4.511-10.524h2.17l3.35 7.925 3.222-7.925h2.105l-4.403 10.503v1.954q0 2.255-2.256 2.255zm-7.81-3.757q-1.01 0-1.825-.409a3.5 3.5 0 0 1-1.268-1.138 3.05 3.05 0 0 1-.451-1.632q0-.924.344-1.525.365-.623.945-.988.601-.387 1.289-.558a8 8 0 0 1 1.331-.258l2.964-.236v-.344q0-1.139-.601-1.74-.601-.623-1.632-.623h-.172q-.839 0-1.482.409-.623.386-.731 1.202h-2.04a3.2 3.2 0 0 1 .623-1.739q.58-.752 1.546-1.16.967-.43 2.17-.43 1.439 0 2.405.58a3.7 3.7 0 0 1 1.461 1.482q.494.924.494 2.019v5.649q.021.664.107 1.224h-1.933a18 18 0 0 1-.086-.645 13 13 0 0 1-.021-.708v-.365q-.322.73-1.246 1.331-.902.602-2.191.602m-1.503-3.265q0 .666.494 1.117.494.429 1.245.429h.172q.666 0 1.332-.322a3.3 3.3 0 0 0 1.117-.859q.472-.537.472-1.181v-1.096l-2.684.215q-.924.086-1.547.516-.601.43-.601 1.181m-6.767 3.049v-15.034h2.04v15.034zm-13.61 0v-15.034h6.336q1.397 0 2.492.537t1.718 1.547.623 2.469q0 1.44-.623 2.47a4.1 4.1 0 0 1-1.718 1.547q-1.095.537-2.492.537h-4.188v5.927zm2.148-7.86h3.866q1.46 0 2.234-.666.773-.665.773-1.955 0-1.288-.773-1.954t-2.234-.666h-3.866zm-15.646 8.076a5.1 5.1 0 0 1-2.621-.688q-1.16-.708-1.847-1.976-.687-1.266-.687-2.921 0-1.674.687-2.921.687-1.266 1.847-1.954a5 5 0 0 1 2.621-.709q1.46 0 2.62.709 1.16.688 1.847 1.954.688 1.247.688 2.921 0 1.655-.688 2.921-.687 1.268-1.847 1.976-1.16.688-2.62.688m-3.115-5.585q0 1.848.86 2.857.858 1.01 2.169 1.009h.172q1.31 0 2.169-1.009.86-1.01.859-2.857 0-1.846-.859-2.856-.86-1.01-2.169-1.01h-.172q-1.311 0-2.169 1.01-.86 1.01-.86 2.856m-6.14 5.369q-1.117 0-1.74-.623t-.623-1.74v-6.615h-2.362v-1.761h2.362v-3.479h2.041v3.479h2.577v1.761h-2.577v6.293q0 .472.193.666.193.193.666.193h2.04v1.826zm-23.192 0-3.329-10.739h2.148l2.362 8.484 2.363-8.484h2.148l2.47 8.484 2.255-8.484h2.148l-3.329 10.739h-2.256l-2.362-8.398-2.363 8.398zm-9.786.216q-1.438 0-2.62-.688-1.16-.708-1.847-1.976-.687-1.266-.687-2.921 0-1.674.687-2.921.687-1.266 1.847-1.954a5 5 0 0 1 2.62-.709q1.46 0 2.621.709 1.16.688 1.847 1.954.687 1.247.687 2.921 0 1.655-.687 2.921-.687 1.268-1.847 1.976-1.16.688-2.621.688m-3.114-5.585q0 1.848.859 2.857.86 1.01 2.169 1.009h.172q1.31 0 2.17-1.009.858-1.01.859-2.857 0-1.846-.859-2.856-.86-1.01-2.17-1.01h-.172q-1.31 0-2.169 1.01-.86 1.01-.859 2.856m-16.827 5.369v-15.034h2.147v6.551h7.625v-6.551h2.148v15.034H94.42v-6.55h-7.625v6.55zm59.088-31.098q-.595 0-.928-.333-.332-.331-.332-.927V80.93h-1.26v-.94h1.26v-1.855h1.088v1.855h1.375v.94h-1.375v3.356q0 .252.103.355.104.103.356.103h1.088v.974zm-5.673.114q-.882 0-1.501-.39a2.6 2.6 0 0 1-.928-1.076 3.5 3.5 0 0 1-.321-1.512q0-.847.321-1.512a2.5 2.5 0 0 1 .928-1.065q.619-.4 1.501-.401.985 0 1.626.538.642.54.722 1.466h-1.088a1.37 1.37 0 0 0-.401-.778 1.12 1.12 0 0 0-.813-.31h-.092q-.55 0-.905.287-.355.286-.538.756a2.9 2.9 0 0 0-.172 1.02q0 .537.172 1.019.183.47.538.756t.905.286h.092q.492 0 .813-.31.32-.308.401-.778h1.088q-.08.927-.722 1.466-.641.538-1.626.538m-7.221.002q-.963 0-1.455-.573-.492-.585-.492-1.489v-3.78h1.088v3.55q0 1.376 1.157 1.376h.091q.368 0 .699-.218.333-.218.539-.63t.206-.985v-3.093h1.088v5.727h-1.088v-1.088q-.16.47-.63.836-.459.367-1.203.367m-6.756-.002q-.71 0-1.271-.344a2.4 2.4 0 0 1-.882-1.02q-.31-.675-.31-1.614 0-.952.344-1.615.343-.665.928-1.008a2.5 2.5 0 0 1 1.306-.356q.606 0 1.076.264.481.263.699.653v-3.093h1.088v8.018h-1.088v-.802q-.218.39-.756.653a2.5 2.5 0 0 1-1.134.264m-1.374-2.978q0 1.03.446 1.546.459.515 1.111.515h.092q.413 0 .779-.229t.596-.687q.24-.458.24-1.145t-.24-1.146a1.66 1.66 0 0 0-.596-.687 1.44 1.44 0 0 0-.779-.23h-.092q-.652 0-1.111.516-.447.516-.446 1.547m-5.044 2.978q-.767 0-1.397-.366a2.7 2.7 0 0 1-.985-1.054q-.367-.675-.367-1.558 0-.894.367-1.558a2.64 2.64 0 0 1 .985-1.042q.63-.378 1.397-.378.779 0 1.398.378.618.367.985 1.042.366.664.366 1.558 0 .883-.366 1.558a2.74 2.74 0 0 1-.985 1.054 2.7 2.7 0 0 1-1.398.366m-1.661-2.978q0 .986.458 1.524t1.157.538h.092q.698 0 1.157-.538.458-.54.458-1.524 0-.985-.458-1.523a1.46 1.46 0 0 0-1.157-.539h-.092q-.699 0-1.157.539-.458.538-.458 1.523m-5.031 2.863V79.99h1.031v1.26q.171-.641.63-.974.469-.343 1.031-.343h.515v1.053h-.458q-.768 0-1.214.493-.447.48-.447 1.34v2.898zm-7.374 0V77.7h3.38q.744 0 1.328.286t.917.825q.332.538.332 1.317 0 .768-.332 1.318a2.2 2.2 0 0 1-.917.824q-.584.287-1.328.287h-2.234v3.161zm1.146-4.192h2.062q.779 0 1.191-.355t.413-1.043-.413-1.042q-.412-.355-1.191-.355h-2.062zm-10.695 6.313v-.974h1.603q.264 0 .356-.103.102-.103.103-.355v-.802l-2.406-5.613h1.157l1.787 4.227 1.718-4.227h1.123l-2.348 5.602v1.042q0 1.203-1.203 1.203zm-10.308-2.121V77.7h1.902l2.394 6.942 2.348-6.942h1.89v8.018h-1.145v-7.044l-2.36 7.044h-1.466l-2.418-7.01v7.01z"/><path fill="#23A094" stroke="#000" stroke-miterlimit="10" stroke-width="2.009" d="M282.814 140.388H87.902a5.525 5.525 0 0 0-5.525 5.525V256.66a5.525 5.525 0 0 0 5.525 5.525h194.912a5.525 5.525 0 0 0 5.525-5.525V145.913a5.525 5.525 0 0 0-5.525-5.525Z"/><path fill="#F1F333" stroke="#000" stroke-width="2.009" d="M103.12 224.959c0-6.103 4.947-11.05 11.05-11.05h16.51c6.103 0 11.05 4.947 11.05 11.05v37.978h-38.61z"/><path fill="#FF90E8" stroke="#000" stroke-width="2.009" d="M103.12 251.911h6.875v11.024h-6.875zm31.736 0h6.875v11.024h-6.875z"/><path fill="#000" d="M108.093 251.172v1.004h2.009v-1.004zm2.009-22.179a1.004 1.004 0 1 0-2.009 0zm-1.004 22.179h1.004v-22.179h-2.009v22.179zm27.66-22.197a1.004 1.004 0 1 0-2.009 0zm-2.009 22.178v1.005h2.009v-1.005zm1.005-22.178h-1.005v22.178h2.009v-22.178z"/><ellipse cx="122.428" cy="217.547" fill="#FF90E8" stroke="#000" stroke-width="2.009" rx="6.517" ry="5.787"/><path fill="#FF90E8" stroke="#000" stroke-width="2.009" d="M139.844 188.48c-3.295-2.621-3.295-8.088 0-10.705 3.938-3.134 6.346-7.33 6.346-11.941 0-9.696-10.642-17.555-23.763-17.555s-23.763 7.859-23.763 17.555c0 4.611 2.408 8.807 6.346 11.941 3.295 2.621 3.295 8.088 0 10.705-3.938 3.134-6.346 7.33-6.346 11.941 0 9.696 10.642 17.555 23.763 17.555s23.763-7.859 23.763-17.555c0-4.611-2.408-8.807-6.346-11.941Z"/><ellipse cx="112.429" cy="202.028" fill="#000" rx="1.275" ry="1.285"/><ellipse cx="1.276" cy="1.286" fill="#000" rx="1.276" ry="1.286" transform="matrix(-1 0 0 1 133.691 200.742)"/><path stroke="#000" stroke-width="2.009" d="M117.703 206.723c.335.675 1.648 2.108 4.221 2.432s4.557-1.486 5.227-2.432"/><rect width="17.308" height="36.742" x="234.904" y="172.628" fill="#FF90E8" stroke="#000" stroke-miterlimit="10" stroke-width="2.009" rx="8.654"/><path stroke="#000" stroke-miterlimit="10" stroke-width="2.009" d="M256.769 200.183c0 7.356-5.913 13.32-13.208 13.32s-13.209-5.964-13.209-13.32m13.313 13.321v48.683m-8.761-73.336h17.536m-17.536 4.902h17.536"/><path stroke="#000" stroke-width="2.009" d="M0-1.005h14.718" transform="matrix(.61967 .78486 -.77982 .626 147.436 211.629)"/><path stroke="#000" stroke-width="2.009" d="M0-1.005h13.142" transform="matrix(.61967 .78486 -.77982 .626 145.135 214.492)"/><path fill="#FF90E8" d="M136.694 229.693c3.72 4.712 2.938 11.582-1.746 15.343a10.76 10.76 0 0 1-5.48 2.306c-.121 4.094-1.963 8.113-5.394 10.868-6.179 4.961-15.165 3.944-20.071-2.272s-3.875-15.277 2.303-20.239a14.2 14.2 0 0 1 11.718-2.866 10.9 10.9 0 0 1 3.456-4.862 10.76 10.76 0 0 1 15.214 1.722"/><path fill="#000" d="m136.694 229.693.784-.629zm-1.746 15.343.622.788zm-5.48 2.306-.115-1.002-.859.103-.026.871zm-5.394 10.868.622.788zm-20.071-2.272-.784.629zm2.303-20.239-.622-.788zm11.718-2.866-.198.989.847.171.292-.821zm3.456-4.862-.622-.788zm15.214 1.722-.783.629c3.375 4.276 2.666 10.511-1.585 13.925l.622.789.622.788c5.116-4.108 5.971-11.612 1.908-16.76zm-1.746 15.343-.622-.789a9.76 9.76 0 0 1-4.973 2.093l.115 1.002.116 1.002a11.75 11.75 0 0 0 5.986-2.52zm-5.48 2.306-1-.028c-.113 3.81-1.826 7.546-5.016 10.107l.622.789.622.788c3.671-2.948 5.642-7.25 5.772-11.628zm-5.394 10.868-.622-.789a13.205 13.205 0 0 1-18.666-2.112l-.783.629-.784.629a15.193 15.193 0 0 0 21.477 2.431zm-20.071-2.272.783-.629c-4.562-5.78-3.604-14.207 2.143-18.821l-.623-.789-.622-.788c-6.61 5.308-7.715 15.004-2.465 21.656zm2.303-20.239.623.789a13.2 13.2 0 0 1 10.897-2.666l.198-.989.197-.989a15.18 15.18 0 0 0-12.537 3.067zm11.718-2.866.941.339a9.9 9.9 0 0 1 3.137-4.412l-.622-.789-.622-.788a11.9 11.9 0 0 0-3.776 5.311zm3.456-4.862.622.789a9.77 9.77 0 0 1 13.809 1.562l.783-.629.784-.629a11.757 11.757 0 0 0-16.62-1.881z"/><path fill="#FF90E8" stroke="#000" stroke-width="2.009" d="m145.897 219.162 3.033 3.842-19.752 16.979-4.116-5.214z"/><path fill="#FF90E8" stroke="#000" stroke-width="2.009" d="m148.922 223.022-3.035-3.846 6.133-7.447 5.472 6.934z"/><ellipse cx="3.955" cy="3.957" fill="#FF90E8" stroke="#000" stroke-width="2.009" rx="3.955" ry="3.957" transform="matrix(.61956 .78495 -.77973 .62612 128.016 231.588)"/><path stroke="#000" stroke-width="2.009" d="M0-1.005h10.437" transform="matrix(.61967 .78486 -.77982 .626 110.379 244.124)"/><path fill="#23A094" d="M325.562 80.947a5.525 5.525 0 0 1 5.526-5.525h86.655a5.525 5.525 0 0 1 5.525 5.525v59.442h-97.706z"/><path stroke="#000" stroke-miterlimit="10" stroke-width="2.009" d="M417.95 75.422h-86.862a5.525 5.525 0 0 0-5.526 5.525v208.839a5.526 5.526 0 0 0 5.526 5.525h86.862a5.525 5.525 0 0 0 5.525-5.525V80.946a5.525 5.525 0 0 0-5.525-5.524Z"/><path fill="#F1F333" stroke="#000" stroke-width="2.009" d="M335.494 124.839c0-5.565 4.512-10.077 10.078-10.077s10.077 4.512 10.077 10.077v15.517h-20.155z"/><path fill="#FF90E8" stroke="#000" stroke-width="2.009" d="M335.494 134.601h3.674v5.755h-3.674zm16.49.001h3.666v5.755h-3.666z"/><path fill="#000" d="M337.611 134.217v1.004h2.009v-1.004zm2.009-11.578a1.004 1.004 0 0 0-2.009 0zm-1.005 11.578h1.005v-11.578h-2.009v11.578zm14.921-11.594a1.004 1.004 0 0 0-2.009 0zm-2.009 11.578v1.004h2.009v-1.004zm1.004-11.578h-1.004v11.578h2.009v-11.578z"/><ellipse cx="345.572" cy="116.659" fill="#FF90E8" stroke="#000" stroke-width="2.009" rx="3.402" ry="3.021"/><path fill="#FF90E8" stroke="#000" stroke-width="2.009" d="M354.663 101.487c-1.72-1.368-1.72-4.222 0-5.588 2.056-1.636 3.313-3.826 3.313-6.234 0-5.061-5.556-9.164-12.405-9.164s-12.405 4.103-12.405 9.164c0 2.408 1.257 4.598 3.313 6.234 1.72 1.368 1.72 4.222 0 5.588-2.056 1.636-3.313 3.827-3.313 6.234 0 5.061 5.556 9.164 12.405 9.164s12.405-4.103 12.405-9.164c0-2.407-1.257-4.598-3.313-6.234Z"/><ellipse cx="340.352" cy="108.56" fill="#000" rx=".752" ry=".758"/><ellipse cx="350.785" cy="108.56" fill="#000" rx=".752" ry=".758"/><path stroke="#000" stroke-width="2.009" d="M343.107 111.009c.175.353.861 1.101 2.204 1.27s2.379-.776 2.728-1.27"/><rect width="8.21" height="17.428" x="398.523" y="93.983" fill="#FF90E8" stroke="#000" stroke-miterlimit="10" stroke-width="2.009" rx="4.105"/><path stroke="#000" stroke-miterlimit="10" stroke-width="2.009" d="M408.894 107.055c0 3.489-2.805 6.317-6.265 6.317-3.461 0-6.266-2.828-6.266-6.317m6.479 6.207v27.129m-4.354-38.711h8.318m-8.318 2.324h8.318"/><path stroke="#000" stroke-width="2.009" d="M0-1.005h7.773" transform="matrix(.61966 .78487 -.7798 .62602 358.174 113.185)"/><path stroke="#000" stroke-width="2.009" d="M0-1.005h6.941" transform="matrix(.61967 .78486 -.77982 .626 356.959 114.696)"/><path fill="#FF90E8" d="M352.502 122.729a5.8 5.8 0 0 1-.922 8.102 5.7 5.7 0 0 1-2.893 1.218 7.63 7.63 0 0 1-2.848 5.742 7.5 7.5 0 0 1-10.601-1.2c-2.591-3.283-2.046-8.069 1.217-10.689a7.5 7.5 0 0 1 6.187-1.515 5.76 5.76 0 0 1 1.824-2.568 5.685 5.685 0 0 1 8.036.91"/><path fill="#000" d="m352.502 122.729.783-.629zm-.922 8.102.622.789zm-2.893 1.218-.116-1.001-.858.102-.026.871zm-2.848 5.742.622.788zm-10.601-1.2-.784.629zm1.217-10.689-.622-.788zm6.187-1.515-.197.989.847.171.291-.821zm1.824-2.568-.622-.789zm8.036.91-.783.629a4.786 4.786 0 0 1-.762 6.685l.623.788.622.789c2.906-2.334 3.392-6.595 1.083-9.52zm-.922 8.102-.623-.788a4.7 4.7 0 0 1-2.386 1.005l.116 1.001.116 1.002a6.7 6.7 0 0 0 3.399-1.431zm-2.893 1.218-1-.028a6.62 6.62 0 0 1-2.471 4.981l.623.789.622.788a8.65 8.65 0 0 0 3.226-6.502zm-2.848 5.742-.623-.789a6.505 6.505 0 0 1-9.195-1.04l-.783.629-.784.629a8.495 8.495 0 0 0 12.007 1.359zm-10.601-1.2.783-.629c-2.247-2.847-1.775-6.998 1.056-9.271l-.622-.789-.622-.788c-3.695 2.967-4.314 8.387-1.379 12.106zm1.217-10.689.622.789a6.5 6.5 0 0 1 5.368-1.315l.197-.989.197-.989a8.49 8.49 0 0 0-7.006 1.716zm6.187-1.515.941.339a4.75 4.75 0 0 1 1.505-2.119l-.622-.788-.622-.789a6.77 6.77 0 0 0-2.144 3.018zm1.824-2.568.622.788a4.69 4.69 0 0 1 6.631.751l.783-.629.783-.629a6.68 6.68 0 0 0-9.441-1.07z"/><path fill="#FF90E8" stroke="#000" stroke-width="2.009" d="m357.364 117.165 1.602 2.029-10.432 8.968-2.174-2.754z"/><path fill="#FF90E8" stroke="#000" stroke-width="2.009" d="m358.962 119.204-1.603-2.031 3.239-3.933 2.89 3.662z"/><ellipse cx="2.089" cy="2.09" fill="#FF90E8" stroke="#000" stroke-width="2.009" rx="2.089" ry="2.09" transform="matrix(.61956 .78495 -.77973 .62612 347.92 123.727)"/><path stroke="#000" stroke-width="2.009" d="M0-1.005h5.512" transform="matrix(.61967 .78486 -.77982 .626 338.605 130.348)"/><rect width="53.809" height="33.554" x="162.383" y="184.652" fill="#F4F4F0" stroke="#000" stroke-width="2.009" rx="16.777"/><rect width="29.737" height="18.562" x="359.918" y="100.411" fill="#F4F4F0" stroke="#000" stroke-width="2.009" rx="9.281"/><path fill="#FF90E8" stroke="#000" stroke-width="2.009" d="M196.034 199.072c1.767 1.076 1.767 3.642 0 4.718l-8.92 5.434c-1.841 1.122-4.2-.203-4.2-2.359v-10.868c0-2.156 2.359-3.481 4.2-2.359zm180.633-91.728c1.742 1.08 1.742 3.614 0 4.694l-1.202.746c-1.84 1.142-4.219-.181-4.219-2.347v-1.492c0-2.166 2.379-3.489 4.219-2.347z"/><path stroke="#000" stroke-width="2.009" d="M325.225 139.386h97.706m-97.706 34.982h97.706"/><path fill="#FF90E8" d="M336.555 152.735c0-.508.412-.921.921-.921h19.291a.921.921 0 0 1 .763 1.438l-2.303 3.401a.92.92 0 0 0 0 1.032l2.303 3.401a.92.92 0 0 1-.763 1.437h-19.291a.92.92 0 0 1-.921-.921z"/><ellipse cx="405.585" cy="156.454" fill="#23A094" rx="7.434" ry="7.496"/><mask id="b" width="16" height="16" x="398" y="148" maskUnits="userSpaceOnUse" style="mask-type:alpha"><ellipse cx="405.585" cy="156.454" fill="#C4C4C4" rx="7.434" ry="7.496"/></mask><g mask="url(#b)"><path fill="#000" stroke="#000" stroke-width="2.009" d="M402.631 163.728a2.954 2.954 0 1 1 5.908 0v4.493h-5.908z"/><path fill="#000" d="M402.71 166.572v1.005h2.009v-1.005zm2.009-3.364a1.004 1.004 0 1 0-2.009 0zm-1.004 3.364h1.004v-3.364h-2.009v3.364zm4.844-3.37a1.004 1.004 0 1 0-2.009 0zm-2.009 3.364v1.005h2.009v-1.005zm1.005-3.364h-1.005v3.364h2.009v-3.364z"/><ellipse cx="405.596" cy="161.453" fill="#FF90E8" stroke="#000" stroke-width="2.009" rx=".989" ry=".878"/><path fill="#FF90E8" stroke="#000" stroke-width="2.009" d="M408.239 157.043c-.5-.397-.5-1.227 0-1.624.597-.475.963-1.112.963-1.811 0-1.471-1.615-2.663-3.605-2.663s-3.605 1.192-3.605 2.663c0 .699.365 1.336.963 1.811.5.398.5 1.227 0 1.624-.598.475-.963 1.112-.963 1.811 0 1.471 1.615 2.663 3.605 2.663s3.605-1.192 3.605-2.663c0-.699-.366-1.336-.963-1.811Z"/><ellipse cx="404.08" cy="159.096" fill="#000" rx=".219" ry=".221"/><ellipse cx="407.113" cy="159.096" fill="#000" rx=".219" ry=".221"/><path stroke="#000" stroke-width="2.009" d="M404.879 159.81c.051.103.25.32.64.37.391.049.691-.226.793-.37"/></g><g filter="url(#c)"><rect width="172.736" height="201.174" x="298.361" y="347.574" fill="#F4F4F0" rx="17.496"/><rect width="172.736" height="201.174" x="298.361" y="347.574" stroke="#000" stroke-width="2.009" rx="17.496"/></g><mask id="d" width="176" height="204" x="297" y="346" maskUnits="userSpaceOnUse" style="mask-type:alpha"><rect width="172.736" height="201.174" x="298.361" y="347.574" fill="#F4F4F0" stroke="#000" stroke-width="2.009" rx="17.496"/></mask><g mask="url(#d)"><path fill="#23A094" d="M298.869 347.574h172.482v100.772H298.869z"/></g><path fill="#FF90E8" d="M418.338 519.787a.92.92 0 0 1 .921-.921h37.387a.921.921 0 0 1 .755 1.449l-5.238 7.487a.92.92 0 0 0 0 1.055l5.238 7.487a.921.921 0 0 1-.755 1.449h-37.387a.92.92 0 0 1-.921-.921z"/><path fill="#000" d="M372.395 531.865q-.577 0-.9-.322-.322-.323-.322-.9v-3.421h-1.222v-.911h1.222v-1.799h1.055v1.799h1.333v.911h-1.333v3.254q0 .245.1.345t.345.1h1.055v.944zm-5.973-.001v-5.554h1v1.222q.166-.621.61-.944a1.66 1.66 0 0 1 1-.333h.5v1.022h-.444q-.744 0-1.178.477-.433.467-.433 1.3v2.81zm-4.392.112q-.522 0-.944-.211a1.8 1.8 0 0 1-.655-.589 1.57 1.57 0 0 1-.234-.844q0-.477.178-.789.189-.322.489-.51.31-.2.666-.289.356-.1.689-.134l1.533-.122v-.177q0-.59-.311-.9-.312-.322-.844-.322h-.089a1.4 1.4 0 0 0-.767.211q-.322.2-.377.622h-1.056q.034-.511.322-.9.3-.388.8-.6a2.7 2.7 0 0 1 1.122-.222q.744 0 1.244.3.5.29.755.766.256.478.256 1.045v2.921q.011.344.055.633h-.999a9 9 0 0 1-.045-.333 7 7 0 0 1-.011-.367v-.189q-.167.378-.644.689-.467.31-1.133.311m-.778-1.688q0 .344.256.577.255.222.644.222h.089q.344 0 .689-.166.344-.166.577-.445a.9.9 0 0 0 .245-.61v-.567l-1.389.111q-.478.045-.799.267a.71.71 0 0 0-.312.611m-4.301 1.688q-.855 0-1.455-.378a2.5 2.5 0 0 1-.9-1.044 3.4 3.4 0 0 1-.311-1.466q0-.822.311-1.466.311-.655.9-1.033.6-.389 1.455-.389.956 0 1.577.522.622.522.7 1.422h-1.055a1.33 1.33 0 0 0-.389-.755q-.31-.3-.789-.3h-.088q-.534 0-.878.277-.345.279-.522.734a2.9 2.9 0 0 0-.167.988q0 .522.167.989.177.455.522.733t.878.277h.088q.478 0 .789-.3.31-.299.389-.755h1.055q-.078.9-.7 1.422-.621.522-1.577.522m-9.037 0q-.744 0-1.355-.355a2.66 2.66 0 0 1-.956-1.022q-.355-.656-.355-1.511 0-.867.355-1.511a2.57 2.57 0 0 1 2.311-1.377q.755 0 1.355.367.6.356.955 1.01.356.644.356 1.511 0 .855-.356 1.511a2.65 2.65 0 0 1-.955 1.022q-.6.354-1.355.355m-1.611-2.888q0 .955.445 1.477.444.522 1.121.522h.089a1.41 1.41 0 0 0 1.122-.522q.444-.522.444-1.477t-.444-1.477a1.41 1.41 0 0 0-1.122-.522h-.089a1.41 1.41 0 0 0-1.121.522q-.445.522-.445 1.477m-3.119 2.777q-.577 0-.9-.322-.322-.323-.322-.9v-3.421h-1.222v-.911h1.222v-1.799h1.055v1.799h1.333v.911h-1.333v3.254q0 .245.1.345t.345.1h1.055v.944zm-8.878.111q-.689 0-1.233-.333a2.34 2.34 0 0 1-.855-.989q-.3-.656-.3-1.566 0-.922.333-1.566t.9-.977q.577-.345 1.266-.345.59 0 1.044.256.466.255.678.633v-2.999h1.055v7.775h-1.055v-.778q-.211.378-.733.633a2.4 2.4 0 0 1-1.1.256m-1.333-2.888q0 1 .433 1.5.445.5 1.078.499h.089q.4 0 .755-.222.356-.222.578-.666.233-.445.233-1.111t-.233-1.111a1.6 1.6 0 0 0-.578-.666 1.4 1.4 0 0 0-.755-.222h-.089q-.633 0-1.078.5-.432.5-.433 1.499m-5.282 2.888q-.689 0-1.233-.333a2.34 2.34 0 0 1-.855-.989q-.3-.656-.3-1.566 0-.922.333-1.566t.9-.977q.577-.345 1.266-.345.588 0 1.044.256.466.255.678.633v-2.999h1.055v7.775h-1.055v-.778q-.211.378-.733.633a2.4 2.4 0 0 1-1.1.256m-1.333-2.888q0 1 .433 1.5.445.5 1.078.499h.088q.4 0 .756-.222.355-.222.577-.666.234-.445.234-1.111t-.234-1.111a1.6 1.6 0 0 0-.577-.666 1.4 1.4 0 0 0-.756-.222h-.088q-.634 0-1.078.5-.433.5-.433 1.499m-9.147 2.777 3.077-7.775h1.422l3.054 7.775h-1.155l-.778-1.999h-3.71l-.777 1.999zm2.299-2.999h2.933l-1.467-3.754zm122.049 3.986a4 4 0 0 1-1.51-.28 2.8 2.8 0 0 1-1.13-.825q-.432-.558-.495-1.371h1.244q.088.686.609 1.041.52.356 1.219.356h.127q.8 0 1.295-.521.507-.532.507-1.32 0-.495-.228-.876a1.6 1.6 0 0 0-.622-.597 1.8 1.8 0 0 0-.889-.215h-.127a2 2 0 0 0-.876.215q-.444.216-.71.648h-1.232l1.079-5.268h4.761v1.142h-3.834l-.622 2.882q.368-.356.838-.521.47-.177.939-.177.826 0 1.447.355.623.355.965.978.355.61.355 1.37 0 .876-.418 1.549-.407.673-1.118 1.054a3.2 3.2 0 0 1-1.574.381m-5.976-.126v-7.096l-2.019 1.955v-1.524l2.285-2.221h.953v8.886zm-6.324.125h-.165l-.242 1.397h-1.079l.254-1.536q-1.041-.267-1.637-.99-.585-.736-.622-1.854h1.244q0 .66.33 1.105.33.431.876.634l.482-2.843-.305-.064q-.926-.202-1.561-.787-.622-.583-.622-1.536 0-.786.393-1.383a2.67 2.67 0 0 1 1.105-.94q.698-.342 1.612-.342h.216l.241-1.397h1.079l-.267 1.574q.902.28 1.41.965.52.674.558 1.65h-1.244a1.73 1.73 0 0 0-.279-.888 1.6 1.6 0 0 0-.635-.584l-.457 2.742q1.282.28 1.879.914.597.621.596 1.637 0 1.168-.85 1.854-.85.672-2.31.672m-1.803-6.613q0 .977 1.181 1.244l.266.063.457-2.754h-.101q-.813 0-1.308.393-.495.394-.495 1.054m1.815 5.534h.102q.825 0 1.307-.38.495-.381.495-1.016 0-1.079-1.358-1.371l-.076-.013z"/><path fill="#F1F333" stroke="#000" stroke-width="2.009" d="M327.529 420.525c0-6.103 4.948-11.05 11.05-11.05h8.338c6.103 0 11.05 4.947 11.05 11.05v27.315h-30.438z"/><path fill="#FF90E8" stroke="#000" stroke-width="2.009" d="M327.529 439.144h5.58v8.696h-5.58zm24.879.678h5.489v8.616h-5.489z"/><path fill="#000" d="M332.105 439.342v1.004h2.009v-1.004zm2.009-17.333a1.005 1.005 0 0 0-2.009 0zm-1.005 17.333h1.005v-17.333h-2.009v17.333zm20.79-17.364a1.005 1.005 0 1 0-2.009 0zm-2.009 17.333v1.004h2.009v-1.004zm1.005-17.333h-1.005v17.333h2.009v-17.333z"/><ellipse cx="342.808" cy="412.965" fill="#FF90E8" stroke="#000" stroke-width="2.009" rx="5.094" ry="4.523"/><path fill="#FF90E8" stroke="#000" stroke-width="2.009" d="M356.418 390.249c-2.575-2.048-2.575-6.321 0-8.366 3.077-2.449 4.959-5.729 4.959-9.332 0-7.578-8.317-13.72-18.571-13.72s-18.572 6.142-18.572 13.72c0 3.603 1.882 6.883 4.96 9.332 2.575 2.048 2.575 6.321 0 8.366-3.078 2.449-4.96 5.729-4.96 9.332 0 7.578 8.318 13.72 18.572 13.72s18.571-6.142 18.571-13.72c0-3.603-1.882-6.883-4.959-9.332Z"/><ellipse cx="334.993" cy="400.839" fill="#000" rx="1.126" ry="1.135"/><ellipse cx="350.614" cy="400.839" fill="#000" rx="1.126" ry="1.135"/><path stroke="#000" stroke-width="2.009" d="M339.115 404.505c.262.528 1.288 1.647 3.299 1.901 2.011.253 3.561-1.162 4.085-1.901"/><rect width="12.613" height="26.776" x="421.91" y="382.701" fill="#FF90E8" stroke="#000" stroke-miterlimit="10" stroke-width="2.009" rx="6.307"/><path stroke="#000" stroke-miterlimit="10" stroke-width="2.009" d="M437.844 402.782c0 5.361-4.31 9.707-9.626 9.707-5.317 0-9.626-4.346-9.626-9.707m10.014 10.049v35.478m-6.696-53.787h12.779m-12.779 3.575h12.779"/><path fill="#000" d="M447.237 474.355a3.8 3.8 0 0 1-1.841-.461q-.857-.46-1.38-1.38-.524-.921-.524-2.301t.524-2.285q.54-.92 1.38-1.364a3.74 3.74 0 0 1 1.793-.46q1.031 0 1.778.444.761.444 1.174 1.237.412.778.412 1.809v.873H445q.047.904.396 1.492.35.57.841.856.508.27.984.27h.127q.588 0 1.079-.301.492-.302.603-.936h1.508a2.9 2.9 0 0 1-.619 1.364q-.477.555-1.174.857-.683.286-1.508.286m-2.142-5.078h3.951q-.048-1.031-.587-1.46a1.8 1.8 0 0 0-1.206-.444h-.127q-.62 0-1.222.428-.587.412-.809 1.476m-5.017 4.919v-11.107h1.508v11.107zm-5.269.159a3.8 3.8 0 0 1-1.84-.461q-.858-.46-1.381-1.38-.524-.921-.524-2.301t.524-2.285q.54-.92 1.381-1.364a3.74 3.74 0 0 1 1.793-.46q1.031 0 1.777.444a3 3 0 0 1 1.174 1.237q.413.778.413 1.809v.873h-5.554q.048.904.397 1.492.349.57.841.856.507.27.983.27h.127q.587 0 1.079-.301.492-.302.603-.936h1.508a2.9 2.9 0 0 1-.619 1.364q-.476.555-1.174.857-.683.286-1.508.286m-2.142-5.078h3.951q-.047-1.031-.587-1.46a1.8 1.8 0 0 0-1.206-.444h-.127q-.618 0-1.222.428-.587.412-.809 1.476m-5.017 4.919v-11.107h1.508v11.107zm-5.268.159a3.8 3.8 0 0 1-1.841-.461q-.857-.46-1.381-1.38-.523-.921-.523-2.301t.523-2.285q.54-.92 1.381-1.364a3.74 3.74 0 0 1 1.793-.46q1.032 0 1.777.444a3 3 0 0 1 1.174 1.237q.413.778.413 1.809v.873h-5.554q.048.904.397 1.492.35.57.841.856.507.27.984.27h.127q.587 0 1.079-.301.492-.302.603-.936h1.507a2.9 2.9 0 0 1-.619 1.364q-.476.555-1.174.857-.682.286-1.507.286m-2.143-5.078h3.952q-.048-1.031-.588-1.46a1.8 1.8 0 0 0-1.206-.444h-.126q-.62 0-1.222.428-.588.412-.81 1.476m-9.153 4.919v-11.107h1.507v6.601l3.491-3.428h1.984l-3.301 3.158 3.46 4.776h-1.857l-2.682-3.745-1.095 1.063v2.682zm-6.733.159q-1.428 0-2.364-.508a3.34 3.34 0 0 1-1.38-1.46q-.46-.936-.461-2.158v-7.14h1.587v6.982q0 1.364.635 2.11.65.746 1.904.746h.159q1.254 0 1.888-.746.651-.746.651-2.11v-6.982h1.586v7.14q0 1.222-.476 2.158a3.4 3.4 0 0 1-1.412 1.46q-.92.507-2.317.508m-16.861 2.777v-1.349h2.221q.365 0 .492-.143.143-.143.143-.492v-1.11l-3.332-7.775h1.602l2.476 5.855 2.38-5.855h1.555l-3.253 7.759v1.444q0 1.666-1.666 1.666zm-5.692-2.777q-.746 0-1.349-.302a2.6 2.6 0 0 1-.936-.841 2.25 2.25 0 0 1-.333-1.206q0-.682.254-1.126a2.1 2.1 0 0 1 .698-.73 3.2 3.2 0 0 1 .952-.413q.507-.143.984-.19l2.189-.175v-.254q0-.84-.444-1.285-.444-.46-1.206-.46h-.127q-.618 0-1.095.301-.46.286-.539.889h-1.508q.048-.73.46-1.285a2.77 2.77 0 0 1 1.143-.857 3.9 3.9 0 0 1 1.603-.317q1.063 0 1.777.428.714.412 1.079 1.095t.365 1.491v4.173q.015.492.079.905h-1.428a14 14 0 0 1-.063-.476 9 9 0 0 1-.016-.524v-.269q-.238.539-.921.983-.666.444-1.618.445m-1.111-2.412q0 .492.365.825.365.317.92.317h.127q.492 0 .984-.238t.825-.635a1.3 1.3 0 0 0 .349-.872v-.809l-1.983.158q-.683.064-1.143.381a1.01 1.01 0 0 0-.444.873m-4.92 2.253v-11.107h1.508v11.107zm-9.974 0v-11.107h4.681q1.031 0 1.841.397a3 3 0 0 1 1.269 1.142q.46.745.46 1.825 0 1.063-.46 1.825a3 3 0 0 1-1.269 1.142q-.81.397-1.841.397h-3.094v4.379zm1.587-5.807h2.856q1.079 0 1.65-.492t.571-1.444-.571-1.444-1.65-.492h-2.856zm-11.402 5.966q-1.063 0-1.936-.508a3.8 3.8 0 0 1-1.364-1.46q-.508-.936-.508-2.158 0-1.237.508-2.158a3.67 3.67 0 0 1 3.3-1.967q1.08 0 1.936.523a3.7 3.7 0 0 1 1.365 1.444q.507.92.508 2.158 0 1.222-.508 2.158a3.8 3.8 0 0 1-1.365 1.46q-.856.507-1.936.508m-2.301-4.126q0 1.365.635 2.11.634.746 1.603.746h.127q.967 0 1.602-.746.635-.745.635-2.11t-.635-2.11a2.01 2.01 0 0 0-1.602-.746h-.127q-.969 0-1.603.746-.635.745-.635 2.11m-4.456 3.967q-.825 0-1.285-.461-.46-.46-.46-1.285v-4.887h-1.746v-1.301h1.746v-2.571h1.507v2.571h1.905v1.301h-1.905v4.649q0 .35.143.492t.492.143h1.508v1.349zm-16.977 0-2.459-7.934h1.587l1.745 6.268 1.746-6.268h1.586l1.825 6.268 1.666-6.268h1.587l-2.459 7.934h-1.666l-1.746-6.204-1.745 6.204zm-7.149.158q-1.062 0-1.936-.508a3.8 3.8 0 0 1-1.364-1.46q-.508-.936-.508-2.158 0-1.237.508-2.158a3.67 3.67 0 0 1 3.3-1.967q1.08 0 1.936.523.857.508 1.365 1.444.508.92.508 2.158 0 1.222-.508 2.158a3.8 3.8 0 0 1-1.365 1.46q-.856.507-1.936.508m-2.3-4.126q0 1.365.634 2.11.635.746 1.603.746h.127q.967 0 1.603-.746.634-.745.634-2.11t-.634-2.11q-.636-.746-1.603-.746h-.127q-.968 0-1.603.746-.634.745-.634 2.11m-12.353 3.968v-11.107h1.586v4.84h5.633v-4.84h1.587v11.107h-1.587v-4.839h-5.633v4.839z"/><path stroke="#000" stroke-width="2.009" d="M0-1.005h10.988" transform="matrix(.61967 .78486 -.77982 .626 360.754 410.597)"/><path stroke="#000" stroke-width="2.009" d="M0-1.005h9.812" transform="matrix(.61967 .78486 -.77982 .626 359.037 412.733)"/><path fill="#FF90E8" d="M352.736 424.088c2.777 3.518 2.194 8.646-1.303 11.454a8.04 8.04 0 0 1-4.093 1.722 10.79 10.79 0 0 1-4.026 8.114 10.6 10.6 0 0 1-14.985-1.696c-3.663-4.641-2.893-11.406 1.719-15.11a10.6 10.6 0 0 1 8.75-2.139 8.14 8.14 0 0 1 2.579-3.631 8.035 8.035 0 0 1 11.359 1.286"/><path fill="#000" d="m352.736 424.088.784-.629zm-1.303 11.454.622.788zm-4.093 1.722-.115-1.002-.859.102-.026.871zm-4.026 8.114.622.788zm-14.985-1.696-.784.629zm1.719-15.11-.622-.789zm8.75-2.139-.198.989.848.171.292-.821zm2.579-3.631-.622-.789zm11.359 1.286-.783.629c2.433 3.082 1.922 7.575-1.142 10.036l.622.789.622.788c3.929-3.155 4.586-8.917 1.465-12.871zm-1.303 11.454-.622-.789a7.03 7.03 0 0 1-3.586 1.509l.115 1.002.116 1.001a9 9 0 0 0 4.599-1.935zm-4.093 1.722-1-.029a9.77 9.77 0 0 1-3.649 7.354l.623.789.622.788a11.8 11.8 0 0 0 4.404-8.874zm-4.026 8.114-.623-.789a9.606 9.606 0 0 1-13.579-1.536l-.783.629-.784.629a11.596 11.596 0 0 0 16.391 1.855zm-14.985-1.696.783-.629c-3.319-4.205-2.622-10.335 1.559-13.693l-.623-.788-.622-.789c-5.045 4.052-5.888 11.451-1.881 16.528zm1.719-15.11.623.789a9.6 9.6 0 0 1 7.929-1.939l.198-.989.198-.989a11.6 11.6 0 0 0-9.57 2.339zm8.75-2.139.942.339a7.1 7.1 0 0 1 2.259-3.182l-.622-.788-.622-.789a9.16 9.16 0 0 0-2.899 4.081zm2.579-3.631.622.788a7.04 7.04 0 0 1 9.954 1.127l.783-.629.784-.629a9.03 9.03 0 0 0-12.765-1.446z"/><path fill="#FF90E8" stroke="#000" stroke-width="2.009" d="m359.607 416.222 2.265 2.868-14.747 12.677-3.072-3.893z"/><path fill="#FF90E8" stroke="#000" stroke-width="2.009" d="m361.863 419.101-2.265-2.871 4.578-5.56 4.086 5.177z"/><ellipse cx="2.953" cy="2.954" fill="#FF90E8" stroke="#000" stroke-width="2.009" rx="2.953" ry="2.954" transform="matrix(.61956 .78495 -.77973 .62612 346.258 425.501)"/><path stroke="#000" stroke-width="2.009" d="M0-1.005h7.792" transform="matrix(.61967 .78486 -.77982 .626 333.09 434.856)"/><ellipse cx="316.623" cy="492.595" fill="#23A094" rx="7.356" ry="7.417"/><mask id="e" width="15" height="16" x="309" y="485" maskUnits="userSpaceOnUse" style="mask-type:alpha"><ellipse cx="316.621" cy="492.596" fill="#C4C4C4" rx="7.356" ry="7.417"/></mask><g mask="url(#e)"><path fill="#F1F333" stroke="#000" stroke-width="2.009" d="M313.699 499.791a2.923 2.923 0 0 1 5.846 0v4.445h-5.846z"/><path fill="#000" d="M313.765 502.607v1.005h2.009v-1.005zm2.009-3.329a1.005 1.005 0 0 0-2.009 0zm-1.004 3.329h1.004v-3.329h-2.009v3.329zm4.805-3.336a1.005 1.005 0 0 0-2.009 0zm-2.009 3.329v1.005h2.009V502.6zm1.004-3.329h-1.004v3.329h2.009v-3.329z"/><ellipse cx="316.632" cy="497.542" fill="#FF90E8" stroke="#000" stroke-width="2.009" rx=".978" ry=".869"/><path fill="#FF90E8" stroke="#000" stroke-width="2.009" d="M319.246 493.178c-.495-.393-.495-1.214 0-1.606.591-.471.952-1.101.952-1.793 0-1.455-1.597-2.635-3.566-2.635-1.97 0-3.567 1.18-3.567 2.635 0 .692.361 1.322.952 1.793.495.393.495 1.214 0 1.606-.591.471-.952 1.1-.952 1.793 0 1.455 1.597 2.634 3.567 2.634 1.969 0 3.566-1.179 3.566-2.634 0-.693-.361-1.322-.952-1.793Z"/><ellipse cx="315.133" cy="495.212" fill="#000" rx=".217" ry=".218"/><ellipse cx="318.133" cy="495.212" fill="#000" rx=".217" ry=".218"/><path stroke="#000" stroke-width="2.009" d="M315.922 495.916c.05.101.248.316.634.365s.684-.223.784-.365"/></g><path stroke="#000" stroke-width="2.009" d="M298.615 507.12h172.482m-67.481 1.004v40.411"/><rect width="172.736" height="201.174" x="298.361" y="347.574" stroke="#000" stroke-width="2.009" rx="17.496"/><path stroke="#000" stroke-width="2.009" d="M298.615 447.344h172.482"/><rect width="39.569" height="25.065" x="368.367" y="389.523" fill="#F4F4F0" stroke="#000" stroke-width="2.009" rx="12.533"/><path fill="#FF90E8" stroke="#000" stroke-width="2.009" d="M391.685 399.671c1.824 1.067 1.824 3.703 0 4.77l-4.448 2.601c-1.841 1.077-4.157-.251-4.157-2.385v-5.202c0-2.134 2.316-3.462 4.157-2.385z"/><path fill="#000" d="M378.179 496.564q-.597 0-1.079-.241a2.06 2.06 0 0 1-.749-.673 1.8 1.8 0 0 1-.267-.965q0-.546.203-.901.216-.369.559-.584a2.6 2.6 0 0 1 .761-.33 4.7 4.7 0 0 1 .787-.153l1.752-.139v-.203q0-.674-.355-1.028-.356-.369-.965-.369h-.102q-.495 0-.875.242-.369.228-.432.71h-1.206q.038-.584.368-1.028a2.2 2.2 0 0 1 .914-.685 3.1 3.1 0 0 1 1.282-.254q.85 0 1.422.343.572.33.863.876.292.545.292 1.193v3.338q.013.394.064.724h-1.143q-.025-.165-.051-.381a8 8 0 0 1-.012-.419v-.216q-.19.432-.737.787-.533.356-1.294.356m-.889-1.93q0 .394.292.66.292.255.736.254h.102q.393 0 .787-.19.393-.19.66-.508.279-.317.279-.698v-.648l-1.587.127q-.546.051-.914.305a.81.81 0 0 0-.355.698m-7.571 1.804v-8.886h1.206v5.28l2.792-2.741h1.587l-2.64 2.526 2.767 3.821h-1.485l-2.145-2.996-.876.85v2.146zm-7.557-.001v-6.347h1.206v.888q.292-.431.774-.723.495-.292 1.257-.292 1.092 0 1.689.609.596.61.596 1.612v4.253h-1.206v-3.999q0-.673-.304-1.066-.305-.394-.978-.394h-.101q-.445 0-.851.229-.393.216-.635.647-.241.42-.241 1.028v3.555zm-5.208.127a2.4 2.4 0 0 1-1.079-.241 2.1 2.1 0 0 1-.749-.673 1.8 1.8 0 0 1-.267-.965q0-.546.203-.901.216-.369.559-.584.356-.228.762-.33a4.7 4.7 0 0 1 .787-.153l1.752-.139v-.203q0-.674-.356-1.028-.355-.369-.965-.369h-.101q-.495 0-.876.242-.368.228-.432.71h-1.206q.038-.584.368-1.028.344-.444.914-.685a3.1 3.1 0 0 1 1.283-.254q.85 0 1.421.343.571.33.864.876.292.545.292 1.193v3.338q.012.394.063.724h-1.142q-.025-.165-.051-.381a7 7 0 0 1-.013-.419v-.216q-.19.432-.736.787-.533.356-1.295.356m-.889-1.93q0 .394.292.66.292.255.737.254h.101q.394 0 .787-.19.394-.19.66-.508.28-.317.28-.698v-.648l-1.587.127q-.546.051-.914.305a.81.81 0 0 0-.356.698m-7.977 4.152v-1.079h1.777q.292 0 .394-.114.114-.114.114-.394v-.888l-2.666-6.22h1.282l1.98 4.684 1.905-4.684h1.244l-2.603 6.207v1.155q0 1.333-1.333 1.333zm-2.984-2.348v-6.347h1.206v6.347zm-.063-7.49v-1.396h1.333v1.396zm-4.9 7.489v-6.347h1.142v1.396q.19-.71.698-1.079a1.9 1.9 0 0 1 1.143-.381h.571v1.168h-.508q-.85 0-1.345.546-.495.533-.495 1.485v3.212zm-8.17 0v-8.886h3.745q.825 0 1.472.317.647.318 1.016.914.368.597.368 1.46 0 .85-.368 1.46a2.43 2.43 0 0 1-1.016.914 3.3 3.3 0 0 1-1.472.317h-2.476v3.504zm1.269-4.646h2.285q.864 0 1.32-.394.457-.393.457-1.155t-.457-1.155-1.32-.394h-2.285z"/><g filter="url(#f)"><path fill="#FFC900" stroke="#000" stroke-width="2.009" d="M415.504 313.029c8.399-25.272 17.35-28.723 37.897-22.068 21.07 6.826 26.234 14.779 17.945 40.158-8.17 25.24-17.53 26.846-38.339 20.106-19.875-6.438-25.87-13.019-17.503-38.196Z"/><path fill="#FFC900" d="M431.25 331.323a63 63 0 0 1-5.017-.701 1058 1058 0 0 1 3.329-17.639c1.743.315 3.675.716 4.363.892l.882-4.671c-.657-.067-2.599-.418-4.351-.684.422-2.236.866-4.313 1.25-6.35 1.037.238 2.331.472 4.603.986l.853-4.522-9.46-1.71c-2.198 12.191-5.274 28.488-7.033 37.265l9.708 1.755z"/><path fill="#FFC900" d="m438.296 331.285 4.616 1.495c2.119-9.742 6.757-29.787 8.607-37.115l-6.3-2.04c-4.952 11.696-10.959 25.445-15.29 34.949l4.568 1.48a874 874 0 0 1 6.054-15.33l2.164.701c-1.803 6.705-3.509 12.802-4.419 15.86m3.852-20.885c1.741-4.278 3.434-8.411 4.856-11.728l.144.047a688 688 0 0 1-3.221 12.257z"/><path fill="#FFC900" d="M449.21 338.195c2.12-4.49 5.431-23.56 6.88-26.629.39-.825 1.04-1.137 1.727-.819.55.255 1.107.849 1.393 1.428l3.38-2.9a8.5 8.5 0 0 0-3.303-2.704c-2.886-1.339-5.764-.328-7.214 2.741-1.818 3.848-5.028 22.35-6.997 26.519-.497 1.054-1.466 1.33-2.29.948-.55-.255-1.129-.803-1.511-1.65l-3.071 3.546c.907 1.035 2.085 1.972 3.413 2.588 2.932 1.36 5.883.55 7.593-3.068"/><path fill="#FFC900" d="M467.296 318.351c-1.886 2.339-4.737 5.78-7.085 8.794l-.18-.091c1.063-3.608 2.271-7.938 3.122-10.802l-4.372-1.987c-.924 5.212-1.967 10.875-2.882 15.297-2.414 4.798-8.912 17.524-10.602 20.474l4.414 2.235c1.395-2.928 7.452-14.799 10.097-19.934 3.673-3.933 7.345-7.754 11.449-11.753z"/><path stroke="#000" stroke-width="1.5" d="M431.25 331.323a63 63 0 0 1-5.017-.701 1058 1058 0 0 1 3.329-17.639c1.743.315 3.675.716 4.363.892l.882-4.671c-.657-.067-2.599-.418-4.351-.684.422-2.236.866-4.313 1.25-6.35 1.037.238 2.331.472 4.603.986l.853-4.522-9.46-1.71c-2.198 12.191-5.274 28.488-7.033 37.265l9.708 1.755z"/><path stroke="#000" stroke-width="1.5" d="m438.296 331.285 4.616 1.495c2.119-9.742 6.757-29.787 8.607-37.115l-6.3-2.04c-4.952 11.696-10.959 25.445-15.29 34.949l4.568 1.48a874 874 0 0 1 6.054-15.33l2.164.701c-1.803 6.705-3.509 12.802-4.419 15.86Zm3.852-20.885c1.741-4.278 3.434-8.411 4.856-11.728l.144.047a688 688 0 0 1-3.221 12.257z"/><path stroke="#000" stroke-width="1.5" d="M449.21 338.195c2.12-4.49 5.431-23.56 6.88-26.629.39-.825 1.04-1.137 1.727-.819.55.255 1.107.849 1.393 1.428l3.38-2.9a8.5 8.5 0 0 0-3.303-2.704c-2.886-1.339-5.764-.328-7.214 2.741-1.818 3.848-5.028 22.35-6.997 26.519-.497 1.054-1.466 1.33-2.29.948-.55-.255-1.129-.803-1.511-1.65l-3.071 3.546c.907 1.035 2.085 1.972 3.413 2.588 2.932 1.36 5.883.55 7.593-3.068Z"/><path stroke="#000" stroke-width="1.5" d="M467.296 318.351c-1.886 2.339-4.737 5.78-7.085 8.794l-.18-.091c1.063-3.608 2.271-7.938 3.122-10.802l-4.372-1.987c-.924 5.212-1.967 10.875-2.882 15.297-2.414 4.798-8.912 17.524-10.602 20.474l4.414 2.235c1.395-2.928 7.452-14.799 10.097-19.934 3.673-3.933 7.345-7.754 11.449-11.753z"/></g><defs><filter id="a" width="384.088" height="286.781" x="63.301" y="33.724" color-interpolation-filters="sRGB" filterUnits="userSpaceOnUse"><feFlood flood-opacity="0" result="BackgroundImageFix"/><feColorMatrix in="SourceAlpha" result="hardAlpha" values="0 0 0 0 0 0 0 0 0 0 0 0 0 0 0 0 0 0 127 0"/><feOffset dx="4" dy="4"/><feColorMatrix values="0 0 0 0 0 0 0 0 0 0 0 0 0 0 0 0 0 0 1 0"/><feBlend in2="BackgroundImageFix" result="effect1_dropShadow_804_7755"/><feBlend in="SourceGraphic" in2="effect1_dropShadow_804_7755" result="shape"/></filter><filter id="c" width="178.745" height="207.183" x="297.357" y="346.57" color-interpolation-filters="sRGB" filterUnits="userSpaceOnUse"><feFlood flood-opacity="0" result="BackgroundImageFix"/><feColorMatrix in="SourceAlpha" result="hardAlpha" values="0 0 0 0 0 0 0 0 0 0 0 0 0 0 0 0 0 0 127 0"/><feOffset dx="4" dy="4"/><feColorMatrix values="0 0 0 0 0 0 0 0 0 0 0 0 0 0 0 0 0 0 1 0"/><feBlend in2="BackgroundImageFix" result="effect1_dropShadow_804_7755"/><feBlend in="SourceGraphic" in2="effect1_dropShadow_804_7755" result="shape"/></filter><filter id="f" width="69.285" height="72.632" x="410.829" y="287.002" color-interpolation-filters="sRGB" filterUnits="userSpaceOnUse"><feFlood flood-opacity="0" result="BackgroundImageFix"/><feColorMatrix in="SourceAlpha" result="hardAlpha" values="0 0 0 0 0 0 0 0 0 0 0 0 0 0 0 0 0 0 127 0"/><feOffset dx="4" dy="4"/><feComposite in2="hardAlpha" operator="out"/><feColorMatrix values="0 0 0 0 0 0 0 0 0 0 0 0 0 0 0 0 0 0 1 0"/><feBlend in2="BackgroundImageFix" result="effect1_dropShadow_804_7755"/><feBlend in="SourceGraphic" in2="effect1_dropShadow_804_7755" result="shape"/></filter></defs></svg>